<svg width="48" height="48" fill="none" xmlns="http://www.w3.org/2000/svg"><g clip-path="url(#clip0_4063_10950)" fill="#F96E32"><path d="M23.517 37.479c.26 0 .51-.11.69-.3.501-.522 12.287-12.988 12.287-22.792C36.494 6.977 30.676.95 23.517.95c-7.16 0-12.978 6.028-12.978 13.438 0 9.854 11.786 22.27 12.287 22.801.18.18.43.29.69.29zm0-34.607c6.098 0 11.055 5.167 11.055 11.515 0 7.74-8.532 17.885-11.055 20.709-2.524-2.824-11.055-12.918-11.055-20.709 0-6.348 4.956-11.515 11.055-11.515z"/><path d="M29.765 14.888a6.244 6.244 0 00-6.248-6.248 6.244 6.244 0 00-6.249 6.248 6.244 6.244 0 006.249 6.249 6.256 6.256 0 006.248-6.249zm-10.574 0a4.32 4.32 0 014.326-4.326 4.32 4.32 0 014.326 4.326 4.32 4.32 0 01-4.326 4.326 4.32 4.32 0 01-4.326-4.326zM47.91 45.68l-6.73-14.4a.96.96 0 00-.87-.55h-8.592c-.51 0-.951.38-.991.89a.953.953 0 00.95 1.012h8.052l5.848 12.517h-6.229c-.26-2.313-1.892-3.925-4.866-4.797-2.814-.82-6.69-1.01-10.795-1.201-1.502-.07-3.054-.15-4.626-.25-1.973-.14-4.516-.641-5.358-2.274-.72-1.392-.05-3.164.34-3.995h1.263c.51 0 .95-.38.991-.891a.953.953 0 00-.951-1.011H6.624c-.39 0-.75.24-.891.61L.065 45.74a.961.961 0 00.891 1.312H47.04a.962.962 0 00.87-1.372zm-45.602-.53l4.927-12.518h4.746c-.46 1.272-.85 3.164.03 4.867 1.012 1.952 3.345 3.064 6.94 3.314 1.582.11 3.144.18 4.666.25 3.985.19 7.75.371 10.344 1.132 2.133.62 3.204 1.542 3.455 2.954H2.308z"/></g><defs><clipPath id="clip0_4063_10950"><path fill="#fff" d="M0 0h48v48H0z"/></clipPath></defs></svg>