<svg width="48" height="48" fill="none" xmlns="http://www.w3.org/2000/svg"><path d="M30.668 7.17a4.008 4.008 0 000 5.66c.75.75 1.77 1.17 2.83 1.17a4 4 0 004-4c0-1.06-.42-2.08-1.17-2.83-1.51-1.51-4.15-1.51-5.66 0zm4.3 4.2l-.05.05c-.79.76-2.04.76-2.83 0-.79-.79-.79-2.05 0-2.83.77-.79 2.03-.82 2.83-.05.8.77.82 2.03.05 2.83z" fill="#F96E32"/><path d="M46.449 13.09l-3.95-11.65V1c0-.55-.45-1-1-1H28.387c-.27 0-.52.11-.71.29L2.467 25.521a3.485 3.485 0 000 4.82l9.76 9.7c.37.36.81.63 1.3.79.05.31.24.58.52.72l12.35 6.111c1.62.8 3.59.13 4.39-1.49.011-.01.011-.02.02-.04l.05-.1 10.641.97c1.51 0 3-1.43 3-2.9V18.001a4.371 4.371 0 01-.03-.16l1.93-4c.12-.23.13-.51.05-.75zM13.637 38.623l-9.76-9.7c-.51-.56-.51-1.42 0-1.98L28.797 2h11.701v11.85l-24.97 24.772a1.359 1.359 0 01-1.891 0zm28.861 5.48c0 .31-.53.9-.91.9l-9.81-.89 10.72-22.191v22.181zm-13.49 1.16c-.15.32-.42.56-.75.67-.32.11-.67.09-.97-.06l-10.89-5.4c.2-.13.38-.27.54-.44l25.26-25.061a1 1 0 00.3-.71V7.67l1.92 5.67-15.41 31.921z" fill="#F96E32"/></svg>