<svg width="48" height="48" fill="none" xmlns="http://www.w3.org/2000/svg"><path d="M44 10.999H30v-2a4 4 0 00-4-4H4a4 4 0 00-4 4v26a3 3 0 003 3h3.09a5.992 5.992 0 0011.819 0h9.038a3.035 3.035 0 001.853-.677c.46.434 1.068.676 1.7.677h1.59a5.992 5.992 0 0011.819 0H45c1.542 0 3-1.458 3-3v-20a4 4 0 00-4-4zm-32 30a4 4 0 110-8 4 4 0 010 8zm16-5.95c0 .458-.618.95-1.052.95H17.91a5.992 5.992 0 00-11.82 0H3a1 1 0 01-1-1v-26a2 2 0 012-2h22a2 2 0 012 2v26.05zm10 5.95a4 4 0 110-8 4 4 0 010 8zm8-15H36c-.4 0-1-.527-1-1v-6c0-.58.6-1 1-1h10v8zm0-10H36c-1.419 0-3 1.232-3 3v6c0 1.542 1.458 3 3 3h10v7c0 .44-.561 1-1 1h-1.09a5.992 5.992 0 00-11.819 0H30.5a.5.5 0 01-.5-.5.936.936 0 00-.033-.164 2.45 2.45 0 00.033-.287V13h14a2 2 0 012 2v1z" fill="#F96E32"/><mask id="a" maskUnits="userSpaceOnUse" x="7" y="11" width="16" height="16" fill="#000"><path fill="#fff" d="M7 11h16v16H7z"/><path fill-rule="evenodd" clip-rule="evenodd" d="M14 13a1 1 0 00-1 1v3h-3a1 1 0 00-1 1v2a1 1 0 001 1h3v3a1 1 0 001 1h2a1 1 0 001-1v-3h3a1 1 0 001-1v-2a1 1 0 00-1-1h-3v-3a1 1 0 00-1-1h-2z"/></mask><path d="M13 17v2h2v-2h-2zm0 4h2v-2h-2v2zm4 0v-2h-2v2h2zm0-4h-2v2h2v-2zm-2-3a1 1 0 01-1 1v-4a3 3 0 00-3 3h4zm0 3v-3h-4v3h4zm-5 2h3v-4h-3v4zm1-1a1 1 0 01-1 1v-4a3 3 0 00-3 3h4zm0 2v-2H7v2h4zm-1-1a1 1 0 011 1H7a3 3 0 003 3v-4zm3 0h-3v4h3v-4zm2 5v-3h-4v3h4zm-1-1a1 1 0 011 1h-4a3 3 0 003 3v-4zm2 0h-2v4h2v-4zm-1 1a1 1 0 011-1v4a3 3 0 003-3h-4zm0-3v3h4v-3h-4zm5-2h-3v4h3v-4zm-1 1a1 1 0 011-1v4a3 3 0 003-3h-4zm0-2v2h4v-2h-4zm1 1a1 1 0 01-1-1h4a3 3 0 00-3-3v4zm-3 0h3v-4h-3v4zm-2-5v3h4v-3h-4zm1 1a1 1 0 01-1-1h4a3 3 0 00-3-3v4zm-2 0h2v-4h-2v4z" fill="#F96E32" mask="url(#a)"/></svg>