<svg width="80" height="105" fill="none" xmlns="http://www.w3.org/2000/svg"><g clip-path="url(#clip0_3622_9151)"><path fill="#fff" d="M0 0h80v104.361H0z"/><g opacity=".5" clip-path="url(#clip1_3622_9151)"><path d="M40.157 10.137c-.393 0-.786-.157-1.1-.471-.629-.63-.629-1.572 0-2.2l3.93-3.93a1.552 1.552 0 011.1-.472h26.247c.864 0 1.572.708 1.572 1.572 0 .865-.708 1.572-1.572 1.572h-25.54l-3.537 3.536c-.314.236-.707.393-1.1.393z" fill="#000"/><path d="M66.483 26.012H55.167a4.729 4.729 0 01-4.715-4.715V12.73a4.729 4.729 0 014.715-4.715h11.237a4.729 4.729 0 014.716 4.715v8.566c0 2.593-2.044 4.715-4.637 4.715zM55.167 11.238c-.865 0-1.572.707-1.572 1.571v8.566c0 .865.707 1.572 1.572 1.572h11.237c.865 0 1.572-.707 1.572-1.572v-8.644c0-.865-.707-1.572-1.572-1.572l-11.237.079z" fill="#000"/><path d="M60.04 1.571h1.571a3.153 3.153 0 013.143 3.144v1.807a3.153 3.153 0 01-3.143 3.144H60.04a3.153 3.153 0 01-3.143-3.144V4.715a3.153 3.153 0 013.143-3.144z" fill="#fff"/><path d="M61.611 11.238H60.04a4.729 4.729 0 01-4.715-4.715V4.715A4.729 4.729 0 0160.04 0h1.572a4.729 4.729 0 014.715 4.715v1.808a4.729 4.729 0 01-4.715 4.715zm0-8.095H60.04c-.864 0-1.571.708-1.571 1.572v1.808c0 .864.707 1.571 1.571 1.571h1.572c.864 0 1.572-.707 1.572-1.571V4.715c0-.864-.708-1.572-1.572-1.572zm7.387 92.024H52.652c-6.05 0-11.002-4.95-11.002-11.002V41.258c0-6.051 4.951-11.002 11.002-11.002h16.346C75.05 30.256 80 35.206 80 41.258v42.986c0 6.051-4.95 10.923-11.002 10.923zM52.652 33.4c-4.322 0-7.858 3.537-7.858 7.859v42.986c0 4.322 3.536 7.859 7.858 7.859h16.346c4.322 0 7.859-3.537 7.859-7.859V41.258c0-4.322-3.537-7.859-7.859-7.859H52.652z" fill="#000"/><path d="M48.251 21.926h25.07a3.153 3.153 0 013.142 3.143v3.615a3.153 3.153 0 01-3.143 3.143H48.251a3.153 3.153 0 01-3.143-3.143V25.07c.079-1.729 1.414-3.143 3.143-3.143z" fill="#fff"/><path d="M73.399 33.399H48.25a4.729 4.729 0 01-4.715-4.715v-3.615a4.729 4.729 0 014.715-4.715h25.07a4.729 4.729 0 014.715 4.715v3.615c0 2.593-2.043 4.715-4.636 4.715zM48.25 23.497c-.864 0-1.571.707-1.571 1.572v3.615c0 .864.707 1.571 1.571 1.571h25.07c.865 0 1.572-.707 1.572-1.571v-3.615c0-.865-.707-1.572-1.572-1.572H48.251z" fill="#000"/><path d="M60.825 73.949c-1.808 0-3.3-1.415-3.38-3.144v-5.108h-5.029a3.354 3.354 0 01-3.379-3.379 3.354 3.354 0 013.38-3.379h5.029v-5.03c.078-1.807 1.414-3.143 3.143-3.221h.157c1.808 0 3.3 1.414 3.38 3.143v5.108h5.029a3.354 3.354 0 013.38 3.38 3.354 3.354 0 01-3.38 3.378h-5.03v5.03c-.078 1.807-1.414 3.143-3.143 3.222h-.157z" fill="#BAE3FA"/><path d="M60.825 51.473c1.336 0 2.515 1.1 2.593 2.436v5.816h5.816a2.616 2.616 0 012.593 2.593 2.616 2.616 0 01-2.593 2.593h-5.815v5.816a2.559 2.559 0 01-2.437 2.436h-.157c-1.336 0-2.515-1.1-2.593-2.436V64.91h-5.816a2.616 2.616 0 01-2.593-2.593 2.616 2.616 0 012.593-2.593h5.816v-5.816a2.558 2.558 0 012.436-2.436h.157zm0-1.572h-.236a4.225 4.225 0 00-3.929 3.93v4.322h-4.243c-2.28 0-4.166 1.886-4.166 4.165s1.887 4.165 4.166 4.165h4.243v4.323c.157 2.2 1.965 3.928 4.165 3.928h.236a4.226 4.226 0 003.93-3.929v-4.322h4.243c2.279 0 4.165-1.886 4.165-4.165 0-2.28-1.886-4.165-4.165-4.165H64.99V53.83c-.157-2.2-1.964-3.93-4.165-3.93z" fill="#000"/><path d="M12.81 86.837v.393C5.973 87.23.393 81.65.393 74.735c0-6.837 5.58-12.417 12.495-12.417 6.916 0 12.495 5.58 12.417 12.495 0 1.572-.315 3.144-.865 4.637-1.886 4.715-6.444 7.78-11.552 7.78l-.078-.393zm0-21.375c-5.108 0-9.274 4.165-9.274 9.273 0 2.515.944 4.794 2.751 6.601 1.807 1.808 4.086 2.75 6.601 2.75 5.108 0 9.352-4.165 9.352-9.273 0-3.85-2.28-7.23-5.816-8.644-1.257-.471-2.357-.707-3.614-.707z" fill="#BAE3FA"/><path d="M12.81 62.712c.078 0 .078 0 0 0 6.68 0 12.102 5.422 12.102 12.102 0 1.572-.315 3.065-.865 4.48-1.807 4.557-6.287 7.543-11.238 7.543-6.6 0-12.023-5.422-12.023-12.102 0-6.68 5.422-12.023 12.023-12.023zm0 21.768a9.66 9.66 0 009.665-9.666 9.78 9.78 0 00-6.05-9.037c-1.1-.472-2.358-.708-3.616-.708a9.66 9.66 0 00-9.666 9.666c-.078 5.344 4.323 9.745 9.666 9.745zm0-22.554C5.736 61.926 0 67.662 0 74.736c0 3.457 1.336 6.679 3.772 9.115a12.776 12.776 0 009.116 3.772c5.265 0 9.98-3.143 11.945-8.094.629-1.493.943-3.144.943-4.794a12.947 12.947 0 00-12.967-12.81zm0 21.768c-4.951 0-8.88-4.008-8.88-8.959 0-4.872 4.007-8.88 8.88-8.88 1.178 0 2.278.236 3.3.629 3.38 1.336 5.58 4.636 5.58 8.33 0 4.872-4.008 8.88-8.88 8.88z" fill="#000"/><path d="M53.831 103.654c-1.572 0-3.143-.315-4.636-.865a12.644 12.644 0 01-6.837-6.68c-1.336-3.064-1.336-6.443-.079-9.508 1.886-4.794 6.444-7.859 11.552-7.859 1.572 0 3.144.314 4.637.865 6.365 2.514 9.509 9.823 6.915 16.188-1.886 4.794-6.444 7.859-11.552 7.859zm0-21.768c-5.108 0-9.273 4.243-9.273 9.351 0 5.108 4.244 9.273 9.273 9.273 3.85 0 7.23-2.279 8.645-5.815.943-2.279.864-4.872-.079-7.151-.943-2.28-2.75-4.087-5.108-4.951a8.506 8.506 0 00-3.458-.707z" fill="#BAE3FA"/><path d="M53.831 79.135c1.493 0 2.986.315 4.48.865 6.208 2.515 9.194 9.509 6.68 15.717-1.808 4.558-6.288 7.544-11.16 7.544-1.493 0-3.065-.314-4.48-.864-6.208-2.515-9.194-9.51-6.68-15.717 1.808-4.716 6.366-7.545 11.16-7.545zm0 2.358c-5.344 0-9.666 4.4-9.666 9.745 0 5.343 4.4 9.666 9.666 9.666h.079c3.929 0 7.465-2.436 8.958-6.051A9.76 9.76 0 0057.446 82.2c-1.1-.471-2.358-.707-3.615-.707zm0-3.143c-5.265 0-9.98 3.143-11.945 8.094-1.257 3.222-1.257 6.68.079 9.823 1.336 3.144 3.85 5.58 7.072 6.837a12.31 12.31 0 004.715.943c5.344 0 9.98-3.143 11.946-8.094 1.257-3.222 1.257-6.68-.08-9.823-1.335-3.144-3.85-5.58-7.072-6.837a12.03 12.03 0 00-4.715-.943zm0 21.768c-4.872 0-8.88-4.008-8.88-8.88 0-2.358.864-4.637 2.593-6.287a8.678 8.678 0 016.287-2.672c1.179 0 2.279.236 3.3.629 2.201.864 3.93 2.593 4.873 4.793.943 2.2.943 4.637.079 6.837-1.336 3.38-4.558 5.58-8.252 5.58z" fill="#000"/><path d="M45.737 103.969c-.629 0-1.258-.158-1.886-.393L11.552 90.609c-2.593-1.022-3.85-4.008-2.829-6.601l7.544-18.86c.786-1.965 2.594-3.144 4.715-3.144.63 0 1.258.157 1.887.393l32.298 12.966c2.593 1.022 3.85 4.008 2.83 6.602l-7.545 18.86a5.148 5.148 0 01-4.715 3.144z" fill="#BAE3FA"/><path d="M20.982 62.397c.55 0 1.18.079 1.73.315L55.01 75.757c2.357.943 3.536 3.693 2.593 6.05l-7.544 18.861c-.707 1.808-2.515 2.908-4.322 2.908-.55 0-1.18-.079-1.73-.314L11.71 90.295c-2.357-.943-3.536-3.694-2.593-6.051l7.544-18.86c.707-1.887 2.436-2.987 4.322-2.987zm0-.786c-2.279 0-4.243 1.336-5.03 3.458L8.41 83.93c-.55 1.337-.55 2.83.078 4.166.629 1.336 1.65 2.357 2.986 2.907l32.3 12.967a5.897 5.897 0 002.042.393c2.28 0 4.244-1.336 5.03-3.458l7.544-18.86c.55-1.336.55-2.83-.079-4.165-.628-1.336-1.65-2.358-2.986-2.908L23.026 62.004c-.708-.235-1.336-.393-2.044-.393z" fill="#000"/><path d="M17.918 75.442l31.748 12.731c.629.236.943.943.707 1.572a1.22 1.22 0 01-1.571.707l-31.749-12.81a1.22 1.22 0 01-.707-1.57c.236-.55.943-.865 1.572-.63zm-1.415 4.322L48.33 92.416c.629.236.943.943.707 1.572a1.22 1.22 0 01-1.571.707L15.639 82.043a1.22 1.22 0 01-.708-1.572 1.22 1.22 0 011.572-.707zm-1.965 4.086l31.749 12.732c.628.235.943.943.707 1.571a1.22 1.22 0 01-1.572.708L13.674 86.13a1.22 1.22 0 01-.707-1.572 1.22 1.22 0 011.571-.707z" fill="#A2D9F1"/></g></g><defs><clipPath id="clip0_3622_9151"><path fill="#fff" d="M0 0h80v104.361H0z"/></clipPath><clipPath id="clip1_3622_9151"><path fill="#fff" d="M0 0h80v104.361H0z"/></clipPath></defs></svg>