<svg width="80" height="83" fill="none" xmlns="http://www.w3.org/2000/svg"><g clip-path="url(#clip0_3622_9131)"><g opacity=".5" clip-path="url(#clip1_3622_9131)"><path d="M40.453 73.641H8.745A8.745 8.745 0 010 64.896v-37.41a8.746 8.746 0 018.745-8.746h31.708a8.745 8.745 0 018.745 8.745v37.392a8.744 8.744 0 01-8.745 8.764zM8.745 21.24A6.247 6.247 0 002.5 27.485v37.392a6.247 6.247 0 006.246 6.247h31.708a6.246 6.246 0 006.246-6.246V27.485a6.247 6.247 0 00-6.246-6.247H8.745zm33.988-6.873H6.465V.52h36.268v13.848zM8.964 11.87h31.27V3.017H8.964v8.852z" fill="#000"/><path d="M19.515 34.6H1.25v25.56h18.265V34.6z" fill="#EEF5E8"/><path d="M20.764 61.41H0V33.35h20.764v28.06zM2.499 58.912h15.766V35.849H2.499v23.063z" fill="#000"/><path d="M43.445 60.805c8.066 0 14.604-6.539 14.604-14.605s-6.538-14.604-14.604-14.604c-8.066 0-14.605 6.538-14.605 14.604 0 8.066 6.539 14.605 14.605 14.605z" fill="#fff"/><path d="M43.445 62.053A15.854 15.854 0 1159.3 46.225a15.873 15.873 0 01-15.854 15.828zm0-29.209A13.355 13.355 0 1056.8 46.224a13.366 13.366 0 00-13.355-13.38z" fill="#000"/><path d="M61.666 81.48c9.374 0 16.972-7.599 16.972-16.972 0-9.373-7.598-16.972-16.972-16.972-9.373 0-16.972 7.599-16.972 16.972 0 9.374 7.599 16.972 16.972 16.972z" fill="#fff"/><path d="M61.666 82.73a18.222 18.222 0 1118.216-18.222A18.247 18.247 0 0161.666 82.73zm0-33.944a15.723 15.723 0 1015.717 15.722 15.741 15.741 0 00-15.716-15.722z" fill="#000"/><path d="M41.021 81.474c6.362 0 11.519-5.157 11.519-11.519 0-6.361-5.157-11.518-11.519-11.518-6.361 0-11.519 5.157-11.519 11.518 0 6.362 5.158 11.519 11.52 11.519z" fill="#fff"/><path d="M41.021 82.73a12.774 12.774 0 1112.775-12.768A12.787 12.787 0 0141.02 82.73zm0-23.044a10.276 10.276 0 1010.276 10.276 10.282 10.282 0 00-10.276-10.276z" fill="#000"/><path d="M35.912 74.96l4.254-10.245h2.092l4.254 10.244h-2.499l-.85-2.149h-4.047l-.85 2.15h-2.354zm5.234-7.24l-1.168 2.867h2.311l-1.143-2.868zm16.866 3.804V58.318h7.833v2.83H61.03v2.317h4.248v2.83H61.03v2.418h4.998v2.83l-8.015-.02zM46.443 48.03l.887 1.756c-.384.396-.86.69-1.387.855a5.742 5.742 0 01-1.942.331 5.31 5.31 0 01-3.873-1.455 5.096 5.096 0 01-1.493-3.835 5.341 5.341 0 011.4-3.83 5.172 5.172 0 013.947-1.492 5.335 5.335 0 011.818.3c.487.158.934.42 1.312.768l-1.037 1.755a4.01 4.01 0 00-2.093-.625 2.768 2.768 0 00-2.049.819 3.124 3.124 0 00-.812 2.286 2.969 2.969 0 003.123 3.123 3.604 3.604 0 002.2-.756z" fill="#000"/><path d="M61.273 51.759s9.682 1.2 12.287 9.632l-12.287-9.632z" fill="#fff"/><path d="M73.56 62.016a.625.625 0 01-.625-.437c-2.43-7.958-11.644-9.182-11.718-9.195a.629.629 0 01.156-1.25c.1 0 10.113 1.35 12.805 10.07a.625.625 0 01-.412.781.628.628 0 01-.206.031z" fill="#000"/></g></g><defs><clipPath id="clip0_3622_9131"><path fill="#fff" d="M0 0h80v82.73H0z"/></clipPath><clipPath id="clip1_3622_9131"><path fill="#fff" d="M0 0h80v82.73H0z"/></clipPath></defs></svg>