<svg width="80" height="72" fill="none" xmlns="http://www.w3.org/2000/svg"><g clip-path="url(#clip0_3622_9178)"><g opacity=".5" clip-path="url(#clip1_3622_9178)"><path d="M67.622 69.63H12.377c-5.79 0-10.503-4.712-10.503-10.503V27.785c0-5.791 4.712-10.504 10.503-10.504h55.245c5.792 0 10.504 4.713 10.504 10.504v31.341c0 5.792-4.712 10.504-10.504 10.504z" fill="#fff"/><path d="M68.133 71.504h-56.21C5.337 71.504 0 66.167 0 59.637V27.274c0-6.586 5.337-11.867 11.867-11.867h56.21c6.586 0 11.866 5.337 11.866 11.867v32.363c.057 6.53-5.28 11.867-11.81 11.867zm-56.266-52.35a8.117 8.117 0 00-8.12 8.12v32.363a8.118 8.118 0 008.12 8.12h56.21a8.118 8.118 0 008.119-8.12V27.274a8.117 8.117 0 00-8.12-8.12h-56.21z" fill="#000"/><path d="M56.153 19.418h-32.25V9.653c0-5.451 4.429-9.823 9.823-9.823h12.548c5.45 0 9.822 4.429 9.822 9.823v9.765h.057zm-28.502-3.804h24.698V9.653a6.082 6.082 0 00-6.075-6.076H33.726a6.082 6.082 0 00-6.075 6.076v5.961z" fill="#000"/><path d="M38.87 59.106c8.499 0 15.388-6.89 15.388-15.387 0-8.498-6.89-15.387-15.387-15.387-8.498 0-15.387 6.889-15.387 15.387 0 8.498 6.889 15.387 15.387 15.387z" fill="#F99595"/><path d="M38.87 60.184c-9.084 0-16.465-7.381-16.465-16.465 0-9.085 7.381-16.466 16.466-16.466 9.084 0 16.465 7.381 16.465 16.465 0 9.085-7.38 16.466-16.465 16.466zm0-30.773c-7.891 0-14.307 6.415-14.307 14.307 0 7.893 6.416 14.308 14.308 14.308 7.892 0 14.308-6.415 14.308-14.308 0-7.892-6.416-14.308-14.308-14.308z" fill="#000"/><path d="M47.5 41.505h-6.415v-6.473h-4.429v6.473h-6.472v4.429h6.472v6.416h4.429v-6.416H47.5v-4.43z" fill="#fff"/></g></g><defs><clipPath id="clip0_3622_9178"><path fill="#fff" d="M0 0h80v71.597H0z"/></clipPath><clipPath id="clip1_3622_9178"><path fill="#fff" d="M0 0h80v71.597H0z"/></clipPath></defs></svg>