<svg width="80" height="83" fill="none" xmlns="http://www.w3.org/2000/svg"><g clip-path="url(#clip0_3622_9255)"><g opacity=".5" clip-path="url(#clip1_3622_9255)" fill-rule="evenodd" clip-rule="evenodd"><path d="M4.219 38.86C1.549 33.004 0 27.077 0 21.18 0 9.492 8.961 0 19.996 0c8.61 0 13.51 2.597 17.938 10.08v28.78H4.219z" fill="#FD0"/><path d="M37.898 82.512C25.499 69.367 13.367 56.216 6.328 43.05h31.57v39.462z" fill="#4DA734"/><path d="M73.708 43.05C66.633 56.2 54.529 69.353 42.103 82.512V43.05h31.605z" fill="#E30613"/><path d="M42.102 10.08C46.486 2.598 51.395 0 59.998 0 71.032 0 80 9.492 80 21.18c0 5.898-1.55 11.789-4.219 17.68H42.102V10.08z" fill="#008BD2"/></g></g><defs><clipPath id="clip0_3622_9255"><path fill="#fff" d="M0 0h80v82.497H0z"/></clipPath><clipPath id="clip1_3622_9255"><path fill="#fff" d="M0 0h80v82.497H0z"/></clipPath></defs></svg>