<svg width="80" height="72" fill="none" xmlns="http://www.w3.org/2000/svg"><g clip-path="url(#clip0_3622_9231)"><g opacity=".5" clip-path="url(#clip1_3622_9231)"><path d="M68.247 18.452c-2.612-5.62-6.813-10.276-12.093-13.4C46.727-.51 36.906-1.021 26.97 3.407h-.057s-.057 0-.114.057a11.17 11.17 0 00-1.42.681c-1.135.568-2.213 1.25-3.122 1.874-.454.227-.908.568-1.306.852l-.056.056c-.057 0-.114.057-.114.057l-.057.057c-2.782 2.044-4.542 4.485-4.599 4.599-3.69 4.429-5.961 9.368-6.813 14.819-1.42 8.914.624 17.033 5.962 24.074.283.397.34.568.056.908-.34.455-.568.966-.851 1.533-.852 1.988-.341 3.918 1.476 5.053 1.362.852 2.157 2.215 2.27 3.975.171 2.669 2.159 4.826 4.827 5.28h.057c1.022.17 1.93.341 2.782 1.022.51.454 1.306.625 2.044.738h.114c.908.17 1.703.228 2.44.17.91-.056 1.477.171 2.102.796.738.738 1.476 1.135 2.27 1.135.739 0 1.534-.397 2.329-1.135.113-.114.284-.17.454-.228.17-.056.284-.056.454-.056.284 0 .568-.057.852-.17 1.022-.512 1.817-.512 2.668-.057.227.113.568.227.852.17.398-.114.625.057.965.397.965.966 2.101 1.193 3.293.511h.057c.34-.17.795-.397 1.022-.738.511-.681 1.136-.795 2.101-.795 1.646.057 3.35 0 4.712-1.022.795-.624 1.59-.794 2.499-.908 2.839-.454 4.656-2.385 4.996-5.337.227-1.93.965-3.18 2.271-3.975 1.76-1.078 2.328-3.009 1.477-4.996-.17-.454-.398-.965-.739-1.363-.454-.567-.34-.908.114-1.533.965-1.306 1.817-2.555 2.498-3.86 1.647-3.294 2.669-6.416 3.18-9.653.795-6.132-.057-12.377-2.669-17.942z" fill="#fff"/><path d="M32.76 13.4h14.763l.397.737v9.142l9.539.113.227.966.398 13.57-.795.68-9.255.171-.057 9.255-1.079.624-13.513.17-1.079-1.078-.17-8.744-8.744-.284-1.078-.908V24.358l1.021-1.25 8.404.114.624-.852.398-8.97z" fill="#F99595"/><path d="M68.247 18.452a30.1 30.1 0 00-12.094-13.4C46.728-.51 36.906-1.021 27.026 3.407h-.057s-.056.057-.284.17c-.51.228-.965.455-1.419.682-1.079.568-2.157 1.249-3.123 1.874-.454.283-.851.567-1.306.851l-.056.057s-.057.057-.114.057l-.057.057c-2.725 1.987-4.485 4.428-4.599 4.599-3.633 4.315-5.905 9.254-6.756 14.705-1.42 8.914.624 17.033 5.961 24.074.284.34.341.568.057.908-.34.455-.624.966-.851 1.533-.852 2.044-.284 3.918 1.476 5.053 1.362.852 2.157 2.215 2.27 3.975.171 2.669 2.158 4.826 4.827 5.28h.057c1.079.17 1.987.341 2.782 1.022.51.454 1.363.625 2.044.738h.113c.909.17 1.704.228 2.442.17.908-.056 1.476.171 2.1.796.739.738 1.477 1.135 2.272 1.135.795 0 1.533-.34 2.27-1.079.058-.113.228-.17.455-.227.114-.056.284-.056.454-.056.284 0 .568-.057.852-.17 1.022-.512 1.874-.512 2.669-.058.227.17.567.284.851.17.454-.113.625.058.965.398.909.965 2.101 1.136 3.294.511h.056c.341-.17.795-.397 1.022-.738.511-.738 1.136-.852 2.101-.795 1.647.057 3.35 0 4.713-1.022.794-.624 1.59-.795 2.498-.908 2.782-.455 4.656-2.385 4.996-5.337.227-1.874.966-3.18 2.271-3.975 1.76-1.135 2.328-3.009 1.477-4.996-.227-.511-.398-.965-.739-1.363-.454-.568-.34-.908.114-1.533.965-1.306 1.817-2.555 2.498-3.86 1.647-3.237 2.669-6.417 3.18-9.653.908-6.189.057-12.378-2.555-17.999zm-4.997 37.02c-.227-.682-.908-1.193-1.476-1.647-.113-.057-.227-.057-.284 0-.056.057-.113.113-.113.227.056.057.056.17.056.227 0 .17.057.34.057.511 0 .284 0 .511.057.738.057.568.17 1.136.114 1.647-.057.568-.284 1.135-.682 1.42-.17.17-.397.226-.624.226-.682-.056-1.363-.454-1.76-.965-.341-.397-.511-.852-.455-1.306.114-1.192.966-2.384 2.044-2.839.284-.113.625-.227 1.022-.227.455 0 .966.114 1.533.511.057.057.114.057.228.114 0 0 .113 0 .17.057.113.056.227 0 .284-.057.056-.114.113-.17.056-.284-.283-.681-.397-.965-.34-1.25.113-.226.397-.51.965-1.021.795 1.079 1.42 2.1 1.192 3.463-.227 1.022-.851 1.817-1.93 2.328v-.34c0-.512.057-1.023-.114-1.534zm-9.198 10.447c-.056.056-.056.17 0 .284l.398.567c-1.136 1.42-4.826 1.817-6.984.738-.113-.056-.227 0-.284.057-.056.057-.056.17 0 .284l.511.681c-.567.682-1.135 1.306-2.044 1.477-.624.17-1.135.056-1.533-.398-.34-.397-.738-.795-1.078-1.192l-.341-.34 1.249-2.67c.17-.283.34-.51.454-.794l1.533 1.476a.362.362 0 00.34 0l.114-.114c.057-.056.17-.113.227-.227 0-.056-.056-.056-.056-.113s0-.114-.057-.114c-.114-.113-.227-.284-.34-.397-.285-.284-.569-.625-.852-.909-.17-.113-.227-.227-.341-.34a1.069 1.069 0 010-.739c.17-.454 0-1.022-.227-1.533 0-.056-.057-.17-.057-.227l.057-.056c.908-.795 1.079-1.08.852-1.817-.057-.284-.228-.568-.398-1.022v-.057c-.624-1.192-1.136-1.817-1.817-1.987-.568-.17-1.192-.057-2.1.454.17-.398.454-.681.965-.908 1.192-.568 2.668-.17 3.69 1.022l.568.68c1.703 1.931 3.463 4.032 5.167 6.02.34.397.738.737 1.249 1.192.17.113.34.227.568.283.113.057.227.057.34.114.114.057.227.057.284-.057.057-.056.057-.227 0-.284l-4.088-4.655.34-.17c.455-.228.966-.455 1.364-.739.68-.454.794-1.192.34-1.873-.397-.625-.795-1.193-1.306-1.704-.851-.795-1.817-.965-2.895-.454-.057 0-.114.057-.17.057.113-.114.283-.227.397-.284.795-.511 1.703-.511 2.611-.114a8.66 8.66 0 011.931 1.136c1.079.852 2.157 1.76 3.18 2.612.51.397.965.794 1.419 1.192.227.114.397.227.568.397.113.114.17.17.284.227.056.057.17.057.227.057.113 0 .17-.056.17-.113l.227-.682c.057-.113 0-.227-.057-.284-.51-.454-.851-.68-.908-.851 0-.057 0-.114.113-.284.17.114.284.17.455.284.454.284.965.568 1.533.681.567.114 1.135-.057 1.646-.17.057 0 .17-.057.227-.057-.113.34-.283.795-.454 1.192 0 .057-.057.114-.057.17-.113.285-.227.569-.227.852 0 2.158-1.135 3.748-3.123 4.43-1.078.397-2.327.794-3.52.056-.113-.057-.227 0-.284.057zm-20.496 3.804a7.202 7.202 0 01-.738-.625l-.17-.17.908-.625c.113-.056.17-.17.113-.284a.312.312 0 00-.284-.17c-2.498.625-5.166.908-7.721-.738l1.249-.965c.056-.057.113-.17.056-.284l-.056-.17c-.057-.057-.114-.114-.17-.114h-.057c.17-.057.34-.17.51-.284.511-.454.966-.965 1.42-1.476a207.37 207.37 0 003.35-3.975 92.016 92.016 0 012.044-2.441c.908-1.079 2.214-1.533 3.35-1.136.568.227.908.511 1.192.966-.114-.057-.17-.057-.227-.114-1.079-.681-2.044-.51-2.839.454-.397.454-.738 1.022-1.022 1.704-.284.681-.284 1.305 0 1.816.284.511.909.852 1.647.966.17.056.34.056.567.056h.057c-.113.114-.227.284-.34.398-.398.568-.795 1.022-1.193 1.476l-.51.511c-.455.454-.966.909-1.42 1.59a.173.173 0 000 .227c.056.057.113.114.227.114h.284c.17 0 .284 0 .34-.114.398-.454.852-.852 1.25-1.249.851-.795 1.76-1.647 2.327-2.782.455-.909 1.022-1.817 1.59-2.725.17-.228.284-.455.454-.682 0-.057.17-.113.284-.113.511-.114 1.022.113 1.363.567-1.59-.17-2.271.511-2.669 2.328-.284 1.363.341 1.874 1.874 2.271l-.51.852a36.014 36.014 0 01-1.59 2.442 11.589 11.589 0 01-1.307 1.532c-.227.228-.397.455-.624.682-.965 1.079-1.874 1.135-3.01.284zm-14.308-8.63c-.398-.284-.568-.739-.739-1.25-.056-.113-.056-.227-.113-.34 1.476.795 2.725.056 3.804-.852l.17.454-.851.227c-.114.057-.17.114-.17.227 0 .114 0 .17.113.228l.284.113-.398.681c-.056.114-.056.228 0 .284.057.057.17.114.284.057l.34-.17-.113.51c0 .114.057.228.17.285a.312.312 0 00.285-.17c.51-1.534 1.76-2.385 3.18-3.294.283-.17.51-.34.794-.51a.122.122 0 00.114-.114c.17-.625 1.022-1.363 2.1-1.817 1.193-.511 2.442-.625 3.18-.284.227.114.454.34.681.511-.113 0-.17-.057-.284-.114-1.022-.454-1.987-.284-2.838.511-.284.284-.568.625-.795.909-.739 1.079-.682 1.817-.511 2.271.284.681.965 1.136 2.044 1.306h.056l-4.088 4.712c-.056.057-.056.17 0 .284.057.057.17.114.284.057l.34-.17c-2.213 1.476-4.314 1.135-6.415-.966-.568-.567-1.476-1.76-.852-3.293.057-.113 0-.227-.056-.283zm-2.271-3.691v.34c-.966-.454-1.534-1.078-1.817-1.93-.511-1.476.17-2.668 1.022-3.974l1.078 1.135-.454 1.25c0 .056 0 .17.057.227.057.056.17.056.227.056h.114a.43.43 0 00.227-.113c.851-.795 1.76-.909 2.782-.34 1.192.624 1.817 1.646 1.873 2.895.057.454-.283 1.078-.851 1.533-.511.397-1.079.624-1.476.51-.341-.113-.682-.51-.909-.908-.454-.851-.34-1.817-.113-2.839v-1.022c0-.113-.057-.227-.17-.227l-.228-.056c-.057 0-.17.056-.113.227a3.232 3.232 0 00-.398.454c-.34.397-.624.795-.795 1.249-.113.511-.113 1.022-.056 1.533zm-3.975-39.404l1.42-2.498a30.29 30.29 0 012.327-3.18c3.18-3.406 5.054-4.883 5.394-5.11 5.508-3.86 11.413-5.79 17.658-5.79 2.782 0 5.621.397 8.517 1.136 3.918 1.078 7.438 3.236 10.447 5.223.624.398 1.079.909 1.59 1.476.227.284.454.511.738.795 9.936 9.596 12.037 24.699 5.11 36.622-.738 1.306-1.704 2.555-2.669 3.747-.454.568-.908 1.136-1.362 1.76-.17.284-.455.398-.909.398-1.135 0-2.328.624-3.123 1.646-.738.909-1.022 1.93-.851 2.84.113.567-.057.965-.34 1.419-.228-.227-.512-.398-.739-.625-.795-.568-1.476-1.135-2.214-1.703-.852-.625-1.647-1.192-2.499-1.647-1.022-.51-2.214-.624-3.236-.227-.852.34-1.476.965-1.874 1.817-.056 0-.056-.057-.113-.057-1.136-.908-2.328-1.249-3.35-.965-.965.227-1.874 1.079-2.441 2.385 0 .056-.17.17-.284.17a.649.649 0 01-.398-.17c-.568-1.193-1.42-1.988-2.441-2.215-.965-.227-2.101.057-3.123.795-.114.057-.227.17-.34.227-1.307-2.157-3.18-2.611-5.451-1.419-.625.284-1.193.738-1.76 1.192-.114.114-.228.17-.341.284-.738.568-1.476 1.136-2.271 1.76-.284.227-.511.398-.795.625-.057-.114-.057-.17-.114-.284-.113-.34-.227-.681-.17-.908.17-1.08-.17-2.272-.965-3.237-.795-.965-1.874-1.533-3.01-1.59-.34 0-.738-.17-.965-.397-2.214-2.214-3.974-4.826-5.45-7.949-1.704-3.52-2.612-7.268-2.783-11.128-.227-5.508.852-10.618 3.18-15.217zm38.155 40.937c-.114.057-.284.057-.454.113-.228.057-.455.114-.682.284-.397.227-.681.227-1.022-.113-.51-.568-1.079-1.136-1.703-1.93v-.285c.454-.283.965-.567 1.306-.738.056-.056.17-.056.227-.113.624.057 1.42.51 2.044 1.135.454.455.681.909.681 1.25 0 .056-.17.283-.397.397zm-14.535 1.703c-.227-.17-.511-.17-.739-.17-.113 0-.283 0-.397-.057-.17-.057-.34-.17-.34-.227-.114-.568 1.078-2.441 1.703-2.668.057 0 .17-.057.227-.057h.057c.851.113 1.362.454 1.703.965.057.227-.114.568-.227.908-.057.114-.114.284-.17.398-.057.057-.114.17-.17.227a.777.777 0 00-.171.227c-.227.34-.454.681-.738.738-.227.057-.454-.057-.738-.284zm6.018-.795c-.114-.51-.454-.908-.738-1.306-.057-.17-.17-.283-.284-.454.284-.454.738-.738 1.192-.795.511 0 .966.284 1.363.795.227.341.454.738.681 1.25.114.34.284.794.057 1.078-.17.284-.568.398-1.135.34-.625-.056-.909-.283-1.136-.908zm-1.533 2.669h-.341c-.17 0-.34 0-.51.057-.285.113-.568.113-.682 0-.113-.114-.057-.284-.057-.398.114-.681.454-1.42.852-2.044.057-.113.17-.17.34-.17h.057c.284 0 .682.227 1.08.397.453.511.226 1.022 0 1.59l-.058.114c-.056.227-.17.454-.34.51-.114.058-.227 0-.34-.056zm1.533-.227c0-.057.057-.114.057-.17.113-.398.227-.568.568-.568.34 0 .567.113.738.34-.057.057-.114.057-.17.057-.398.057-.852.114-1.193.34zm1.59 1.249c0 .057-.057.17-.057.227-.17.625-.568.738-1.25.795-.17 0-.283.057-.453.057.056-.682.284-1.25.738-1.704.057-.056.17-.056.284-.056.17 0 .454 0 .681.17.17.057.17.113.057.511zm-14.081-4.486c-.17-.056-.34-.056-.511-.113-.057 0-.17-.057-.284-.057-.113 0-.17.057-.34.17l-.057.228v.056l-.227-.227c-.284-.284-.228-.567.056-1.078.17-.341.398-.625.625-.909 1.079-1.192 2.1-1.192 3.293-.17.17.113.227.227.227.284a.43.43 0 01-.113.227c-.17.17-.284.397-.455.567-.113.17-.227.341-.397.511-.398.455-.625.682-.795.739-.17.056-.511-.057-1.022-.228zm-12.32-1.476c-.058-.17-.114-.34-.114-.51-.057-.285 0-.625.056-.91l.057 1.42zm29.41-1.93c0-.057.057-.114.114-.114l.056-.056c-.056.056-.056.113-.113.17h-.057zm10.39 2.555c0 .057-.056.057-.056.057.056-.057.056-.114.113-.17h.057c-.057.056-.114.056-.114.113zm-19.531 10.73c.113-.056.17-.17.227-.226.34-.34.681-.682.965-1.079.398-.454.681-1.022 1.022-1.533.057-.114.17-.284.227-.397.398-.682.795-1.306 1.193-1.93l.113-.228c-.057.227-.113.454-.227.568-.227 1.078.568 1.362 1.136 1.533.113 0 .17.056.227.056-.398 1.08-.909 1.76-1.874 2.101-.568.17-1.136.398-1.646.625-.398.17-.739.34-1.136.454-.057.057-.17.057-.227.057zm3.69-.34c.057 0 .17.114.228.227l-.455-.17c.114-.057.227-.114.227-.057zm20.724-11.753c-.056.17-.056.34-.113.454l.056-1.249c.057.227.057.511.057.795zm-1.078 2.101c-.114.057-.228.113-.341.113 0-.056.057-.056.113-.113.284-.057.568-.114.795-.17v.056c-.227 0-.397.057-.567.114z" fill="#000" stroke="#000" stroke-miterlimit="10" stroke-linecap="round" stroke-linejoin="round"/><path d="M46.842 49.396h-13.4a1.673 1.673 0 01-1.703-1.703v-8.29h-8.233a1.673 1.673 0 01-1.703-1.703V24.3c0-.965.738-1.703 1.703-1.703h8.29v-8.233c0-.965.738-1.703 1.703-1.703h13.4c.965 0 1.703.738 1.703 1.704v8.289h8.29c.965 0 1.703.738 1.703 1.703v13.4c0 .965-.738 1.703-1.704 1.703h-8.346v8.233c0 .909-.795 1.703-1.703 1.703zm-23.336-25.55a.448.448 0 00-.454.455v13.4c0 .283.227.453.454.453h9.482v9.54c0 .283.227.453.454.453h13.4a.448.448 0 00.454-.454v-9.539h9.482a.448.448 0 00.454-.454V24.3a.448.448 0 00-.454-.454h-9.482v-9.482a.448.448 0 00-.454-.454h-13.4a.448.448 0 00-.454.454v9.482h-9.482z" fill="#000"/></g></g><defs><clipPath id="clip0_3622_9231"><path fill="#fff" d="M0 0h80v71.597H0z"/></clipPath><clipPath id="clip1_3622_9231"><path fill="#fff" d="M0 0h80v71.597H0z"/></clipPath></defs></svg>