<svg width="80" height="95" fill="none" xmlns="http://www.w3.org/2000/svg"><g clip-path="url(#clip0_3622_9242)"><path fill="#fff" d="M0 0h80v94.806H0z"/><g opacity=".5" clip-path="url(#clip1_3622_9242)"><path d="M37.326 94.806H10.897a3.153 3.153 0 01-3.153-3.153V81.86a3.153 3.153 0 013.153-3.153h26.43a3.16 3.16 0 013.152 3.153v9.793a3.16 3.16 0 01-3.153 3.153zM10.897 81.613a.247.247 0 00-.247.247v9.793a.247.247 0 00.247.247h26.43a.247.247 0 00.246-.247V81.86a.247.247 0 00-.247-.247H10.897zm64.424-19.761a3.322 3.322 0 01-1.024-.167l-25.013-8.507a3.16 3.16 0 01-1.976-4.003l1.54-4.511a3.16 3.16 0 013.996-1.969l25.02 8.507a3.137 3.137 0 011.969 3.996L78.3 59.709a3.16 3.16 0 01-2.979 2.18v-.037zM51.827 45.434a.238.238 0 00-.109 0 .23.23 0 00-.124.138l-1.532 4.555a.247.247 0 00.152.312l25.02 8.507a.231.231 0 00.266-.055.219.219 0 00.046-.083l1.533-4.518a.212.212 0 000-.182.261.261 0 00-.145-.13l-25.027-8.53a.16.16 0 00-.08-.014zM35.35 75.88H12.88a5.493 5.493 0 01-5.484-4.961L.937 6.059A5.521 5.521 0 016.422 0H41.81a5.514 5.514 0 015.485 6.059l-6.458 64.86a5.492 5.492 0 01-5.485 4.962zM6.423 2.907A2.608 2.608 0 003.83 5.768l6.458 64.86a2.6 2.6 0 002.594 2.347h22.47a2.6 2.6 0 002.593-2.347l6.459-64.86a2.609 2.609 0 00-2.594-2.862H6.422zm66.225 91.39H50.563a3.16 3.16 0 01-3.153-3.073l-2.18-21.743a3.146 3.146 0 013.153-3.146h2.376v-3.13h21.67v3.123h2.398a3.153 3.153 0 013.153 3.146v.145L75.8 91.217a3.16 3.16 0 01-3.152 3.08zM48.136 69.445l2.18 21.7a.247.247 0 00.247.246h22.085a.248.248 0 00.247-.247V91l2.18-21.554a.24.24 0 00-.24-.204h-5.311V66.11h-15.86v3.124h-5.28a.247.247 0 00-.248.21z" fill="#000"/><path d="M33.985 9.474H14.246v51.82h19.739V9.474z" fill="#CBE8F0"/><path d="M35.438 62.753H12.793V7.991h22.645v54.762zm-19.739-2.906h16.833v-48.95H15.699v48.95z" fill="#000"/><path d="M69.945 76.193H53.236v6.778h16.71v-6.778z" fill="#E6EBB1"/><path d="M71.035 84.061H52.147v-8.958h18.889v8.958zm-16.709-2.18h14.53v-4.598h-14.53v4.599z" fill="#000"/></g></g><defs><clipPath id="clip0_3622_9242"><path fill="#fff" d="M0 0h80v94.806H0z"/></clipPath><clipPath id="clip1_3622_9242"><path fill="#fff" d="M0 0h80v94.806H0z"/></clipPath></defs></svg>