<svg width="171" height="217" fill="none" xmlns="http://www.w3.org/2000/svg"><g clip-path="url(#clip0_3368_7895)"><path d="M67.106 193.16h-83.299a22.996 22.996 0 01-16.245-6.718 22.922 22.922 0 01-6.73-16.221V72.093a22.92 22.92 0 016.73-16.22 22.992 22.992 0 0116.245-6.719h83.3a22.992 22.992 0 0116.245 6.719 22.92 22.92 0 016.729 16.22v98.079a22.909 22.909 0 01-6.712 16.252 22.983 22.983 0 01-16.263 6.736zM-16.193 55.708a16.423 16.423 0 00-11.604 4.8 16.372 16.372 0 00-4.806 11.585v98.079c0 4.346 1.729 8.513 4.806 11.586a16.422 16.422 0 0011.604 4.799h83.3c4.351 0 8.525-1.726 11.603-4.799a16.372 16.372 0 004.806-11.586V72.093c0-4.346-1.729-8.513-4.806-11.586a16.424 16.424 0 00-11.604-4.799h-83.299zm89.289-18.024h-95.28V1.36h95.28v36.325zm-88.715-6.553h82.15V7.913h-82.15v23.218z" fill="#000"/><path d="M12.098 90.755h-47.984V157.8h47.984V90.755z" fill="#EEF5E8"/><path d="M15.38 161.079h-54.547v-73.6H15.38v73.6zm-47.983-6.554h41.42V94.032h-41.42v60.493z" fill="#000"/><path d="M74.967 159.489c21.19 0 38.367-17.151 38.367-38.307 0-21.157-17.178-38.308-38.367-38.308-21.19 0-38.368 17.151-38.368 38.308 0 21.156 17.178 38.307 38.368 38.307z" fill="#fff"/><path d="M74.967 162.766a41.698 41.698 0 01-23.146-7.013 41.599 41.599 0 01-15.34-18.673 41.526 41.526 0 01-2.358-24.036 41.564 41.564 0 0111.416-21.29 41.67 41.67 0 0121.343-11.366A41.71 41.71 0 0190.95 82.78a41.632 41.632 0 0118.678 15.345 41.534 41.534 0 016.987 23.121 41.601 41.601 0 01-12.236 29.348 41.735 41.735 0 01-29.413 12.171zm0-76.615A35.124 35.124 0 0055.48 92.05a35.04 35.04 0 00-12.92 15.71 34.978 34.978 0 00-2.008 20.23 35.015 35.015 0 009.584 17.938 35.107 35.107 0 0017.947 9.602 35.14 35.14 0 0020.266-1.967 35.07 35.07 0 0015.759-12.873 34.986 34.986 0 005.945-19.444A35.02 35.02 0 0099.79 96.444a35.122 35.122 0 00-11.387-7.612 35.165 35.165 0 00-13.436-2.681z" fill="#000"/><path d="M122.836 213.723c24.624 0 44.586-19.931 44.586-44.517 0-24.586-19.962-44.518-44.586-44.518-24.625 0-44.587 19.932-44.587 44.518 0 24.586 19.962 44.517 44.587 44.517z" fill="#fff"/><path d="M122.836 217a47.922 47.922 0 01-26.6-8.047A47.812 47.812 0 0178.6 187.507a47.726 47.726 0 01-2.731-27.616 47.767 47.767 0 0113.097-24.475 47.887 47.887 0 0124.509-13.085 47.934 47.934 0 0127.66 2.717 47.856 47.856 0 0121.486 17.603 47.745 47.745 0 018.068 26.555 47.82 47.82 0 01-14.034 33.77A47.972 47.972 0 01122.836 217zm0-89.035a41.358 41.358 0 00-22.953 6.942 41.26 41.26 0 00-15.22 18.505 41.181 41.181 0 00-2.357 23.829 41.219 41.219 0 0011.3 21.12 41.32 41.32 0 0021.149 11.291 41.36 41.36 0 0023.867-2.344 41.283 41.283 0 0018.54-15.189 41.195 41.195 0 006.962-22.913 41.262 41.262 0 00-12.106-29.142 41.385 41.385 0 00-29.182-12.099z" fill="#000"/><path d="M68.6 213.707c16.712 0 30.26-13.527 30.26-30.213 0-16.687-13.548-30.214-30.26-30.214-16.713 0-30.261 13.527-30.261 30.214 0 16.686 13.548 30.213 30.26 30.213z" fill="#fff"/><path d="M68.6 217a33.592 33.592 0 01-18.647-5.648 33.518 33.518 0 01-12.36-15.04 33.46 33.46 0 01-1.907-19.362 33.494 33.494 0 019.19-17.156 33.578 33.578 0 0117.186-9.166 33.605 33.605 0 0119.391 1.914 33.54 33.54 0 0115.058 12.348 33.464 33.464 0 015.647 18.62 33.51 33.51 0 01-9.844 23.672A33.617 33.617 0 0168.599 217zm0-60.443c-5.34 0-10.56 1.58-14.998 4.542a26.964 26.964 0 00-9.943 12.096 26.914 26.914 0 005.852 29.373 27.005 27.005 0 0013.822 7.377 27.034 27.034 0 0015.597-1.534 26.989 26.989 0 0012.115-9.927 26.925 26.925 0 004.55-14.974 26.947 26.947 0 00-7.912-19.054 27.03 27.03 0 00-19.084-7.899z" fill="#000"/><path d="M55.175 196.617l11.176-26.871h5.497l11.176 26.871H76.46l-2.232-5.636H63.594l-2.232 5.636h-6.187zm13.752-18.99l-3.069 7.521h6.072l-3.003-7.521zm44.309 9.979v-34.637h20.578v7.422h-12.652v6.079h11.159v7.422h-11.159v6.341h13.128v7.422l-21.054-.049zm-30.392-61.623l2.33 4.604a8.726 8.726 0 01-3.643 2.245 15.113 15.113 0 01-5.104.868 13.963 13.963 0 01-10.174-3.818 13.364 13.364 0 01-3.922-10.06 13.997 13.997 0 013.675-10.044 13.594 13.594 0 0110.372-3.916c1.625-.016 3.241.25 4.775.787a9.384 9.384 0 013.446 2.015l-2.724 4.604a10.551 10.551 0 00-5.497-1.638 7.283 7.283 0 00-5.383 2.146 8.19 8.19 0 00-2.133 5.997 7.775 7.775 0 004.996 7.689 7.804 7.804 0 003.21.503 9.473 9.473 0 005.776-1.982z" fill="#000"/><path d="M121.802 135.765s25.436 3.146 32.279 25.265l-32.279-25.265z" fill="#fff"/><path d="M154.081 162.668a1.643 1.643 0 01-1.641-1.147c-6.384-20.874-30.589-24.085-30.786-24.118a1.663 1.663 0 01-1.1-.625 1.645 1.645 0 01-.132-1.83 1.656 1.656 0 011.643-.822c.262 0 26.568 3.539 33.641 26.412a1.638 1.638 0 01-1.083 2.048 1.636 1.636 0 01-.542.082z" fill="#000"/></g><defs><clipPath id="clip0_3368_7895"><path fill="#fff" d="M0 0h171v217H0z"/></clipPath></defs></svg>