<svg width="179" height="211" fill="none" xmlns="http://www.w3.org/2000/svg"><g clip-path="url(#clip0_3354_10948)" fill="#7CC622"><path d="M47.645.516a6.636 6.636 0 016.405.709 7.23 7.23 0 012.822 7.42c-.571 4.115-1.333 8.197-1.852 12.33-.52 4.134-1.35 9.029-2.043 13.837.883 0 17.623-1.955 25.327-2.889 8.898-1.09 17.034.986 23.491 7.091 10.612 9.997 20.774 20.478 31.161 30.786a31975.536 31975.536 0 0139.816 39.778 21.47 21.47 0 01.606 29.852c-2.406 2.542-4.951 4.981-7.427 7.454a27287 27287 0 00-54.929 54.791c-3.791 3.805-10.386 9.322-16.082 9.322a26.483 26.483 0 01-17.19-6.918 63879.854 63879.854 0 00-68.605-68.645 28.776 28.776 0 01-9.089-22.829c.485-7.022 1.437-14.026 2.13-20.944.588-5.829 1.315-11.657 2.008-17.468.692-5.812.952-11.934 2.198-17.78a22.718 22.718 0 016.026-11.768 22.753 22.753 0 0111.563-6.426 87.07 87.07 0 0112.43-1.73c1.73-.19 2.648-.363 2.648-.363s2.873-19.924 4.103-28.744c.415-3.01 1.402-5.604 4.449-6.918l.034.052zM37.951 42.94c-3.636.433-6.82.865-10.023 1.16a16.714 16.714 0 00-9.456 3.89 16.687 16.687 0 00-5.415 8.665 90.38 90.38 0 00-1.333 9.962c-.814 7.005-1.61 14.027-2.406 21.048-.797 7.022-1.333 13.646-2.337 20.426-1.333 9.132.848 16.88 7.53 23.469 14.161 13.957 28.149 28.07 42.205 42.114 8.57 8.561 17.173 17.07 25.69 25.666a14.667 14.667 0 0016.576 3.578 14.67 14.67 0 004.908-3.423 110274.36 110274.36 0 0063.896-63.991 17.28 17.28 0 003.999-6.14c2.164-6.053.312-11.277-4.154-15.739A63362.428 63362.428 0 0198.87 44.964 21.918 21.918 0 0080.9 38.34c-9.227.83-28.806 3.459-28.806 3.459s-.727 4.739-1.09 7.298l4.985-.518c7.098-.779 14.213-1.436 21.276-2.387 6.25-.848 11.945-.087 16.602 4.566 22.92 22.852 45.835 45.74 68.743 68.661 3.463 3.459 3.376 7.333-.155 10.844-2.493 2.473-5.003 4.912-7.479 7.385l-56.245 56.054c-3.774 3.77-7.357 3.805-11.096 0l-24.236-24.214a81394.235 81394.235 0 01-44.664-44.655 15.72 15.72 0 01-4.553-13.179c.883-7.887 1.922-15.93 2.805-23.954 1.021-9.27 1.956-18.54 2.995-27.81a8.904 8.904 0 012.515-5.516 8.919 8.919 0 015.465-2.63c2.303-.346 8.777-1.02 8.777-1.02s.9-5.362 1.212-7.8v.016zm54.254 116.292c2.077-2.265 4.068-4.6 6.197-6.796a2.752 2.752 0 00.883-2.871A15973.795 15973.795 0 0186.18 87.648c-.294-1.435-.813-3.736-1.16-5.31a.882.882 0 00-1.523-.38c-1.333 1.54-3.462 4.047-4.968 5.465a3.46 3.46 0 00-.935 3.46 41413.24 41413.24 0 0112.326 57.851c.744 3.563 1.54 7.022 2.285 10.498zm-26.729-52.801c-3.352-.063-6.64.92-9.408 2.81a16.123 16.123 0 00-6.034 7.74c-2.198 6.779.312 12.193 5.194 16.81 3.947 3.719 8.517 5.535 13.849 3.909a14.851 14.851 0 0010.037-9.145 14.827 14.827 0 00-1.607-13.477c-3.116-4.86-7.374-8.423-12.031-8.647zm31.316 8.647a17.433 17.433 0 005.921 13.836 14.414 14.414 0 0010.941 4.48c9.521-.502 18.904-12.522 11.287-23.435-3.134-4.462-7.063-7.921-12.793-8.423-7.669-.588-15.252 7.022-15.338 13.49l-.018.052zM35.648 59.232c-4.518.52-9.711 7.022-9.365 13.629.346 6.607 5.972 13.04 12.43 13.611a14.413 14.413 0 0010.46-2.639 14.387 14.387 0 005.691-9.156c1.004-4.566-1.731-12.107-5.574-13.335-.104.38-.225.761-.277 1.142-.64 3.908-1.108 7.87-1.99 11.743a5.845 5.845 0 01-5.194 4.618 6.532 6.532 0 01-6.786-2.888 8.64 8.64 0 01-.849-6.555c.485-3.373.952-6.745 1.454-10.17z"/><path d="M115.35 124.349c-3.462 0-9.071-5.552-9.106-9.097a5.18 5.18 0 012.037-4.061 5.189 5.189 0 014.455-.903 12.115 12.115 0 017.548 7.091 5.19 5.19 0 01-4.934 6.97zm-47.537 5.361c-3.463 0-9.071-5.552-9.106-9.097a5.187 5.187 0 014.16-5.025 5.202 5.202 0 012.332.061 12.121 12.121 0 017.565 7.005 5.183 5.183 0 01-2.495 6.496 5.194 5.194 0 01-2.456.56z"/></g><defs><clipPath id="clip0_3354_10948"><rect width="179" height="211" rx="5" fill="#fff"/></clipPath></defs></svg>