<svg width="80" height="88" fill="none" xmlns="http://www.w3.org/2000/svg"><g clip-path="url(#clip0_3622_9206)"><g opacity=".5" clip-path="url(#clip1_3622_9206)"><path d="M52.374 23.452a24.04 24.04 0 00-9.823 2.099 24.038 24.038 0 00-9.784-2.099c-14.246 0-25.746 12.436-25.746 27.728 0 15.292 11.508 27.728 25.746 27.728a24.03 24.03 0 009.823-2.1 24.04 24.04 0 009.823 2.1c14.199 0 25.746-12.413 25.746-27.728 0-15.315-11.586-27.728-25.785-27.728z" fill="#F4CFCE"/><path d="M52.373 80.468a25.457 25.457 0 01-9.822-1.959 25.459 25.459 0 01-9.784 1.959c-15.08 0-27.306-13.139-27.306-29.288 0-16.15 12.225-29.288 27.306-29.288a25.444 25.444 0 019.823 1.966 25.465 25.465 0 019.822-1.966c15.035 0 27.307 13.138 27.307 29.288S67.408 80.468 52.373 80.468zM42.551 75.1l.632.289a22.438 22.438 0 009.19 1.958c13.318 0 24.186-11.703 24.186-26.167 0-14.465-10.837-26.168-24.186-26.168-3.168 0-6.3.67-9.19 1.966l-.632.281-.64-.28a22.384 22.384 0 00-9.144-1.967c-13.317 0-24.185 11.703-24.185 26.168 0 14.464 10.829 26.167 24.185 26.167a22.375 22.375 0 009.183-1.958l.6-.289z" fill="#000"/><path d="M34.195 8.793s8.645 6.343 8.356 16.758L34.195 8.793z" fill="#fff"/><path d="M44.111 25.597l-3.12-.085c.265-9.44-7.639-15.401-7.717-15.464l1.834-2.512c.39.265 9.307 6.96 9.003 18.061z" fill="#000"/><path d="M45.64 17.164S41.872 2.551 63.327 1.64c0 0-3.253 18.841-17.687 15.525z" fill="#DEE9BC"/><path d="M48.933 19.122a16.262 16.262 0 01-3.643-.398l-.92-.21-.243-.92A13.474 13.474 0 0146.312 6.95C49.417 2.731 55.12.43 63.257.086L65.192 0l-.327 1.904c-.11.437-1.88 10.509-8.692 15.05a12.78 12.78 0 01-7.24 2.168zm-1.935-3.277c2.57.48 5.225-.051 7.412-1.482 4.104-2.66 6.086-8.122 6.905-11.024-6.031.554-10.228 2.38-12.483 5.461a10.142 10.142 0 00-1.834 7.045z" fill="#000"/><path d="M1.56 49.019s12.523 11.203 53.755 9.643v26.136S20.48 89.674 1.561 74.655V49.02z" fill="#fff"/><path d="M42.06 87.146c-12.07 0-29.647-1.872-41.467-11.273L0 75.404V45.531l2.598 2.34c.195.172 12.904 10.752 52.655 9.246l1.622-.062V86.17l-1.35.187c-4.466.552-8.964.815-13.465.788zM3.12 73.891c16.205 12.272 44.19 10.19 50.635 9.518V60.277c-30.63.92-45.173-5.173-50.634-8.317v21.93z" fill="#000"/><path d="M49.526 58.81h-3.12v14.317h3.12V58.81zm-19.294-1.045h-3.12V72.08h3.12V57.765zm-18.334-4.572h-3.12V67.51h3.12V53.193zm32.221 5.563h-1.56v8.527h1.56v-8.527zm-3.549 0h-1.561v8.527h1.56v-8.527zm-3.316 0h-1.56v8.527h1.56v-8.527zm-3.184 0h-1.56v8.527h1.56v-8.527zm-8.971-1.889h-1.56v8.528h1.56v-8.528zm-3.55-.78h-1.56v8.527h1.56v-8.527zm-3.316-.779h-1.56v8.527h1.56v-8.527zm-3.183-.781h-1.56v8.528h1.56v-8.528zm-7.256-2.403h-1.56v8.527h1.56v-8.527z" fill="#000"/></g></g><defs><clipPath id="clip0_3622_9206"><path fill="#fff" d="M0 0h80v87.147H0z"/></clipPath><clipPath id="clip1_3622_9206"><path fill="#fff" d="M0 0h80v87.147H0z"/></clipPath></defs></svg>