<svg width="80" height="54" fill="none" xmlns="http://www.w3.org/2000/svg"><g clip-path="url(#clip0_3622_9065)"><path fill="#fff" d="M0 0h80v53.464H0z"/><g opacity=".5" clip-path="url(#clip1_3622_9065)"><path d="M56.56 7.292H8.563a7.34 7.34 0 00-7.34 7.34V44.9a7.34 7.34 0 007.34 7.34H56.56a7.34 7.34 0 007.34-7.34V14.633a7.34 7.34 0 00-7.34-7.341z" fill="#fff"/><path d="M56.56 53.464H8.563A8.564 8.564 0 010 44.9V14.632a8.564 8.564 0 018.564-8.564h47.995a8.564 8.564 0 018.564 8.564V44.9a8.564 8.564 0 01-8.564 8.564zM8.563 8.515a6.117 6.117 0 00-6.117 6.117V44.9a6.117 6.117 0 006.117 6.117h47.995a6.117 6.117 0 006.117-6.117V14.632a6.117 6.117 0 00-6.117-6.117H8.564z" fill="#000"/><path d="M1.224 31.95h14.925l4.65-14.626 4.282 24.469 4.282-9.843h15.33" fill="#fff"/><path d="M24.579 46.013L20.456 22.45l-3.413 10.723H1.223v-2.447h14.033l5.885-18.529 4.441 25.368 2.98-6.839h16.13v2.447H30.164l-5.585 12.84z" fill="#000"/><path d="M63.912 6.117a.998.998 0 01.067-.104 12.033 12.033 0 011.964-2.545 8.722 8.722 0 012.123-1.56 6.312 6.312 0 011.835-.611 5.693 5.693 0 011.223-.086 7.34 7.34 0 013.059.826c.62.31 1.207.678 1.755 1.1.353.279.668.602.936.961a8.928 8.928 0 011.34 2.508 9.658 9.658 0 01.55 3.732 10.117 10.117 0 01-.923 3.731 12.8 12.8 0 01-1.707 2.735 17.898 17.898 0 01-2.447 2.483c-.74.612-1.51 1.224-2.275 1.78l-3.157 2.447c-.82.642-1.627 1.31-2.392 2.019-.367.33-.721.673-1.058 1.034-.3.315-.576.652-.826 1.009l-.036.055c-.05 0-.062-.037-.08-.061-.366-.51-.775-.986-1.223-1.425a38.089 38.089 0 00-2.918-2.533c-1.126-.9-2.282-1.762-3.426-2.636-.673-.514-1.352-1.022-2.006-1.566a17.557 17.557 0 01-2.447-2.386c-.806-.95-1.47-2.01-1.97-3.15a10.498 10.498 0 01-.697-2.252 7.491 7.491 0 01-.129-1.107v-.673c.003-.384.03-.768.08-1.15.115-.925.363-1.83.734-2.685a8.65 8.65 0 011.223-2.037c.291-.353.627-.668.997-.936a10.656 10.656 0 012.05-1.2 7.463 7.463 0 011.7-.507 6.63 6.63 0 011.303-.104 6.454 6.454 0 013.163 1.022c.714.453 1.364 1 1.933 1.627.608.66 1.143 1.384 1.596 2.16 0 .036.043.067.062.097l.024-.012z" fill="#F6B4B7"/><path d="M63.912 28.836a1.278 1.278 0 01-1.095-.612 9.414 9.414 0 00-1.07-1.223 36.767 36.767 0 00-2.82-2.447c-.9-.716-1.836-1.431-2.747-2.117l-.734-.556c-.649-.496-1.316-1.003-1.964-1.536a19.363 19.363 0 01-2.594-2.55 13.978 13.978 0 01-2.153-3.45 11.58 11.58 0 01-.764-2.533 9.386 9.386 0 01-.147-1.266v-.722c0-.438.03-.875.085-1.31a10.91 10.91 0 01.808-3.009 9.748 9.748 0 011.4-2.324c.356-.44.767-.83 1.224-1.163A12.373 12.373 0 0153.647.691a8.713 8.713 0 012.019-.587 7.438 7.438 0 015.279 1.12 10.81 10.81 0 012.184 1.834c.269.294.526.6.77.918.367-.472.763-.92 1.187-1.34a9.635 9.635 0 012.447-1.78A7.72 7.72 0 0169.7.104 6.944 6.944 0 0171.204 0a8.564 8.564 0 013.523.954c.688.344 1.342.753 1.951 1.223.442.341.835.74 1.169 1.187A10.454 10.454 0 0179.37 6.21a11.164 11.164 0 01.618 4.226 11.501 11.501 0 01-1.034 4.136 13.731 13.731 0 01-1.835 2.997 19.01 19.01 0 01-2.643 2.661c-.612.526-1.284 1.022-1.915 1.505l-.99.752-2.588 1.982a38.224 38.224 0 00-2.319 1.952c-.28.263-.654.611-.99.972a7.952 7.952 0 00-.722.875l-.33.471-.612.098h-.098zm-7.023-26.39c-.28 0-.561.025-.838.074-.49.082-.969.224-1.425.422A9.61 9.61 0 0052.791 4a4.025 4.025 0 00-.795.722 7.09 7.09 0 00-1.046 1.743 8.562 8.562 0 00-.649 2.35 9.056 9.056 0 00-.055.972v.63c.014.314.05.627.11.936.127.688.332 1.36.612 2a11.463 11.463 0 001.78 2.851c.695.82 1.467 1.573 2.306 2.245.612.502 1.266.997 1.896 1.48l.728.55c.918.698 1.836 1.42 2.79 2.154 1.05.82 2.056 1.694 3.016 2.618.152.147.293.3.434.447.391-.416.795-.802 1.107-1.083a48.81 48.81 0 012.447-2.08c.9-.722 1.719-1.333 2.581-1.988l.98-.752a93.916 93.916 0 001.834-1.438 16.423 16.423 0 002.3-2.318 11.19 11.19 0 001.548-2.447 9.01 9.01 0 00.814-3.254 8.326 8.326 0 00-.074-1.658c-.073-.56-.2-1.11-.38-1.646a7.896 7.896 0 00-1.168-2.14 3.896 3.896 0 00-.71-.735 9.786 9.786 0 00-1.565-.978 6.026 6.026 0 00-2.52-.734 4.282 4.282 0 00-1.003.067 5.17 5.17 0 00-1.487.501 7.29 7.29 0 00-1.835 1.346 11.177 11.177 0 00-1.768 2.288l-.08.128-.452.698-1.346-.202-.287-.471-.098-.153a11.45 11.45 0 00-1.438-1.945 8.104 8.104 0 00-1.682-1.42 5.15 5.15 0 00-2.557-.837h-.19z" fill="#000"/></g></g><defs><clipPath id="clip0_3622_9065"><path fill="#fff" d="M0 0h80v53.464H0z"/></clipPath><clipPath id="clip1_3622_9065"><path fill="#fff" d="M0 0h80v53.464H0z"/></clipPath></defs></svg>