<svg width="80" height="67" fill="none" xmlns="http://www.w3.org/2000/svg"><g clip-path="url(#clip0_3622_11558)"><g opacity=".5" clip-path="url(#clip1_3622_11558)" fill="#C3CC7E"><path d="M39.877 66.347c-.582-1.004-1.15-1.95-1.674-2.91a1.71 1.71 0 01-.232-.996c.313-1.6.727-3.18 1.004-4.787.276-1.607 1.294-2.335 2.487-3.099a24.787 24.787 0 003.368-2.524 13.595 13.595 0 014.503-2.91c.284-.101.495-.414.727-.632-.283-.276-.553-.727-.85-.778a7.524 7.524 0 00-2.59.196 22.27 22.27 0 00-3.048 1.411 3.92 3.92 0 01.24-3.637c1.171-1.877 2.43-3.695 3.637-5.543.203-.307.39-.625.56-.953.247-.472.356-.96-.204-1.302a.974.974 0 00-1.396.24 529.554 529.554 0 01-3.215 4.023c-.296.4-.625.774-.983 1.12-.264.163-.554.28-.858.35a4.517 4.517 0 01-.145-.925c.042-.303.128-.6.254-.88.655-1.818 1.314-3.64 1.979-5.462.041-.102.075-.207.102-.313.24-.902.036-1.564-.553-1.79-.59-.225-1.019.168-1.411 1.091a990.758 990.758 0 01-2.808 6.547 7.6 7.6 0 01-.48.807l-.277-.036a5.909 5.909 0 01-.065-1.127c.21-1.87.465-3.74.727-5.609a5.7 5.7 0 00.058-1.069.968.968 0 00-.909-.982c-.618-.058-.727.422-.807.858-.517 2.38-1.004 4.765-1.557 7.136-.184.46-.428.893-.727 1.288a5.636 5.636 0 01-.771-1.251c-.4-1.353-.728-2.735-1.062-4.096a1.623 1.623 0 00-.437-.77.99.99 0 00-.814-.233c-.204.072-.371.443-.415.727-.02.332.009.666.087.99.233 1.498.553 2.989.728 4.502a18.7 18.7 0 01-.058 3.375c-.226 2.451-.524 4.895-.793 7.34 0 .16 0 .32-.08.647a4.975 4.975 0 01-.539-.582c-1.273-1.942-2.531-3.892-3.804-5.82-.727-1.134-1.455-2.298-2.27-3.374a16.354 16.354 0 00-2.029-2.124c-1.098-1.012-2.182-2-3.382-2.91-1.848-1.498-3.746-2.91-5.609-4.364-.807-.633-1.622-1.259-2.357-1.957-.589-.56-1.09-1.251-.727-2.139a2.452 2.452 0 012.524-1.062 5.74 5.74 0 011.651.728c3.121 2.007 6.213 4.051 9.326 6.059.618.4 1.36.916 2.044.284.684-.633.16-1.368-.19-1.964a3054.758 3054.758 0 00-8-13.821c-.445-.771-.888-1.535-1.34-2.299-.727-1.214-.727-1.927-.065-2.567a2.531 2.531 0 013.135-.466 8.165 8.165 0 011.76 1.848c2.387 3.331 4.707 6.706 7.086 10.045.64.895 1.367 1.739 2.095 2.568.167.196.509.24.763.349.051-.276.204-.59.124-.822-.64-1.971-1.317-3.928-1.993-5.892-1.331-3.84-2.677-7.681-3.979-11.53a6.844 6.844 0 01-.35-1.869c-.086-1.687 1.1-2.633 2.743-2.226 1.455.371 2.182 1.557 2.713 2.823.83 1.847 1.557 3.688 2.284 5.528 1.07 2.582 2.103 5.18 3.208 7.74.37.832.834 1.62 1.382 2.35.575.785 1.404.625 1.542-.335.179-1.311.23-2.637.153-3.958-.153-2.982-.407-5.964-.625-8.947a2.736 2.736 0 00-.211-1.04C35.054 7.02 30.689 2.808 24.412.888A18.978 18.978 0 003.637 7.274 18.185 18.185 0 000 19.036c.095 5.34 1.862 10.184 4.408 14.803 3.637 6.598 8.57 12.155 14.025 17.269a149.26 149.26 0 0020.062 15.537c.603.4.894.05 1.382-.298zm11.085-32.53c.174-.43.313-.728.444-1.077.785-2.007 1.498-4.051 2.364-6.023a9.668 9.668 0 014.306-4.684 3.82 3.82 0 011.898-.437c1.455.059 1.892 1.026 1.266 2.306-.727 1.411-1.404 2.823-1.993 4.285a26.519 26.519 0 00-1.55 8.001c-.261 3.332-.581 6.649-1.752 9.842a28.758 28.758 0 00-1.15 4.917c-.057.598.043 1.2.291 1.746.313.815.771 1.578 1.222 2.466 1.404-1.171 2.75-2.27 4.067-3.404a75.353 75.353 0 0012.911-13.93 36.77 36.77 0 006.401-14.817c1.63-9.5-3.266-18.135-12.177-21.022-7.274-2.35-13.879-.764-19.734 4.022a46.157 46.157 0 00-3.812 3.914 1.98 1.98 0 00-.56 1.869c.866 5.245 1.593 10.504 2.546 15.734.524 2.844 2.604 4.67 5.012 6.292z"/></g></g><defs><clipPath id="clip0_3622_11558"><path fill="#fff" d="M0 0h80v66.827H0z"/></clipPath><clipPath id="clip1_3622_11558"><path fill="#fff" d="M0 0h80v66.827H0z"/></clipPath></defs></svg>