<svg width="80" height="79" fill="none" xmlns="http://www.w3.org/2000/svg"><g opacity=".5" clip-path="url(#clip0_3622_9037)"><path d="M50.565 51.127a4.39 4.39 0 100-8.78 4.39 4.39 0 000 8.78zm16.509 0a4.39 4.39 0 100-8.78 4.39 4.39 0 000 8.78zM50.565 67.255a4.39 4.39 0 100-8.78 4.39 4.39 0 000 8.78zm16.509 0a4.39 4.39 0 100-8.78 4.39 4.39 0 000 8.78z" fill="#F8C7DB"/><path d="M28.908 36.256H1.667v19.448h27.24V36.256z" fill="#AEDBF4"/><path d="M46.8 47.057c.005.322.055.642.146.952v-1.904c-.091.31-.14.63-.146.952zm.146 16.759v-1.903a3.173 3.173 0 000 1.903zM8.286 69.77a5.515 5.515 0 01-5.508-5.509v-7.05H.556V34.888h2.222v-8.57a5.515 5.515 0 015.508-5.48h4.862l.375-.807a5.556 5.556 0 015.001-3.222H12.37c-.353.386-.67.804-.944 1.25h-3.14A8.293 8.293 0 000 26.317v37.944a8.335 8.335 0 008.286 8.286h29.776a9.082 9.082 0 01-.66-2.778H8.286zm27.922-49.766l.368.833h4.862a5.515 5.515 0 015.508 5.508v5.508h2.778v-5.536a8.293 8.293 0 00-8.286-8.258h-3.14a8.326 8.326 0 00-.944-1.25h-6.147a5.557 5.557 0 015 3.195z" fill="#000"/><path d="M30.408 34.888H2.778V57.21h27.63V34.888zM27.63 54.433H3.334V37.666h24.31l-.014 16.767zM2.778 34.888H.556V57.21h2.222V34.888zm15.746-20.886h-7.112V3.472a.694.694 0 01.694-.694h25.512a.694.694 0 01.694.695v10.53h-7.105a8.273 8.273 0 016.147 2.778h3.736V3.473A3.473 3.473 0 0037.617 0h-25.51a3.473 3.473 0 00-3.474 3.473V16.78h3.737a8.334 8.334 0 016.154-2.779z" fill="#000"/><path d="M31.207 16.78h6.147a8.272 8.272 0 00-6.147-2.778H18.524a8.335 8.335 0 00-6.154 2.778h18.837zM70.97 31.825H49.725v2.778H70.97a6.251 6.251 0 016.25 6.252v28.213a6.251 6.251 0 01-6.25 6.25H46.397a6.251 6.251 0 01-5.196-2.777h-3.139a9.03 9.03 0 008.335 5.556H70.97a9.03 9.03 0 009.03-9.03V40.856a9.03 9.03 0 00-9.03-9.03z" fill="#000"/><path d="M40.146 40.855a6.25 6.25 0 016.251-6.252h.549v-2.778h-.549a9.03 9.03 0 00-9.03 9.03v28.213c0 .236 0 .465.035.694h2.779a5.842 5.842 0 01-.042-.694l.007-28.213zm9.578-9.03h-2.778v2.778h2.778v-2.778zM40.187 69.77H37.41c.072.955.295 1.892.66 2.778h3.14a6.252 6.252 0 01-1.022-2.779zm26.887-16.435a6.25 6.25 0 100-12.5 6.25 6.25 0 000 12.5zm0-9.78a3.473 3.473 0 110 6.946 3.473 3.473 0 010-6.945z" fill="#000"/><path d="M44.022 47.056a6.25 6.25 0 002.924 5.3v-4.348a3.175 3.175 0 010-1.903v-4.348a6.25 6.25 0 00-2.924 5.3zm6.272-3.5a3.5 3.5 0 110 7.001 3.115 3.115 0 01-.57-.062v2.778c.19.022.38.033.57.035a6.279 6.279 0 000-12.558c-.19-.01-.38-.01-.57 0v2.778c.19-.008.381.001.57.028zm-.57.064v-2.78a6.19 6.19 0 00-2.778.945v4.348a3.473 3.473 0 012.778-2.514zm-2.778 4.389v4.348a6.19 6.19 0 002.778.944v-2.778a3.474 3.474 0 01-2.778-2.514zm20.128 21.135a6.25 6.25 0 100-12.501 6.25 6.25 0 000 12.5zm0-9.773a3.473 3.473 0 110 6.946 3.473 3.473 0 010-6.946zm-20.129 4.445a3.175 3.175 0 010-1.903v-4.348a6.252 6.252 0 00-.986 9.808 5.431 5.431 0 00.986-3.133v-.423zm3.348-4.445a3.498 3.498 0 010 6.994 3.537 3.537 0 01-.82-.11 8.133 8.133 0 01-1.124 2.569 6.2 6.2 0 001.944.32 6.275 6.275 0 100-12.551c-.19-.01-.38-.01-.57 0v2.778c.19-.017.381-.017.57 0z" fill="#000"/><path d="M46.946 63.816v.445a5.432 5.432 0 01-.986 3.112 6.3 6.3 0 002.389 1.43 8.134 8.134 0 001.125-2.57 3.474 3.474 0 01-2.528-2.417zm0-1.903a3.474 3.474 0 012.778-2.486v-2.779c-.988.09-1.94.414-2.778.945v4.32z" fill="#000"/></g><defs><clipPath id="clip0_3622_9037"><path fill="#fff" d="M0 0h80v78.097H0z"/></clipPath></defs></svg>