<svg width="80" height="55" fill="none" xmlns="http://www.w3.org/2000/svg"><g clip-path="url(#clip0_3622_9117)"><g opacity=".5" clip-path="url(#clip1_3622_9117)"><path d="M73.801 5.391A5.586 5.586 0 0068.227 0h-3.765v3.535h3.765a2.039 2.039 0 012.039 2.04v.164l5.892 30.84a2.039 2.039 0 01-2.033 1.898H5.574a2.038 2.038 0 01-2.039-1.897L9.428 5.892v-.318a2.039 2.039 0 012.038-2.039h3.766V0h-3.766a5.586 5.586 0 00-5.574 5.391L.03 36.108v.33a5.58 5.58 0 005.545 5.574H74.12a5.58 5.58 0 005.574-5.574v-.165L73.801 5.391z" fill="#000"/><path d="M56.177 53.372c7.25 0 13.128-5.877 13.128-13.128 0-7.25-5.878-13.128-13.128-13.128s-13.128 5.878-13.128 13.128 5.877 13.128 13.128 13.128z" fill="#D1EBF9"/><path d="M56.178 54.55A14.307 14.307 0 1170.49 40.245a14.319 14.319 0 01-14.312 14.307zm0-26.256a11.95 11.95 0 108.452 3.496 11.968 11.968 0 00-8.452-3.507v.011z" fill="#000"/><path d="M23.516 53.372c7.25 0 13.128-5.877 13.128-13.128 0-7.25-5.878-13.128-13.128-13.128s-13.128 5.878-13.128 13.128 5.877 13.128 13.128 13.128z" fill="#D1EBF9"/><path d="M23.517 54.55a14.307 14.307 0 1114.306-14.306 14.32 14.32 0 01-14.306 14.307zm0-26.256a11.95 11.95 0 1011.95 11.95 11.962 11.962 0 00-11.95-11.961v.011z" fill="#000"/><path d="M27.417 27.895l-16.44 16.44a13.082 13.082 0 002.858 4.966l18.573-18.549a13.082 13.082 0 00-4.99-2.857zm6.535 4.572L15.55 50.868c.755.58 1.574 1.075 2.44 1.474l17.435-17.436c-.4-.865-.894-1.683-1.473-2.44zm26.738-4.361L43.85 44.958a13.13 13.13 0 003.053 4.767L65.475 31.16a13.123 13.123 0 00-4.784-3.053zm6.276 4.844L48.7 51.216a12.9 12.9 0 002.563 1.38l17.088-17.088a13.34 13.34 0 00-1.385-2.558z" fill="#fff"/></g></g><defs><clipPath id="clip0_3622_9117"><path fill="#fff" d="M0 0h80v54.551H0z"/></clipPath><clipPath id="clip1_3622_9117"><path fill="#fff" d="M0 0h80v54.551H0z"/></clipPath></defs></svg>