<svg width="80" height="80" fill="none" xmlns="http://www.w3.org/2000/svg"><g clip-path="url(#clip0_3622_9076)"><path fill="#fff" d="M0 0h80v79.585H0z"/><g opacity=".5" clip-path="url(#clip1_3622_9076)"><path d="M30.741 60.279c16.313 0 29.537-13.225 29.537-29.538 0-16.313-13.224-29.537-29.537-29.537S1.204 14.428 1.204 30.741 14.428 60.28 30.74 60.28z" fill="#fff"/><path d="M30.741 61.482a30.74 30.74 0 1130.741-30.741 30.777 30.777 0 01-30.741 30.741zm0-59.075a28.334 28.334 0 1028.334 28.334A28.364 28.364 0 0030.74 2.407z" fill="#000"/><path d="M47.381 23.874h-9.773v-9.773H23.874v9.773h-9.773v13.734h9.773v9.773h13.734v-9.773h9.773V23.874z" fill="#fff"/><path d="M38.811 48.585h-16.14v-9.773h-9.774V22.67h9.774v-9.773h16.14v9.773h9.774v16.14H38.81v9.774zm-13.733-2.407h11.326v-9.773h9.774V25.078h-9.774v-9.773H25.078v9.773h-9.774v11.327h9.774v9.773z" fill="#000"/><path d="M76.983 33.919l-4.838-4.839a7.222 7.222 0 00-10.213 0L29.495 61.516a7.222 7.222 0 000 10.213l4.838 4.838a7.222 7.222 0 0010.214 0l32.435-32.435a7.222 7.222 0 000-10.213z" fill="#FFF6E6"/><path d="M39.443 79.584a8.065 8.065 0 01-5.741-2.37l-4.815-4.815a8.124 8.124 0 010-11.49L61.32 28.473a8.136 8.136 0 0111.49 0l4.814 4.814a8.125 8.125 0 010 11.49L45.19 77.212a8.073 8.073 0 01-5.748 2.371zm27.6-51.708a6.301 6.301 0 00-4.454 1.848L30.157 62.162a6.32 6.32 0 000 8.937l4.815 4.814a6.343 6.343 0 008.937 0L76.34 43.475a6.318 6.318 0 000-8.937l-4.815-4.814a6.278 6.278 0 00-4.483-1.848z" fill="#000"/><path d="M65.295 50.206L55.87 40.78 40.345 56.304l9.426 9.426 15.524-15.524z" fill="#FFF6E6"/><path d="M49.77 67.001l-10.7-10.7 16.797-16.797 10.7 10.7-16.796 16.797zm-8.148-10.7l8.149 8.148 14.245-14.245-8.149-8.148L41.622 56.3zm21.689-17.724a1.252 1.252 0 100-2.504 1.252 1.252 0 000 2.504zm2.949 2.949a1.252 1.252 0 100-2.504 1.252 1.252 0 000 2.504zm2.95 2.948a1.252 1.252 0 100-2.503 1.252 1.252 0 000 2.503zm-9.564-5.049a1.252 1.252 0 100-2.503 1.252 1.252 0 000 2.504zm2.944 2.95a1.252 1.252 0 100-2.504 1.252 1.252 0 000 2.504zm2.948 2.948a1.252 1.252 0 100-2.504 1.252 1.252 0 000 2.504zm2.822 2.822a1.252 1.252 0 100-2.504 1.252 1.252 0 000 2.504zm-.595-14.021a1.252 1.252 0 100-2.504 1.252 1.252 0 000 2.504zm2.949 2.948a1.252 1.252 0 100-2.504 1.252 1.252 0 000 2.504zm2.949 2.949a1.252 1.252 0 100-2.503 1.252 1.252 0 000 2.503zm-9.563-5.05a1.252 1.252 0 100-2.503 1.252 1.252 0 000 2.503zm2.943 2.949a1.252 1.252 0 100-2.503 1.252 1.252 0 000 2.504zm2.949 2.95a1.252 1.252 0 100-2.504 1.252 1.252 0 000 2.504zm2.822 2.822a1.252 1.252 0 100-2.504 1.252 1.252 0 000 2.504zM42.79 70.894a1.252 1.252 0 100-2.503 1.252 1.252 0 000 2.503zm-2.95-2.948a1.252 1.252 0 100-2.504 1.252 1.252 0 000 2.504zm-2.949-2.949a1.252 1.252 0 100-2.504 1.252 1.252 0 000 2.504zm9.563 5.049a1.252 1.252 0 100-2.504 1.252 1.252 0 000 2.504zm-2.942-2.949a1.252 1.252 0 100-2.503 1.252 1.252 0 000 2.503zm-2.949-2.943a1.252 1.252 0 100-2.504 1.252 1.252 0 000 2.504zm-2.823-2.822a1.252 1.252 0 100-2.504 1.252 1.252 0 000 2.504zm.596 14.016a1.252 1.252 0 100-2.503 1.252 1.252 0 000 2.503zM35.387 72.4a1.252 1.252 0 100-2.505 1.252 1.252 0 000 2.504zm-2.949-2.95a1.252 1.252 0 100-2.504 1.252 1.252 0 000 2.504zm9.569 5.05a1.252 1.252 0 100-2.504 1.252 1.252 0 000 2.504zm-2.949-2.95a1.252 1.252 0 100-2.503 1.252 1.252 0 000 2.503zm-2.948-2.943a1.252 1.252 0 100-2.504 1.252 1.252 0 000 2.504zm-2.824-2.822a1.252 1.252 0 100-2.504 1.252 1.252 0 000 2.504z" fill="#000"/></g></g><defs><clipPath id="clip0_3622_9076"><path fill="#fff" d="M0 0h80v79.585H0z"/></clipPath><clipPath id="clip1_3622_9076"><path fill="#fff" d="M0 0h80v79.585H0z"/></clipPath></defs></svg>