<svg width="270" height="53" fill="none" xmlns="http://www.w3.org/2000/svg"><path fill-rule="evenodd" clip-rule="evenodd" d="M133.725 36.104c-.328 1.381-5.124 1.01-4.986-.61-.262-2.698 1.352-4.966 1.977-5.94.065-.728-1.505.32-1.556.356-.501.4-1.228.988-1.795 1.454-1.787 1.57-6.279 5.94-8.096 6.049-2.478.145-3.997-3.94-3.561-3.94 2.18 0 9.63-5.09 8.823-5.817-4.252-3.635-3.031-11.095 2.376-13.086 4.47-1.673 5.815 1.788 7.225 1.868a3.05 3.05 0 001.017-.596c1.613-1.178 6.672-3.134 5.167.4-2.638 6.18-6.243 18.386-6.584 19.826l-.007.036zm-73.302-6.129c1.417-2.348 3.234-5.155 2.805-8.164-.21-1.564-2.078-1.454-3.037-.48-1.578 1.563-2.908 5.67-3.206 7.757-.486 3.635 1.389 4.159 3.416.858l.022.03zm19.797-.385c1.635-2.581 3.728-5.736 3.263-9.052-.247-1.744-2.398-1.592-3.503-.538-1.817 1.738-3.365 6.31-3.692 8.637-.566 4.02 1.6 4.632 3.932.953zm50.031-4.871c1.141-1.782 2.594-3.955 2.267-6.238-.167-1.2-1.671-1.098-2.435-.37-1.264 1.199-2.34 4.361-2.572 5.953-.393 2.77 1.112 3.192 2.74.655zm-32.436 7.27c1.41-2.465 3.191-5.482 3.154-8.644 0-1.665-1.584-1.52-2.47-.51-1.454 1.666-2.988 6.035-3.424 8.245-.763 3.839.727 4.428 2.74.909zm-92.146.727c.022-.174.056-.347.102-.516 1.7-6.543 6.73-19.543 9.658-24.719-3.525-.385-7.9 1.803-9.208 4.922-1.061 2.523-.727 4.907-1.22 7.481 0 .153-1.171.727-3.206-.785C.465 18.132 0 16.387 0 14.577c0-3.926 2.565-8.66 5.19-10.942C9.87-.451 16.816-.931 22.63 1.454c6.701 2.748 9.71 8.572 8.845 14.54a56.277 56.277 0 01-4.324 14.083c-1.686 3.599-3.888 5.089-7.827 5.147-4.669.02-9.3-.83-13.656-2.508zm12.682-2.617c2.994-.91 6.722-9.379 7.856-13.814 1.134-4.435-2.18-7.023-5.596-7.888-.581-.145-5.734 19.164-5.734 19.586 0 1.403 2.18 2.515 3.474 2.123v-.007zm21.73 5.67c4.564-1.352 7.508-6.863 8.976-11.777 1.039-3.476 1.293-7.823-1.614-9.408-4.891-2.668-10.669.545-13.474 5.162-1.897 3.126-4.157 8.68-2.907 12.68 1.134 3.547 6.12 4.201 8.997 3.35l.022-.007zm2.587-17.979c1.795.371.807 5.09.625 5.984-.661 3.111-2.522 8.346-4.426 8.906-2.398.567-1.838-4.006-1.49-5.599.909-4.15 2.835-9.793 5.291-9.29zm25.648-7.503a6.6 6.6 0 00-1.628-.182 15.41 15.41 0 00-8.452 2.305c-4.84 2.908.378 4.013 4.033 3.635 2.362-.261 4.906-.145 6.207 2.414 2.18 4.362-3.787 14.846-9.826 17.987-2.85 1.454-6.018 1.795-7.399-1.905a12.05 12.05 0 01-.276-6.783 18.338 18.338 0 012.95-6.543 5.19 5.19 0 01-1.722-1.506c-4.738-6.216 12.26-17.157 14.42-18.473.178-.084.37-.136.566-.153a.588.588 0 01.56.167c2.253 2.29.988 6.158.581 9.03l-.014.007zm13.387 6.434c1.642-1.061 4.426-2.82 6.286-.53 3.183 3.904-2.122 17.296-6.214 19.142-5.581 2.516-6.54-3.838-7.623-2.086-2.827 4.558-5.11 11.036-7.29 15.689-2.79 5.874-7.02 4.922-5.516.058 1.36-4.406 7.268-20.451 10.982-28.354.85-1.817 2.681-5.554 1.57-6.34 2.18 0 5.036-.56 5.995-.16 2.413.996.465 3.476 1.839 2.589l-.03-.008zM99.34 35.966c-1.722 1.36-3.633 2.268-4.992 1.134-1.105-.902-.604-2.392-1.73-2.392-1.97 0-2.958.167-3.54-1.905-.726-2.653.982-6.637 2.028-9.226a54.032 54.032 0 012.725-5.983c1.97-3.635 3.787-6.136 6.934-5.969.266.015.53.046.792.095 1.526.88 2.609.945 2.108 2.362a10.291 10.291 0 01-1.134 2.05c-.778 1.236-1.992 2.792-1.919 4.26 2.478-1.191 6.65-1.191 6.294 3.302-.291 3.715-4.412 9.778-7.566 12.279v-.007zm14.666-2.48c-2.819 0-2.907-.726-2.819-.98-.255-.684 1.809-5.2 2.18-5.991a22.23 22.23 0 00.661-1.455l.727-1.548c.16-.35.315-.703.465-1.062l.465-1.12c.398-.988.715-1.797.952-2.427a5.263 5.263 0 00.349-1.767 3.405 3.405 0 00-.777-2.377c-2.108-2.4-4.288 1.497-5.161 3.177-.872 1.679-1.707 3.315-2.332 4.689-1.163 2.53-3.969 8.455-3.198 11.305a3.984 3.984 0 001.962 2.69c2.849 1.454 5.371-.509 6.526-3.112v-.021z" fill="#E60004"/><path fill-rule="evenodd" clip-rule="evenodd" d="M168.049 2.98a19.115 19.115 0 0115.366 6.423 19.12 19.12 0 014.505 16.038 19.129 19.129 0 01-18.012 15.75 19.115 19.115 0 01-8.4-1.554c-4.033-1.766-7.754.124-11.519 1.549l4.484-6.798a19.135 19.135 0 013.697-27.997 19.117 19.117 0 019.879-3.41zm-7.783 17.377a4.318 4.318 0 002.362-1.374l-7.181-4.704a4.368 4.368 0 00.556 4.509 4.362 4.362 0 004.263 1.569zm18.815 12.36a4.311 4.311 0 002.362-1.375l-7.18-4.704a4.368 4.368 0 00.556 4.51 4.362 4.362 0 004.262 1.568zm-4.135-7.126l7.181 4.704a4.367 4.367 0 00-1.625-5.354 4.36 4.36 0 00-5.556.65zm-15.058 1.142a4.721 4.721 0 00.05 5.252c.349.512.797.951 1.316 1.29l.414.27a4.72 4.72 0 006.541-1.367l9.244-14.155a4.721 4.721 0 00-.05-5.252 4.718 4.718 0 00-1.316-1.291l-.414-.27a4.72 4.72 0 00-6.541 1.368l-9.244 14.155zm2.427 5.554a3.334 3.334 0 004.717-.887l9.244-14.155a3.334 3.334 0 00.058-3.54 3.13 3.13 0 01-.494 1.992 85.356 85.356 0 01-5.051 6.943l-4.608-3.01-.668 1.032 4.746 3.09-4.688 7.176a3.166 3.166 0 01-3.263 1.36h.007zm-6.177-19.077l7.18 4.704a4.361 4.361 0 00-7.18-4.704z" fill="#009836"/><path fill-rule="evenodd" clip-rule="evenodd" d="M259.527 36.889h-.124l.051.058s.044.014.073-.058z" fill="#E60004"/><path fill-rule="evenodd" clip-rule="evenodd" d="M270 5.452c0 1.316-2.035 6.332-3.714 6.332a3.045 3.045 0 01-.574-.058 3.43 3.43 0 00-.647-.058c-.368.039-.576.15-.625.335l-.262.138c-.206.116-.433.19-.668.218-.591 0-.887-.47-.887-1.41a12.29 12.29 0 01.836-3.403C265.341 2.042 270 2.711 270 5.445v.007zm-42.879 19.63c.974-1.585 2.18-3.519 1.933-5.555-.145-1.068-1.454-.974-2.079-.327-1.075 1.069-1.998 3.875-2.18 5.3-.334 2.465.945 2.843 2.333.59l-.007-.008zm-12.203-9.146c1.454 2.799 3.169 16.343 1.178 19.302a2.234 2.234 0 01-1.999.873c-1.199 0-1.839-1.287-2.129-2.32a23.612 23.612 0 01-.342-6.172c.378-3.918-1.533-1.018-2.413 0-2.056 2.392-6.621 12.032-10.254 9.691-2.333-1.497-3.707-6.754-2.798-9.226a.248.248 0 01.239-.196.728.728 0 01.386.153c.123.087 2.565 2.908 5.247.349 1.01-.96 5.305-7.998 7.565-10.906.974-1.25 2.181-2.66 5.32-1.534v-.014zm18.169-.53c.32.186.602.433.829.726 2.667 3.279-.894 12.534-9.034 12.534-1.359.785-.646 5.467 2.849 4.58 2.035-.516 3.634-3.3 3.561-3.439 1.207 2.058.793 2.829-.239 4.363-3.307 5.016-10.509 2.631-12.29-2.472-1.221-3.49 1.228-8.725 3.685-12.127 2.064-2.865 7.187-6.114 10.639-4.173v.007zm1.701 21.01c.356.676 1.752.953 2.566.887 1.766-.138 2.064-1.52 2.63-2.77.255-.56 1.105-2.32 1.788-2.37.209 0 .388.153.538.458.8 1.781 1.744 5.482 4.324 5.285 6.149-.472 6.367-8.477 6.192-8.07-1.453 3.36-4.644 1.942-5.886.844-1.716-1.716-1.599-3.308-1.192-4.268.981-2.312 3.452-4.311 2.645-.08 2.253-.05 4.179-2.566 4.244-7.597a3.332 3.332 0 00-.828-2.101c-3.576-3.155-9.121 7.888-9.397 7.364-.945-1.693 1.868-9.93 1.846-10.229-2.064-2.493-4.884-.05-6.127 2.908-1.344 3.817-4.949 16.722-3.328 19.768l-.015-.029zm32.101-7.663l-1.947 3.962c-.851 2.022-2.908 4.617-5.655 4.646-3.539-.472-3.481-5.154-3.75-5.089-.4.102-.487.225-.777.727a2.773 2.773 0 01-.189-.727c-.131-.88-.342-3.635.726-3.635 2.246-1.01 3.394-4.45 5.226-7.881.596-1.105 2.064-3.22 3.452-3.402 1.657-.277 3.06.777 3.06 2.1a26.555 26.555 0 01-1.287 3.709c-.792 1.919-1.751 3.853-2.587 5.78a3.64 3.64 0 00-.218 1.213c0 .274.049.544.145.8 1.752-1.977 2.297-2.603 3.801-2.203z" fill="#E60004"/></svg>