<svg width="355" height="39" fill="none" xmlns="http://www.w3.org/2000/svg"><g clip-path="url(#clip0_4046_7200)"><path d="M317.361 9.682c-2.206-2.305-4.896-3.185-8.048-3.132-4.163.07-7.794 2.427-9.367 6.316-.736 1.823-.835 3.828-.47 5.77.731 3.884 3.876 7.028 7.744 7.783 1.796.35 3.542.322 5.24-.085 7.483-1.796 10.212-11.099 4.901-16.652zm-86.636 4.688h-5.913a.042.042 0 00-.029.013.04.04 0 00-.012.029v4.07c0 .011.004.022.012.03a.042.042 0 00.029.011h6.057c.031 0 .042.015.031.045-.85 2.374-3.551 3.563-5.91 3.022-1.181-.27-2.126-.94-2.997-1.805-.031-.03-.047-.024-.047.02v5.697c0 .023.011.039.033.046a18.74 18.74 0 002.162.67c5.104 1.18 10.762-1.955 11.962-7.19.452-1.975.305-4.262-.474-6.175-1.212-2.979-3.822-5.1-6.921-5.865-2.276-.561-4.555-.202-6.725.654a.053.053 0 00-.037.053v5.782a.04.04 0 00.008.023.036.036 0 00.019.015.04.04 0 00.044-.013c.77-.968 1.725-1.595 2.866-1.881 2.303-.577 4.89.48 5.868 2.71.012.026.003.04-.026.04zm13.613 11.582a.026.026 0 00.018-.007.027.027 0 00.007-.017v-8.064c0-.005.001-.01.004-.014a.024.024 0 01.027-.01.03.03 0 01.013.01l6.291 8.092a.024.024 0 00.008.008.026.026 0 00.011.002h6.301a.022.022 0 00.013-.003.026.026 0 00.01-.01.021.021 0 00.002-.014.028.028 0 00-.005-.013l-8.113-9.872a.023.023 0 010-.03l7.424-8.867a.02.02 0 00.005-.012.02.02 0 00-.002-.013.024.024 0 00-.009-.01.024.024 0 00-.013-.004h-5.996a.03.03 0 00-.011.002.024.024 0 00-.008.007l-5.907 7.692a.023.023 0 01-.027.008.023.023 0 01-.012-.008.025.025 0 01-.005-.015l-.002-7.662a.027.027 0 00-.007-.017.026.026 0 00-.018-.007h-4.848a.025.025 0 00-.017.007.023.023 0 00-.007.017v18.8c0 .006.002.012.007.017a.025.025 0 00.017.007h4.849zm19.592-3.244a.027.027 0 01.011-.013.028.028 0 01.016-.005l6.703.007c.005 0 .011.002.015.005a.028.028 0 01.011.014l1.196 3.217c.002.006.006.01.01.014a.03.03 0 00.016.005h5.18a.027.027 0 00.013-.003.024.024 0 00.01-.009.02.02 0 00.005-.013.03.03 0 00-.001-.013l-7.063-18.792a.026.026 0 00-.01-.013.03.03 0 00-.017-.005h-5.316a.028.028 0 00-.016.004.027.027 0 00-.011.013l-7.214 18.792a.062.062 0 00-.002.014l.005.013a.036.036 0 00.011.009.027.027 0 00.013.003h5.127a.026.026 0 00.016-.005.027.027 0 00.011-.013l1.281-3.226zm20.225-4.462c0-.004 0-.007.002-.01a.019.019 0 01.006-.01.019.019 0 01.009-.006.026.026 0 01.01-.002l7.017-.004a.028.028 0 01.028.028v7.682a.028.028 0 00.028.028h4.842a.028.028 0 00.028-.028V7.131a.028.028 0 00-.008-.02.027.027 0 00-.02-.007h-4.843a.029.029 0 00-.02.008.028.028 0 00-.008.02l.001 7.21a.028.028 0 01-.008.02.027.027 0 01-.02.008h-7.017c-.003 0-.007 0-.01-.002a.019.019 0 01-.009-.006.019.019 0 01-.006-.009c-.002-.003-.002-.007-.002-.01V7.13a.025.025 0 00-.008-.02.027.027 0 00-.019-.007h-4.844a.027.027 0 00-.019.008.028.028 0 00-.008.02v18.792c0 .008.003.015.008.02a.027.027 0 00.019.008h4.844a.027.027 0 00.019-.008.025.025 0 00.008-.02v-7.678zm44.658-3.058c.005-.035.014-.036.027-.004l4.29 10.722a.067.067 0 00.068.046h1.876a.057.057 0 00.057-.038l4.485-10.704a.025.025 0 01.01-.01.021.021 0 01.014-.003.02.02 0 01.013.007.023.023 0 01.007.013l1.373 10.707c.003.019.014.028.033.028h4.824c.037 0 .053-.018.048-.055L343.115 7.14a.04.04 0 00-.014-.027.044.044 0 00-.029-.01h-4.807c-.027 0-.045.012-.056.038l-3.994 9.936c-.014.036-.028.036-.042 0l-3.774-9.935c-.011-.026-.03-.04-.058-.04h-4.764c-.026 0-.041.013-.044.038l-3.183 18.773c-.004.025.007.038.033.038h4.787c.036 0 .057-.018.062-.054l1.581-10.71z" stroke="#F18389" stroke-width="2"/><path d="M314.993 16.594a5.31 5.31 0 00-1.551-3.751 5.293 5.293 0 00-7.491 0 5.307 5.307 0 003.745 9.057 5.286 5.286 0 003.746-1.554 5.3 5.3 0 001.551-3.752zm-49.688 2.3a.02.02 0 00-.001.013c0 .004.002.008.004.012a.031.031 0 00.01.008.028.028 0 00.013.003l3.973.008a.028.028 0 00.023-.012.025.025 0 00.004-.012.02.02 0 00-.001-.013l-1.976-5.877a.028.028 0 00-.026-.02.03.03 0 00-.017.005.028.028 0 00-.01.014l-1.996 5.87z" stroke="#F18389" stroke-width="2"/><path d="M121.914.792c8.817-2.893 18.129 2.634 19.657 11.862.5 3.024.061 6.199-1.247 8.918-3.502 7.278-11.904 10.541-19.395 7.474-.496-.203-.823-.326-.982-.37-2.862-.793-5.603.42-8.256 1.494a.029.029 0 01-.018.002.03.03 0 01-.016-.01.033.033 0 01-.006-.017c0-.006.002-.012.005-.017l3.492-5.291a.029.029 0 00.005-.02.033.033 0 00-.007-.02c-2.823-3.377-4.008-7.778-3.322-12.13.854-5.428 4.812-10.143 10.09-11.875zm-2.847 18.81c-1.312 3.878 3.937 6.962 6.639 3.83.105-.121.379-.52.82-1.197 2.156-3.306 4.314-6.611 6.472-9.916.479-.734.807-1.323.866-2.101.292-3.833-4.903-5.975-7.125-2.579-2.362 3.61-4.72 7.223-7.073 10.839-.304.466-.503.841-.599 1.125zm-2.533-11.518c-.013.014-.012.025.004.035l5.586 3.66a.043.043 0 00.054-.005.038.038 0 00.011-.016c1.405-3.63-2.993-6.495-5.655-3.674zm.033 4.602c1.33 1.518 3.67 1.424 5.02-.014a.025.025 0 00.007-.011.019.019 0 00.001-.013.026.026 0 00-.004-.012.033.033 0 00-.009-.01l-5.564-3.644a.057.057 0 00-.071.007.056.056 0 00-.013.02c-.529 1.368-.318 2.593.633 3.677zm14.814 5.211l5.562 3.647c.03.019.051.012.064-.02 1.485-3.573-2.983-6.477-5.634-3.691-.023.024-.021.046.008.064zm-.469 3.912c1.1 2.03 3.942 2.341 5.486.629.019-.02.017-.038-.007-.053l-5.562-3.646c-.025-.016-.043-.01-.055.016-.446 1.043-.401 2.06.138 3.054z" fill="#009640"/><path d="M11.155 5.858c-2.42-.124-5.344 1.077-6.488 3.355-.867 1.724-.735 3.811-1.003 5.654a.09.09 0 01-.043.067c-.274.18-.743.118-1.031.042C.99 14.557.13 13.18.036 11.583-.103 9.24.852 6.886 2.16 4.952c5.677-8.397 21.669-4.47 20.767 6.569-.046.558-.177 1.33-.395 2.319-.511 2.326-1.28 4.757-2.306 7.293-1.181 2.918-2.55 4.796-5.944 4.884-3.492.09-6.843-.607-10.108-1.803-.04-.015-.054-.042-.044-.082.219-.865.467-1.732.746-2.6A121.05 121.05 0 019.623 9.09a54.468 54.468 0 011.563-3.177c.018-.034.008-.053-.03-.055zm8.01 5.849c.377-2.754-1.712-4.6-4.173-5.158-.026-.007-.045.002-.057.027-.427.854-.717 1.933-.96 2.74a273.212 273.212 0 00-3.091 11.204c-.23.91.778 1.585 1.534 1.776.574.145 1.078.051 1.513-.282 1.258-.962 2.24-2.704 2.875-3.962a32.876 32.876 0 001.954-4.78c.222-.692.357-1.214.405-1.565zm335.794 20.39a.023.023 0 01-.006.016.022.022 0 01-.016.007H213.698a.026.026 0 01-.017-.007.023.023 0 01-.006-.016V.755c0-.006.002-.012.006-.016a.026.026 0 01.017-.007h141.239c.006 0 .012.003.016.007s.006.01.006.016v31.342zM317.36 9.682c-2.205-2.305-4.895-3.185-8.047-3.132-4.163.07-7.795 2.427-9.367 6.316-.736 1.823-.835 3.828-.47 5.77.73 3.884 3.876 7.028 7.744 7.783 1.796.35 3.542.322 5.239-.085 7.483-1.796 10.213-11.1 4.901-16.652zm-86.635 4.688h-5.913a.042.042 0 00-.029.012.04.04 0 00-.012.029v4.07a.04.04 0 00.012.03.042.042 0 00.029.012h6.057c.031 0 .041.015.031.044-.85 2.375-3.551 3.563-5.91 3.023-1.181-.27-2.126-.94-2.997-1.805-.031-.03-.047-.024-.047.02V25.5c0 .023.011.039.033.046a18.74 18.74 0 002.162.67c5.104 1.18 10.762-1.954 11.962-7.19.452-1.975.305-4.262-.474-6.175-1.212-2.979-3.822-5.1-6.921-5.865-2.276-.56-4.555-.202-6.725.654a.053.053 0 00-.037.054v5.781c0 .008.003.016.007.023a.042.042 0 00.02.015.04.04 0 00.044-.012c.77-.969 1.725-1.596 2.866-1.882 2.303-.577 4.89.481 5.868 2.71.012.027.003.04-.026.04zm13.613 11.582a.024.024 0 00.017-.007.023.023 0 00.007-.017v-8.064c0-.005.002-.01.005-.014a.024.024 0 01.012-.01.024.024 0 01.015 0 .023.023 0 01.012.01l6.291 8.092a.044.044 0 00.009.008.023.023 0 00.011.002h6.301a.025.025 0 00.013-.003.023.023 0 00.009-.01.032.032 0 00.003-.014.03.03 0 00-.006-.013l-8.113-9.872a.027.027 0 01-.005-.015.03.03 0 01.005-.016l7.425-8.866a.02.02 0 00.005-.012.02.02 0 00-.002-.013.024.024 0 00-.009-.01.024.024 0 00-.013-.004h-5.996c-.004 0-.007 0-.011.002a.023.023 0 00-.008.007l-5.907 7.692a.024.024 0 01-.039 0 .025.025 0 01-.005-.015l-.002-7.662a.024.024 0 00-.008-.017.022.022 0 00-.017-.007h-4.848a.022.022 0 00-.017.007.023.023 0 00-.007.017v18.8c0 .006.002.012.007.017.004.005.01.007.017.007h4.849zm19.592-3.244a.027.027 0 01.011-.013.026.026 0 01.016-.005l6.702.007c.006 0 .012.002.016.005a.027.027 0 01.01.014l1.197 3.217c.002.006.005.01.01.014a.03.03 0 00.016.005h5.18a.03.03 0 00.013-.003.024.024 0 00.01-.009.02.02 0 00.005-.013.03.03 0 00-.001-.013l-7.063-18.792a.033.033 0 00-.01-.013.03.03 0 00-.017-.005h-5.316a.026.026 0 00-.016.004.027.027 0 00-.011.013l-7.214 18.792c-.002.004-.002.01-.002.014a.03.03 0 00.005.013.027.027 0 00.011.009.027.027 0 00.013.003h5.127a.028.028 0 00.016-.005.027.027 0 00.011-.013l1.281-3.226zm20.225-4.462c0-.004 0-.008.002-.01a.019.019 0 01.006-.01.019.019 0 01.009-.006.026.026 0 01.01-.002l7.017-.004c.008 0 .015.003.02.008a.029.029 0 01.008.02v7.682c0 .008.003.015.008.02a.027.027 0 00.02.008h4.842a.03.03 0 00.02-.008.028.028 0 00.008-.02V7.131a.028.028 0 00-.008-.02.03.03 0 00-.02-.007h-4.843a.027.027 0 00-.02.008.028.028 0 00-.008.02l.001 7.21a.028.028 0 01-.008.02.027.027 0 01-.02.008h-7.017c-.003 0-.007 0-.01-.002a.019.019 0 01-.009-.006.019.019 0 01-.006-.009c-.002-.003-.002-.007-.002-.01V7.13a.028.028 0 00-.008-.02.027.027 0 00-.019-.007h-4.844a.027.027 0 00-.019.008.028.028 0 00-.008.02v18.792c0 .008.003.015.008.02a.027.027 0 00.019.008h4.844a.027.027 0 00.019-.008.028.028 0 00.008-.02v-7.678zm44.658-3.058c.005-.035.014-.036.027-.004l4.29 10.722a.067.067 0 00.068.046h1.876a.058.058 0 00.058-.038l4.484-10.704a.025.025 0 01.01-.01.02.02 0 01.014-.003.02.02 0 01.013.007.023.023 0 01.007.013l1.373 10.707c.003.019.014.028.033.028h4.824c.037 0 .053-.018.048-.055L343.115 7.14a.04.04 0 00-.014-.027.044.044 0 00-.029-.01h-4.807c-.027 0-.045.012-.056.038l-3.994 9.936c-.014.036-.028.036-.042 0l-3.774-9.935a.057.057 0 00-.058-.04h-4.764c-.026 0-.04.013-.044.038l-3.183 18.773c-.004.025.007.038.033.038h4.787c.036 0 .057-.018.063-.054l1.58-10.71zM43.182 26.577c-2.1 1.341-4.948 1.886-5.966-1.168-.651-1.951-.518-3.912.12-5.84.44-1.33 1.005-2.549 1.821-3.683a.03.03 0 000-.036.03.03 0 00-.01-.009c-1.25-.735-2.051-2.026-1.747-3.543.31-1.551 1.469-3.081 2.503-4.189 2.358-2.523 5.228-4.684 8.027-6.488.396-.255.651-.44 1.043-.413.351.022.782.855.901 1.133.679 1.576.032 4.06-.22 5.512-.005.027-.021.039-.048.034-2.67-.424-5.585.384-7.755 1.89-.356.248-1.006.77-.932 1.266.143.955 2.45 1.072 3.133 1.083 1.267.022 2.543-.329 3.797.064 3.02.948 2.399 4.461 1.479 6.661-1.252 2.992-3.385 5.963-6.146 7.726zm-1.403-2.9c.79.549 1.722-.874 2.1-1.447.954-1.453 2.053-3.358 2.113-5.091.018-.496-.012-.84-.087-1.035-.448-1.152-1.868-.573-2.408.148-1.147 1.53-1.959 3.96-2.11 5.854-.037.455-.006 1.296.392 1.572zM202.39 8.982c-.232-.04-.744-.135-.987.088-.115.106-.2.172-.255.2-1.066.538-1.223-.508-1.09-1.247a13.42 13.42 0 01.696-2.475c.504-1.298 1.727-2.842 3.292-2.629.606.083 1.104.446 1.272 1.044.318 1.125-1.035 3.777-1.808 4.582-.323.336-.652.517-1.12.437z" fill="#E30613"/><path d="M317.36 9.682c5.312 5.553 2.582 14.856-4.901 16.652-1.697.407-3.444.436-5.239.085-3.869-.755-7.014-3.9-7.745-7.783-.365-1.942-.266-3.947.471-5.77 1.572-3.889 5.203-6.246 9.366-6.316 3.153-.053 5.843.827 8.048 3.132zm-2.367 6.912a5.31 5.31 0 00-1.551-3.751 5.295 5.295 0 00-9.043 3.751 5.316 5.316 0 001.552 3.751 5.29 5.29 0 008.639-1.72 5.316 5.316 0 00.403-2.031zm-84.242-2.264c-.978-2.228-3.565-3.286-5.868-2.71-1.141.287-2.096.914-2.866 1.882a.04.04 0 01-.044.012.036.036 0 01-.019-.014.04.04 0 01-.008-.023V7.695c0-.026.012-.044.037-.053 2.17-.856 4.449-1.215 6.725-.654 3.099.764 5.709 2.886 6.921 5.865.779 1.913.926 4.2.474 6.174-1.2 5.236-6.858 8.371-11.962 7.19a18.74 18.74 0 01-2.162-.669.045.045 0 01-.033-.046v-5.697c0-.044.016-.05.047-.02.871.865 1.816 1.535 2.997 1.805 2.359.541 5.06-.648 5.91-3.022.011-.03 0-.045-.031-.045h-6.057a.042.042 0 01-.029-.012.04.04 0 01-.012-.028v-4.071a.04.04 0 01.012-.03.042.042 0 01.029-.011h5.913c.029 0 .038-.014.026-.04zm13.587 11.622h-4.849a.022.022 0 01-.017-.007.024.024 0 01-.008-.017v-18.8c0-.007.003-.013.008-.017a.022.022 0 01.017-.007h4.848c.006 0 .013.002.017.007.005.004.007.01.007.017l.003 7.662c0 .006.001.01.004.015a.028.028 0 00.012.008.026.026 0 00.028-.008l5.906-7.692a.042.042 0 01.009-.007.023.023 0 01.011-.002h5.996c.005 0 .009 0 .013.003a.024.024 0 01.009.01.02.02 0 01.002.014.027.027 0 01-.005.012l-7.425 8.866a.028.028 0 00-.005.016c0 .005.002.01.005.015l8.113 9.872a.02.02 0 01.005.013c.001.005 0 .01-.002.014a.023.023 0 01-.009.01.025.025 0 01-.013.003h-6.301c-.004 0-.008 0-.011-.002a.02.02 0 01-.009-.008l-6.291-8.093a.023.023 0 00-.012-.008.024.024 0 00-.027.009.024.024 0 00-.005.014v8.064a.023.023 0 01-.007.017.025.025 0 01-.017.007zm19.592-3.244l-1.281 3.226a.034.034 0 01-.011.013.028.028 0 01-.016.005h-5.127a.03.03 0 01-.014-.003.024.024 0 01-.01-.01.03.03 0 01-.005-.012.022.022 0 01.002-.014l7.214-18.792a.032.032 0 01.01-.013.03.03 0 01.016-.004h5.317c.006 0 .012.001.016.005a.028.028 0 01.011.013l7.062 18.792a.031.031 0 01.002.013.029.029 0 01-.005.013.032.032 0 01-.01.009.03.03 0 01-.013.003h-5.18a.027.027 0 01-.016-.005.026.026 0 01-.01-.014l-1.197-3.217a.028.028 0 00-.026-.019l-6.702-.007a.03.03 0 00-.017.005.032.032 0 00-.01.013zm1.374-3.814l-.001.013a.027.027 0 00.005.012.031.031 0 00.01.008.027.027 0 00.012.003l3.974.008a.024.024 0 00.012-.003.023.023 0 00.01-.009.027.027 0 00.005-.012.029.029 0 00-.001-.013l-1.976-5.877a.036.036 0 00-.01-.015.03.03 0 00-.017-.005.028.028 0 00-.026.02l-1.997 5.87zm18.851-.648v7.678a.025.025 0 01-.008.02.027.027 0 01-.019.008h-4.844a.027.027 0 01-.019-.008.029.029 0 01-.008-.02V7.131c0-.007.003-.014.008-.02a.027.027 0 01.019-.007h4.844c.007 0 .014.002.019.008a.025.025 0 01.008.02v7.21c0 .004 0 .008.002.011a.019.019 0 00.006.01.019.019 0 00.009.005.026.026 0 00.01.002h7.017a.027.027 0 00.02-.008.028.028 0 00.008-.02l-.001-7.21c0-.008.003-.015.008-.02a.029.029 0 01.02-.008h4.843c.008 0 .015.002.02.008a.028.028 0 01.008.02v18.792a.028.028 0 01-.028.028h-4.842a.028.028 0 01-.028-.028v-7.682a.028.028 0 00-.028-.028l-7.017.004c-.003 0-.007 0-.01.002a.019.019 0 00-.009.006.019.019 0 00-.006.01c-.002.003-.002.006-.002.01zm44.658-3.058l-1.581 10.71c-.005.036-.026.054-.062.054h-4.787c-.026 0-.037-.013-.033-.038l3.183-18.773c.003-.025.018-.037.044-.037h4.764c.028 0 .047.013.058.04l3.774 9.933c.014.037.028.037.042.001l3.994-9.936c.011-.026.029-.038.056-.038h4.807c.011 0 .021.003.029.01a.04.04 0 01.014.027l2.823 18.756c.005.037-.011.055-.048.055h-4.824c-.019 0-.03-.01-.033-.028l-1.373-10.707a.023.023 0 00-.007-.013.02.02 0 00-.013-.007c-.005 0-.01 0-.014.003a.025.025 0 00-.01.01l-4.485 10.704a.057.057 0 01-.057.038h-1.876a.067.067 0 01-.068-.046l-4.29-10.722c-.013-.032-.022-.03-.027.004z" fill="#fff"/><path d="M121.415 23.209a.025.025 0 01-.009-.012.019.019 0 010-.014.026.026 0 01.009-.012.021.021 0 01.014-.003c1.099.131 1.949-.26 2.549-1.175a2718.62 2718.62 0 003.633-5.556.015.015 0 000-.01l-.003-.009a.023.023 0 00-.007-.006l-3.685-2.405a.046.046 0 01-.011-.011.04.04 0 010-.044l.487-.749c.019-.028.042-.033.071-.015l3.57 2.318c.011.007.024.01.037.008a.053.053 0 00.033-.02 74.499 74.499 0 003.867-5.328 2.627 2.627 0 00.443-1.615.026.026 0 01.004-.018.028.028 0 01.015-.01.025.025 0 01.03.014c.748 1.554.154 2.383-.74 3.755-2.158 3.316-4.321 6.63-6.487 9.943-.237.363-.443.62-.617.772-.91.79-2.186.81-3.203.202z" fill="#009640"/><path d="M73.145 15.226c1.046-.462 2.56-.72 3.581-.039 1.738 1.16.71 4.007 0 5.439a19.596 19.596 0 01-4.036 5.525c-.994.951-3.29 2.569-4.443.949-.305-.43-.308-1.393-.946-1.415-.902-.029-1.914.167-2.389-.834-.711-1.502-.142-3.67.467-5.26 1.104-2.89 2.304-5.848 3.985-8.392.933-1.412 2.262-2.48 4.064-2.292.515.054 1.251.494 1.62.723.664.411.22 1.25-.115 1.796-.422.687-.848 1.372-1.276 2.055-.273.434-.589 1.165-.552 1.72.002.028.015.037.04.025zm-3.89 10.12c.67.394 1.764-1.6 2.015-2.037.996-1.738 2.08-3.751 2.058-5.8-.005-.465-.111-.921-.618-.987-1.897-.244-3.418 5.486-3.684 6.806-.113.56-.243 1.742.23 2.019zm116.039-7.609c.055.148.126.156.214.026a80.008 80.008 0 011.931-2.76c.762-1.04 1.707-2.136 2.842-2.684 1.428-.69 2.48.408 2.48 1.792 0 1.835-.591 5.345-3.019 5.463a.057.057 0 01-.043-.018.054.054 0 01-.011-.02.063.063 0 01-.001-.024c.046-.262.335-1.954-.376-1.72-.618.206-1.216 1.123-1.478 1.724-1.287 2.942 3.534 6.033 5.048 2.632a.035.035 0 01.015-.016.035.035 0 01.023-.003.034.034 0 01.026.034c-.105 2.692-1.506 5.61-4.548 5.823-1.757.124-2.546-2.347-3.015-3.576-.074-.194-.214-.543-.446-.576-.703-.098-1.599 2.38-1.857 2.842-.579 1.038-1.828 1.048-2.788.634-.824-.355-.811-1.66-.768-2.538.058-1.188.2-2.367.424-3.536a69.86 69.86 0 012.12-8.255c.414-1.282 1.7-3.361 3.276-3.285.543.027.987.279 1.331.756.016.022.02.046.012.072a50.984 50.984 0 00-1.26 4.76c-.14.654-.367 1.826-.132 2.453zM30.222 25.995c-2.416 1.326-7.134.851-7.756-2.492-.528-2.838.654-6.01 2.047-8.436 1.856-3.238 5.847-5.917 9.624-4.212 2.966 1.338 2.05 5.436 1.275 7.78-.913 2.76-2.547 5.907-5.19 7.36zm-2.71-1.93c1.093.692 2.118-1.245 2.456-1.963.971-2.057 1.654-4.355 1.795-6.632.045-.72-.006-2.4-1.216-2.097-1.869.467-3.051 5.214-3.388 6.813-.177.835-.514 3.329.353 3.878zm50.825 3.113c-2.003-.867-2.015-3.118-1.48-4.912.83-2.773 2.048-5.413 3.362-7.985.529-1.035 1.844-3.794 3.273-3.667.63.055 1.162.682 1.34 1.251.301.96.09 1.784-.266 2.7a99.749 99.749 0 01-2.563 5.985c-.256.55-1.546 3.238-1.172 3.796.27.401 1.442.45 1.926.425.033-.002.043.013.03.043-.698 1.725-2.523 3.198-4.45 2.364zM44.868 38.76c-1.174-.787-.127-3.348.221-4.346 2.379-6.827 4.971-13.633 7.987-20.206.348-.76 1.193-2.54.646-3.339-.014-.02-.009-.031.017-.033a53.02 53.02 0 002.678-.186c1.319-.125 2.705.004 2.547 1.786a.547.547 0 00.022.24.1.1 0 00.144.049c.73-.447 1.418-.894 2.224-1.162 1.551-.517 2.754.292 3.11 1.826.263 1.133.175 2.284-.039 3.415a20.033 20.033 0 01-2.691 6.924c-.535.858-1.31 1.883-2.216 2.352-1.538.798-3.072.658-4.273-.662-.23-.253-.46-.506-.686-.759-.255-.282-.483-.38-.703-.009-1.78 3.013-3.095 6.303-4.46 9.52-.73 1.72-1.524 3.748-3.148 4.619-.496.266-.956.257-1.38-.028zm10.954-15.204c.954.732 2.239-1.322 2.668-1.97 1.179-1.783 2.317-3.807 2.17-6.014-.105-1.568-1.776-1.336-2.58-.57-.423.403-.842 1.081-1.136 1.668a16.32 16.32 0 00-1.503 4.547c-.112.65-.202 1.892.381 2.339zm39.13-1.722c-.23-.533-2.164 1.213-2.392 1.417-1.599 1.435-3.15 2.933-5.009 4.085-1.76 1.09-3.169-.902-3.55-2.374a.143.143 0 01.062-.156.14.14 0 01.056-.02c.33-.043.689-.133 1.01-.276a19.507 19.507 0 004.652-2.92c.126-.107.7-.61.714-.873.002-.061-.033-.126-.106-.193-3.194-2.938-1.892-8.522 2.342-9.64 1.92-.508 2.829.26 4.271 1.37.115.088.281.136.498.144a.123.123 0 00.073-.02c.497-.331 1.013-.695 1.517-.937.752-.36 3.851-1.576 2.87.789a75.62 75.62 0 00-1.631 4.296 182.649 182.649 0 00-3.054 9.707c-.147.516-.171.796-.675.932-.789.212-2.996.242-3.074-.943-.105-1.584.532-2.995 1.413-4.26a.131.131 0 00.013-.128zm.45-8.613c-1.616.107-2.521 3.377-2.758 4.644-.083.444-.143 1.38.281 1.675.925.645 2.49-2.457 2.8-3.067.354-.692 1.224-3.355-.324-3.252zm79.929-1.778c1.893-.634 4.317-.09 4.447 2.315.022.408.048.85-.02 1.25-.601 3.526-3.438 6.22-7.088 6.245a.117.117 0 00-.072.025.962.962 0 00-.363.521c-.365 1.444.591 3.152 2.273 2.826 1.182-.23 2.213-1.435 2.751-2.468.013-.026.028-.026.043-.003.713 1.078.608 1.824-.03 2.867-1.045 1.708-2.694 2.539-4.687 2.194-2.251-.39-4.298-2.276-4.616-4.603-.344-2.523 1.296-5.686 2.7-7.677 1.188-1.685 2.742-2.849 4.662-3.492zm-2.47 8.266c.635.315 1.437-1.102 1.693-1.536.606-1.027 1.198-2.13 1.109-3.366-.064-.876-.914-.946-1.441-.462-.92.846-1.471 2.778-1.661 3.974-.055.346-.085 1.198.3 1.39zM309.696 21.9a5.3 5.3 0 005.297-5.306 5.3 5.3 0 00-5.297-5.305 5.301 5.301 0 00-5.297 5.305 5.301 5.301 0 005.297 5.306zm-156.182 5.441c-1.533-1.349-2.378-4.58-1.76-6.526a.118.118 0 01.051-.066c.151-.096.295-.036.425.084 1.405 1.293 2.989 1.413 4.171-.237 1.367-1.907 2.626-3.9 3.933-5.85.614-.915 1.152-1.632 1.613-2.152.916-1.031 2.189-1.043 3.406-.587a.092.092 0 01.054.05c.432.976.672 2.194.853 3.205a39.99 39.99 0 01.615 7.678 10.759 10.759 0 01-.349 2.46c-.165.646-.551 1.05-1.16 1.212-1.526.408-2.088-1.042-2.253-2.22a18.812 18.812 0 01-.156-3.629c.025-.471.344-2.65-.925-1.205-2.027 2.31-3.274 5.218-5.481 7.334-.823.789-2.014 1.35-3.037.45zm111.791-8.447l1.996-5.87a.028.028 0 01.01-.015.03.03 0 01.017-.005.03.03 0 01.016.005.028.028 0 01.01.014l1.976 5.878a.02.02 0 01.001.013.025.025 0 01-.004.012.028.028 0 01-.023.012l-3.973-.008a.027.027 0 01-.013-.003.031.031 0 01-.01-.008.026.026 0 01-.004-.012.02.02 0 01.001-.013zm-64.938 3.979c.704-.742 1.512-1.937 2.708-1.547a.04.04 0 01.014.009.036.036 0 01.009.013c.002.005.003.01.003.016s-.001.011-.004.016c-.945 1.962-1.559 3.2-1.839 3.714-.642 1.174-2.479 2.801-3.975 2.42-1.613-.412-2.101-2.097-2.342-3.537-.015-.09-.064-.116-.147-.079a.829.829 0 00-.445.467.039.039 0 01-.016.02.04.04 0 01-.026.007.04.04 0 01-.037-.033c-.191-.819-.33-2.034.004-2.82.129-.303.35-.272.555-.386 1.01-.558 1.736-1.805 2.253-2.87.836-1.722 1.982-4.589 3.618-5.17 1.103-.39 2.863.385 2.415 1.812-.712 2.272-1.771 4.414-2.741 6.582-.175.392-.193.844-.055 1.354.008.033.024.037.048.012z" fill="#E30613"/></g><defs><clipPath id="clip0_4046_7200"><path fill="#fff" d="M0 0h355v39H0z"/></clipPath></defs></svg>