<svg xmlns="http://www.w3.org/2000/svg" width="40" height="40" fill="none"><path d="M9.45 6.602A2.557 2.557 0 006.91 9.15v1.53H5.006a2.517 2.517 0 00-2.507 2.498V30.9c0 1.37 1.134 2.497 2.507 2.497H30.6a2.51 2.51 0 002.497-2.497v-1.575h1.865a2.558 2.558 0 002.542-2.548V9.15a2.558 2.558 0 00-2.542-2.548H9.449zm0 1.669h25.51c.5 0 .876.378.876.879v17.628a.86.86 0 01-.876.882h-1.864V13.178a2.51 2.51 0 00-2.498-2.498H8.57V9.15c0-.504.378-.882.882-.882l-.003.003zm-4.442 4.075h25.553a.851.851 0 01.872.873v17.679a.81.81 0 01-.831.831H5.008a.811.811 0 01-.838-.831v-17.72c0-.473.36-.832.838-.832zm4.52 2.23c-.479 0-.863.309-.85.939.018.882-1.427 2.18-2.287 2.17-.545-.01-.756.369-.75.841v7.02c0 .47.309.845.882.838.857-.006 2.158 1.229 2.158 2.262a.85.85 0 00.85.85h16.545a.843.843 0 00.838-.87c0-.711.79-2.248 2.189-2.248a.835.835 0 00.86-.832V18.53c0-.472-.259-.85-1.115-.84-.854.012-1.94-1.242-1.928-2.127-.006-.68-.368-.986-.844-.982l-16.548-.004zm.542 1.67h15.464c.309 1.436 1.333 2.463 2.763 2.797v5.984a3.574 3.574 0 00-2.772 2.803H10.076a3.569 3.569 0 00-2.772-2.803v-5.985c1.433-.333 2.457-1.357 2.766-2.796zm7.732 1.058c-2.608 0-4.737 2.126-4.737 4.728 0 2.604 2.13 4.74 4.737 4.74a4.756 4.756 0 004.743-4.74c0-2.602-2.138-4.728-4.743-4.728zm0 1.666a3.066 3.066 0 110 6.132 3.055 3.055 0 01-3.07-3.07 3.052 3.052 0 013.07-3.062z" fill="#7CC622"/></svg>