<svg xmlns="http://www.w3.org/2000/svg" width="40" height="40" fill="none"><path d="M36.667 9.166H25V7.499a3.333 3.333 0 00-3.333-3.333H3.333A3.333 3.333 0 000 7.499v21.667a2.5 2.5 0 002.5 2.5h2.575a4.993 4.993 0 009.85 0h7.53A2.529 2.529 0 0024 31.102c.383.361.89.563 1.417.564h1.325a4.993 4.993 0 009.849 0h.909c1.285 0 2.5-1.215 2.5-2.5V12.499a3.333 3.333 0 00-3.333-3.333zM10 34.166a3.333 3.333 0 110-6.667 3.333 3.333 0 010 6.667zm13.333-4.96c0 .383-.515.793-.876.793h-7.532a4.993 4.993 0 00-9.85 0H2.5a.833.833 0 01-.833-.833V7.499c0-.92.746-1.666 1.666-1.666h18.334c.92 0 1.666.746 1.666 1.666v21.708zm8.334 4.96a3.333 3.333 0 110-6.667 3.333 3.333 0 010 6.667zm6.666-12.5H30c-.333 0-.833-.44-.833-.833v-5c0-.484.5-.834.833-.834h8.333v6.667zm0-8.333H30c-1.183 0-2.5 1.026-2.5 2.5v5c0 1.285 1.215 2.5 2.5 2.5h8.333v5.833c0 .366-.467.834-.833.834h-.908a4.993 4.993 0 00-9.85 0h-1.325a.415.415 0 01-.417-.417.784.784 0 00-.027-.137c.013-.079.023-.159.027-.239V10.833h11.667c.92 0 1.666.746 1.666 1.666v.834z" fill="#7CC622"/><mask id="a" maskUnits="userSpaceOnUse" x="5.5" y="8.834" width="14" height="14" fill="#000"><path fill="#fff" d="M5.5 8.834h14v14h-14z"/><path fill-rule="evenodd" clip-rule="evenodd" d="M11.832 10.834a1 1 0 00-1 1v2.333H8.5a1 1 0 00-1 1V16.5a1 1 0 001 1h2.332v2.334a1 1 0 001 1h1.333a1 1 0 001-1V17.5H16.5a1 1 0 001-1v-1.333a1 1 0 00-1-1h-2.335v-2.333a1 1 0 00-1-1h-1.333z"/></mask><path d="M10.832 14.167v2h2v-2h-2zm0 3.333h2v-2h-2v2zm3.333 0v-2h-2v2h2zm0-3.333h-2v2h2v-2zm-1.333-2.333a1 1 0 01-1 1v-4a3 3 0 00-3 3h4zm0 2.333v-2.333h-4v2.333h4zm-4.332 2h2.332v-4H8.5v4zm1-1a1 1 0 01-1 1v-4a3 3 0 00-3 3h4zm0 1.333v-1.333h-4V16.5h4zm-1-1a1 1 0 011 1h-4a3 3 0 003 3v-4zm2.332 0H8.5v4h2.332v-4zm2 4.334V17.5h-4v2.334h4zm-1-1a1 1 0 011 1h-4a3 3 0 003 3v-4zm1.333 0h-1.333v4h1.333v-4zm-1 1a1 1 0 011-1v4a3 3 0 003-3h-4zm0-2.334v2.334h4V17.5h-4zm4.335-2h-2.335v4H16.5v-4zm-1 1a1 1 0 011-1v4a3 3 0 003-3h-4zm0-1.333V16.5h4v-1.333h-4zm1 1a1 1 0 01-1-1h4a3 3 0 00-3-3v4zm-2.335 0H16.5v-4h-2.335v4zm-2-4.333v2.333h4v-2.333h-4zm1 1a1 1 0 01-1-1h4a3 3 0 00-3-3v4zm-1.333 0h1.333v-4h-1.333v4z" fill="#7CC622" mask="url(#a)"/></svg>