<svg xmlns="http://www.w3.org/2000/svg" width="40" height="40" fill="none"><path d="M37.6 6.4H2.4A2.403 2.403 0 000 8.8v22.4c0 1.324 1.077 2.4 2.4 2.4h35.2c1.323 0 2.4-1.076 2.4-2.4V8.8c0-1.323-1.077-2.4-2.4-2.4zm.8 24.8c0 .44-.36.8-.8.8H2.4c-.442 0-.8-.36-.8-.8V8.8a.8.8 0 01.8-.8h35.2c.44 0 .8.359.8.8v22.4z" fill="#7CC622"/><path d="M.8 13.6h38.4v3.2H.8v-3.2z" fill="#7CC622"/><path d="M39.2 12.8H.8a.8.8 0 00-.8.8v3.2a.8.8 0 00.8.8h38.4a.8.8 0 00.8-.8v-3.2a.8.8 0 00-.8-.8zm-.8 3.2H1.6v-1.6h36.8V16zm-16.8 6.4H7.2a.8.8 0 000 1.6h14.4a.8.8 0 000-1.6zm-6.4 3.2h-8a.8.8 0 000 1.6h8a.8.8 0 000-1.6z" fill="#7CC622"/></svg>