<svg xmlns="http://www.w3.org/2000/svg" width="40" height="40" fill="none"><path d="M15 36.25h-5a.625.625 0 100 1.25h5a.624.624 0 100-1.25z" fill="#7CC622"/><path d="M36.563 12.5H23.75V2.812A2.19 2.19 0 0021.562.626H3.438A2.19 2.19 0 001.25 2.813v34.374a2.19 2.19 0 002.188 2.188h18.125a2.19 2.19 0 002.187-2.188v-9.062h12.813a2.19 2.19 0 002.187-2.188v-11.25a2.19 2.19 0 00-2.188-2.187zM15.448 1.875l-.312 1.25H9.863l-.312-1.25h5.898zM22.5 37.188a.938.938 0 01-.938.937H3.438a.938.938 0 01-.937-.938V2.813a.938.938 0 01.938-.938h4.824l.507 2.027a.625.625 0 00.606.473h6.25a.625.625 0 00.606-.473l.507-2.027h4.825a.938.938 0 01.937.938v34.374zm1.25-15.313h1.875v2.5H23.75v-2.5zm13.75 4.063a.938.938 0 01-.938.937H23.75v-1.25h2.5a.624.624 0 00.625-.625v-3.75a.624.624 0 00-.625-.625h-2.5V18.75H37.5v7.188zm0-8.438H23.75v-1.25H37.5v1.25zm0-2.5H23.75v-1.25h12.813a.938.938 0 01.937.938V15z" fill="#7CC622"/><path d="M35.625 20.625H30a.624.624 0 100 1.25h5.625a.624.624 0 100-1.25zm0 1.875H30a.624.624 0 100 1.25h5.625a.624.624 0 100-1.25zm0 1.875h-2.5a.624.624 0 100 1.25h2.5a.624.624 0 100-1.25zM12.5 12.5A7.5 7.5 0 1020 20a7.508 7.508 0 00-7.5-7.5zm0 13.75A6.25 6.25 0 1118.75 20a6.257 6.257 0 01-6.25 6.25z" fill="#7CC622"/><path d="M15.808 17.683l-3.992 3.992-2.066-1.55a.625.625 0 00-.75 1L11.5 23a.625.625 0 00.817-.058l4.375-4.375a.625.625 0 00-.884-.884z" fill="#7CC622"/></svg>