<svg width="255" height="27" fill="none" xmlns="http://www.w3.org/2000/svg"><g clip-path="url(#clip0_3622_6376)"><path d="M138.978 12.457a13.917 13.917 0 01-1.305-5.66 6.708 6.708 0 01.403-2.534 6.593 6.593 0 011.323-2.183A6.426 6.426 0 01141.44.582 6.308 6.308 0 01143.887 0a5.503 5.503 0 013.275.71 5.678 5.678 0 012.294 2.493v9.165l-10.478.089z" fill="#FD0"/><path d="M149.456 26.248a64.217 64.217 0 01-9.816-12.546h9.816v12.546z" fill="#52AE32"/><path d="M160.596 13.702a65.606 65.606 0 01-9.817 12.546V13.702h9.817z" fill="#E30613"/><path d="M150.762 3.203a5.693 5.693 0 012.296-2.49A5.52 5.52 0 01156.331 0c.842.025 1.67.22 2.437.573.768.352 1.46.856 2.037 1.483a6.564 6.564 0 011.326 2.167c.299.805.439 1.661.414 2.521a13.904 13.904 0 01-1.306 5.624h-10.442l-.035-9.165z" fill="#008BD2"/><path d="M18.014 24.184l-2.767-7.118H5.22l-2.73 7.118H0L8.807 1.44h2.941l8.79 22.743h-2.524zM11.68 7.866l-1.236-4.307h-.278L8.858 7.866l-2.872 7.402h8.563L11.68 7.866zm28.508 16.318V3.559H27.187v20.625H24.75V1.44h17.875v22.743h-2.437zm13.767 0V3.47h-7.832l.348-2.011h18.101l-.348 2.01h-7.867v20.715h-2.402zm13.733 0V1.44h16.43l-.348 2.011H70.142v7.955h11.052v2.01H70.142v8.72h13.924l-.349 2.047h-16.03zm35.767 0l-7.362-10.34h-5.587v10.34h-2.437V1.44h2.437v10.393h5.517l7.432-10.393h3.22l-4.194 5.677-4.23 5.695a552.014 552.014 0 014.23 5.712l4.194 5.659h-3.22zm24.593 0l-2.732-7.118h-10.008l-2.733 7.118h-2.541l8.79-22.743h3.011l8.702 22.743h-2.489zm-6.335-16.318l-1.305-4.307h-.209l-1.306 4.289-2.872 7.42h8.564l-2.872-7.402z" fill="#77AD47"/><path d="M188.739 24.184l-2.767-7.118h-9.956l-2.733 7.118h-2.541l8.79-22.743h2.941l8.807 22.743h-2.541zm-6.335-16.318l-1.288-4.307h-.209l-1.306 4.289-2.871 7.403h8.563l-2.889-7.385zm13.088 16.318V1.44h7.867c1.527-.01 3.051.103 4.56.338 1.27.186 2.47.707 3.481 1.513a7.425 7.425 0 012.228 3.399 18.43 18.43 0 01.783 5.979 21.29 21.29 0 01-.696 6.068 7.44 7.44 0 01-2.071 3.56 6.895 6.895 0 01-3.359 1.583 25.15 25.15 0 01-4.595.374l-8.198-.071zm7.867-2.047c1.34.017 2.679-.078 4.003-.285a4.764 4.764 0 002.629-1.28 5.883 5.883 0 001.444-2.866 22.9 22.9 0 00.453-5.072 16.51 16.51 0 00-.644-5.231 5.654 5.654 0 00-1.741-2.723 5.431 5.431 0 00-2.785-1.121 30.829 30.829 0 00-3.481-.178h-5.343v18.756h5.465zm16.24 2.047V1.44h16.43l-.348 2.011h-13.628v7.955h11.052v2.01h-11.052v8.72h13.924l-.348 2.047h-16.03zm19.876 0V1.44h2.454v20.696H255l-.348 2.047h-15.177z" fill="#C12E2C"/></g><defs><clipPath id="clip0_3622_6376"><path fill="#fff" d="M0 0h255v26.248H0z"/></clipPath></defs></svg>