<svg width="255" height="27" fill="none" xmlns="http://www.w3.org/2000/svg"><g clip-path="url(#clip0_3622_1791)" fill="#A0A0A0"><path d="M138.978 12.387a13.777 13.777 0 01-1.305-5.627c-.03-.86.107-1.716.403-2.521a6.55 6.55 0 011.323-2.171A6.424 6.424 0 01141.44.579a6.337 6.337 0 012.447-.58 5.529 5.529 0 013.275.707 5.658 5.658 0 012.294 2.48v9.113l-10.478.088zm10.478 13.715a63.913 63.913 0 01-9.816-12.476h9.816v12.476zm11.14-12.476a65.296 65.296 0 01-9.817 12.476V13.626h9.817zm-9.834-10.441A5.673 5.673 0 01153.058.71a5.546 5.546 0 013.273-.71c.842.025 1.67.219 2.437.57.768.35 1.46.851 2.037 1.474a6.521 6.521 0 011.326 2.155c.299.8.439 1.652.414 2.508a13.764 13.764 0 01-1.306 5.592h-10.442l-.035-9.114zM18.014 24.05l-2.767-7.079H5.22L2.49 24.05H0L8.807 1.434h2.941l8.79 22.616h-2.524zM11.68 7.822l-1.236-4.283h-.278L8.858 7.822l-2.872 7.362h8.563L11.68 7.822zM40.188 24.05V3.54H27.187v20.51H24.75V1.434h17.875V24.05h-2.437zm13.767 0V3.45h-7.832l.348-1.999h18.101l-.348 2h-7.867V24.05h-2.402zm13.733 0V1.434h16.43l-.348 2H70.142v7.91h11.052v2H70.142v8.67h13.924l-.349 2.036h-16.03zm35.767 0l-7.362-10.282h-5.587V24.05h-2.437V1.434h2.437v10.334h5.517l7.432-10.334h3.22l-4.194 5.645-4.23 5.663a549.163 549.163 0 014.23 5.68l4.194 5.628h-3.22zm24.593 0l-2.732-7.079h-10.008l-2.733 7.079h-2.541l8.79-22.616h3.011l8.702 22.616h-2.489zm-6.335-16.228l-1.305-4.283h-.209l-1.306 4.265-2.872 7.38h8.564l-2.872-7.362zm67.026 16.228l-2.767-7.079h-9.956l-2.733 7.079h-2.541l8.79-22.616h2.941l8.807 22.616h-2.541zm-6.335-16.228l-1.288-4.283h-.209l-1.306 4.265-2.871 7.362h8.563l-2.889-7.344zm13.088 16.228V1.432h7.867c1.527-.01 3.051.102 4.56.337 1.27.184 2.47.703 3.481 1.504a7.38 7.38 0 012.228 3.38c.587 1.923.852 3.933.783 5.946a21.06 21.06 0 01-.696 6.034 7.39 7.39 0 01-2.071 3.54 6.912 6.912 0 01-3.359 1.575 25.282 25.282 0 01-4.595.371l-8.198-.07zm7.867-2.036a24.16 24.16 0 004.003-.283 4.775 4.775 0 002.629-1.274 5.838 5.838 0 001.444-2.85c.339-1.657.491-3.35.453-5.043a16.333 16.333 0 00-.644-5.202 5.619 5.619 0 00-1.741-2.708 5.448 5.448 0 00-2.785-1.115 31 31 0 00-3.481-.177h-5.343v18.652h5.465zm16.24 2.036V1.434h16.43l-.348 2h-13.628v7.91h11.052v2h-11.052v8.67h13.924l-.348 2.036h-16.03zm19.876 0V1.434h2.454v20.58H255l-.348 2.036h-15.177z"/></g><defs><clipPath id="clip0_3622_1791"><path fill="#fff" d="M0 0h255v26.102H0z"/></clipPath></defs></svg>