<svg data-name="Слой 1" xmlns="http://www.w3.org/2000/svg" viewBox="0 0 222.54 37.33"><path d="M34.01 2.39A11.89 11.89 0 0145.3 1.18a9.91 9.91 0 015.24 5.15 10.14 10.14 0 01-1.7 11.9q-7.5 8.1-15.6 15.6a11 11 0 01-15.5-1.74 11.16 11.16 0 01.3-14.2c4.9-5 9.7-10 14.9-14.7a9.4 9.4 0 011.07-.8zm5.13 20.14c.5-.4 1.1-1 1.8-1.6 1.8-1.9 3.8-3.6 5.5-5.6a7.05 7.05 0 00-.6-9.4c-2.6-2.6-6.7-3.1-9.4-.7a100.74 100.74 0 00-7.2 7.5c3.1 3.2 6.5 6.5 9.9 9.8zm38.33 3.56a1.27 1.27 0 00.1.6.77.77 0 00.2.3c.1.1.2.1.4.1s.3.1.4.1a1.25 1.25 0 01.8 1.3 1.9 1.9 0 01-.5 1.3 3.09 3.09 0 01-1.9.5 3.81 3.81 0 01-1.6-.3 3.1 3.1 0 01-1.2-1.1 5.64 5.64 0 01-2 1.1 9.35 9.35 0 01-2.5.4 6.11 6.11 0 01-4.5-1.5 5.28 5.28 0 01-1.5-3.9v-.1c0-3.4 2.2-5.2 6.7-5.2a5.28 5.28 0 011.3.1 6.11 6.11 0 011.3.3v-1.1c0-1.6-.9-2.3-2.6-2.3a3.73 3.73 0 00-1.2.2 4.18 4.18 0 00-1 .4 1.69 1.69 0 00-.5.2 2 2 0 01-.8.1 2 2 0 01-.9-.2 1.47 1.47 0 01-.6-.5.86.86 0 01-.3-.6 1.7 1.7 0 01-.1-.7 2.11 2.11 0 01.5-1.3 3 3 0 011.3-.9 10.55 10.55 0 011.9-.5 14.92 14.92 0 012.1-.2c2.5 0 4.2.6 5.3 1.8a7.37 7.37 0 011.6 5.2v6.4zm-7.1-3.1a2.17 2.17 0 00-1.2.2 1.61 1.61 0 00-.7.4.86.86 0 00-.3.6 1.7 1.7 0 00-.1.7v.1a1.36 1.36 0 00.5 1.2 3.1 3.1 0 001.6.4 5.07 5.07 0 001.3-.2 4.15 4.15 0 001.3-.7v-2.4a11.21 11.21 0 00-2.43-.26zm19.37 7.34a6.6 6.6 0 01-1.4-.1 6.39 6.39 0 01-1.6-.6v5.6a2 2 0 01-.6 1.5 2.71 2.71 0 01-3.4 0 2 2 0 01-.6-1.5V18.09a2.22 2.22 0 00-.1-.9c-.1-.2-.2-.5-.3-.7s-.2-.3-.3-.5-.1-.3-.1-.6a1.8 1.8 0 01.7-1.5 2.4 2.4 0 011.5-.6 1.69 1.69 0 011 .3 5 5 0 01.8.7 15.77 15.77 0 012.3-1.1 6.05 6.05 0 012.4-.4 7.08 7.08 0 012.6.5 4.5 4.5 0 011.9 1.4 7.19 7.19 0 011.2 2.1 7.66 7.66 0 01.4 2.7v3.9a12.65 12.65 0 01-.3 2.8 5.08 5.08 0 01-1.1 2.2 6.18 6.18 0 01-2 1.5 8.72 8.72 0 01-3 .44zm-2.9-4.3a3.93 3.93 0 001.4.3 4.48 4.48 0 001.1.1 2.2 2.2 0 001.8-.8 3.91 3.91 0 00.5-2.4v-3.9c0-1.8-.7-2.7-2.2-2.7a6 6 0 00-2.6.7.37.37 0 00.1.3v8.4zm13-16a2 2 0 01.6-1.5 2.71 2.71 0 013.4 0 2 2 0 01.6 1.5v3.8h2.5a2.27 2.27 0 011.6.6 2 2 0 01.6 1.5 1.68 1.68 0 01-.6 1.4 2.27 2.27 0 01-1.6.6h-2.47v5a7.59 7.59 0 00.1 1.6 1.49 1.49 0 00.3 1c.2.2.3.5.6.6a2.51 2.51 0 001 .2h.6a3.87 3.87 0 012.2.4 1.68 1.68 0 01.6 1.4 2.13 2.13 0 01-.3 1.2 2.34 2.34 0 01-.7.7 1.69 1.69 0 01-1 .3c-.4 0-.8.1-1.2.1a9.33 9.33 0 01-3.2-.5 4.83 4.83 0 01-2-1.4 5.54 5.54 0 01-1-2.2 14.16 14.16 0 01-.3-3.1v-13.2zm19.1 13.7a5.7 5.7 0 01-1.3-.1 6.88 6.88 0 01-1.3-.2v1.1a1.62 1.62 0 00.7 1.4 3 3 0 002 .5 7.72 7.72 0 001.5-.2 4.71 4.71 0 001.5-.6c.1 0 .2-.1.3-.1s.4-.1.7-.1a3 3 0 011 .2 1 1 0 01.6.5c.1.2.3.4.3.6a1.27 1.27 0 01.1.6 1.8 1.8 0 01-.7 1.5 4.61 4.61 0 01-1.7.9 16 16 0 01-2.1.5 13.43 13.43 0 01-1.9.1 9.43 9.43 0 01-3-.5 6.6 6.6 0 01-2.2-1.2 5.22 5.22 0 01-1.4-1.9 5.93 5.93 0 01-.5-2.3v-5.6a6.44 6.44 0 01.5-2.4 5.22 5.22 0 011.4-1.9 7.28 7.28 0 012.3-1.3 9.59 9.59 0 013.1-.5c2.2 0 3.9.5 5 1.6a5.5 5.5 0 011.6 4.2 4.64 4.64 0 01-1.6 3.8c-1 .9-2.6 1.4-4.9 1.4zm1.9-5.4a2.07 2.07 0 00-.5-1.5 2.08 2.08 0 00-1.5-.4 2.88 2.88 0 00-1.9.6 2.11 2.11 0 00-.6 1.6v1.46c.5 0 1 .1 1.5.1h.9a2.08 2.08 0 001.5-.4 1.75 1.75 0 00.6-1.46zm21 10a1.8 1.8 0 01-.7 1.5 2.71 2.71 0 01-3.4 0 1.65 1.65 0 01-.5-1.5v-2.8h-7.4a2.06 2.06 0 01-1.7-.7 2.57 2.57 0 01-.7-1.6 1.34 1.34 0 01.1-.5c.1-.2.1-.5.3-.7l6.5-15a3.92 3.92 0 01.8-1 2.84 2.84 0 011.2-.4 1.88 1.88 0 01.8.2 1.79 1.79 0 01.7.5 1.79 1.79 0 01.5.7 3.09 3.09 0 01.2.8v.26c0 .1-.1.2-.1.4-.5 1.1-1 2.2-1.4 3.2s-.9 2.1-1.3 3.1-.9 2-1.3 3.1-.9 2.1-1.4 3.2h4.2v-5.2a1.8 1.8 0 01.7-1.5 2.52 2.52 0 011.7-.6 2.27 2.27 0 011.6.6 1.8 1.8 0 01.7 1.5v5.2h.4a2.11 2.11 0 011.6.6 2.18 2.18 0 010 3 2.27 2.27 0 01-1.6.6h-.4v3zm14.4-14.8a2.06 2.06 0 011.5-.5 2.11 2.11 0 011.6.6 1.93 1.93 0 010 2.8l-4.1 4.4 5 6.6.3.6a1.27 1.27 0 01.1.6 1.91 1.91 0 01-.7 1.4 2.07 2.07 0 01-1.6.5 2.2 2.2 0 01-1.9-.9l-4.6-6.2-.4.3v4.7a1.8 1.8 0 01-.7 1.5 2.71 2.71 0 01-3.4 0 1.8 1.8 0 01-.7-1.5V7.83a1.8 1.8 0 01.7-1.5 2.71 2.71 0 013.4 0 1.8 1.8 0 01.7 1.5v10.7zm20.6 12.56a1.27 1.27 0 00.1.6.77.77 0 00.2.3c.1.1.2.1.4.1s.3.1.4.1a1.25 1.25 0 01.8 1.3 1.9 1.9 0 01-.5 1.3 3.09 3.09 0 01-1.9.5 3.81 3.81 0 01-1.6-.3 3.1 3.1 0 01-1.2-1.1 5.64 5.64 0 01-2 1.1 9.35 9.35 0 01-2.5.4 6.11 6.11 0 01-4.5-1.5 5.28 5.28 0 01-1.5-3.9v-.1c0-3.4 2.2-5.2 6.7-5.2a5.28 5.28 0 011.3.1 3.08 3.08 0 011.3.3v-1.1c0-1.6-.9-2.3-2.6-2.3a3.73 3.73 0 00-1.2.2 4.18 4.18 0 00-1 .4 1.69 1.69 0 00-.5.2 2 2 0 01-.8.1 2 2 0 01-.9-.2 1.47 1.47 0 01-.6-.5.86.86 0 01-.3-.6 1.7 1.7 0 01-.1-.7 2.11 2.11 0 01.5-1.3 3 3 0 011.3-.9 10.55 10.55 0 011.9-.5 14.92 14.92 0 012.1-.2c2.5 0 4.2.6 5.3 1.8a7.37 7.37 0 011.6 5.2v6.4zm-7.1-3.1a2.17 2.17 0 00-1.2.2 1.61 1.61 0 00-.7.4.86.86 0 00-.3.6 1.7 1.7 0 00-.1.7v.1a1.36 1.36 0 00.5 1.2 3.1 3.1 0 001.6.4 5.07 5.07 0 001.3-.2 4.15 4.15 0 001.3-.7v-2.4a11.21 11.21 0 00-2.4-.26zm17.3 4.84a2.93 2.93 0 01-.8 1.9 3 3 0 01-2 .8 3.59 3.59 0 01-1.1-.2 2.36 2.36 0 01-.9-.6 1.56 1.56 0 01-.6-.8 3.55 3.55 0 01-.2-1 3.55 3.55 0 01.2-1 1.56 1.56 0 01.6-.8l.9-.6a3.59 3.59 0 011.1-.2 3 3 0 012 .8 2.14 2.14 0 01.8 1.7zm3.9-20a2 2 0 01.6-1.4 2.71 2.71 0 013.4 0 2 2 0 01.6 1.4v5.9a5.09 5.09 0 011.7-.7 6.17 6.17 0 012-.2 7.89 7.89 0 012.8.4 5.16 5.16 0 011.9 1.2 4.18 4.18 0 011.1 1.8 7.8 7.8 0 01.3 2.2v5.66a7 7 0 01-.5 2.5 5.58 5.58 0 01-1.4 2 5.37 5.37 0 01-2.2 1.3 9.59 9.59 0 01-3.1.5 10.12 10.12 0 01-3.1-.4 6.6 6.6 0 01-2.2-1.2 4.89 4.89 0 01-1.4-1.8 5.45 5.45 0 01-.5-2.2v-17zm4.6 16.9a1.8 1.8 0 00.7 1.5 2.85 2.85 0 001.9.5 2.55 2.55 0 001.9-.6 2.35 2.35 0 00.6-1.7v-6.2a2 2 0 00-.5-1.4 2.76 2.76 0 00-1.8-.5 4 4 0 00-2.7.9v7.5zm22.5-10.4a2 2 0 01.9-1.1 3.08 3.08 0 011.3-.3 2.45 2.45 0 011.6.6 1.8 1.8 0 01.7 1.5c0 .2 0 .5-.1.6l-4.1 12c-.5 1.4-.9 2.6-1.4 3.8a14.29 14.29 0 01-1.6 3 5.74 5.74 0 01-2.2 1.9 7.56 7.56 0 01-3.2.7 2.52 2.52 0 01-1.7-.6 1.8 1.8 0 01-.7-1.5 2 2 0 01.6-1.4 2.64 2.64 0 011.6-.7 2.62 2.62 0 001.8-.9 10 10 0 001.3-2.9l-5.2-13.4a.9.9 0 01-.1-.5v-.4a1.51 1.51 0 01.7-1.4 3.16 3.16 0 011.7-.6 2.41 2.41 0 012.2 1.5l2.1 5.7c.2.6.4 1.2.6 1.9s.3 1.3.5 2a11.8 11.8 0 00.4-2 10.55 10.55 0 01.5-1.9zM17.54 2.09a8.17 8.17 0 00-2-1.2A10.88 10.88 0 003.41 3.23 11.22 11.22 0 00.68 15c1.39 3.4 6.5 7.56 10.86 11.93.4-5 .4-5-2.6-8l-2.7-2.7c-2.9-3.1-3.2-7.2-.3-10.2s7.3-3 10.5 0c1.5 1.4 2.9 3 4.4 4.7l2.9-2.8a67.61 67.61 0 00-6.2-5.84z" fill="#56ab3c"/></svg>