<svg width="50" height="50" fill="none" xmlns="http://www.w3.org/2000/svg"><path d="M25 3.125C12.937 3.125 3.125 12.938 3.125 25c0 12.063 9.813 21.875 21.875 21.875.047 0 .094-.006.14-.006a1.564 1.564 0 001.407-2.24A1.562 1.562 0 0025 43.75c-.53 0-1.14-.266-1.886-1.083-.744-.819-1.52-2.15-2.18-3.864-.643-1.675-1.178-3.712-1.559-5.99h6.4a1.563 1.563 0 000-3.126h-6.784A49.216 49.216 0 0118.75 25c0-1.627.097-3.18.24-4.688h12.02c.178 1.806.256 3.62.234 5.433a1.566 1.566 0 003.128 0 53.687 53.687 0 00-.203-5.433h8.969a18.79 18.79 0 01.596 5.433 1.565 1.565 0 003.128 0c.008-.25.013-.493.013-.745 0-12.063-9.813-21.875-21.875-21.875zm0 3.125c.531 0 1.14.269 1.886 1.086.744.819 1.52 2.15 2.18 3.864.643 1.675 1.178 3.71 1.559 5.988h-11.25c.381-2.277.916-4.313 1.56-5.988.659-1.714 1.435-3.045 2.18-3.864C23.857 6.517 24.47 6.25 25 6.25zm-5.536.83a18.99 18.99 0 00-1.447 2.997c-.787 2.05-1.401 4.459-1.812 7.11h-8.24a18.742 18.742 0 0111.5-10.107zm11.069 0a18.74 18.74 0 0111.501 10.108h-8.242c-.41-2.652-1.022-5.063-1.81-7.11a18.994 18.994 0 00-1.45-2.998zM6.86 20.313h8.972A53.696 53.696 0 0015.625 25c0 1.61.075 3.177.208 4.688H6.859A18.86 18.86 0 016.25 25c0-1.622.227-3.188.61-4.688zm1.105 12.5h8.239c.41 2.653 1.025 5.062 1.812 7.114a19.091 19.091 0 001.444 2.996 18.744 18.744 0 01-11.495-10.11z" fill="#7CC622"/><path d="M45.344 30.436c-.395-.022-.813.12-1.181.5l-5.51 5.508-5.508-5.508a1.559 1.559 0 00-2.234-.006 1.565 1.565 0 00.025 2.215l5.508 5.508-5.508 5.51a1.564 1.564 0 00.494 2.57 1.562 1.562 0 001.715-.361l5.508-5.51 5.51 5.51c1.471 1.515 3.723-.738 2.209-2.21l-5.51-5.51 5.51-5.507c1.136-1.105.156-2.647-1.03-2.71h.002z" fill="#7CC622"/></svg>