<?xml version="1.0" encoding="utf-8"?><svg viewBox="0 0 24 24" xmlns="http://www.w3.org/2000/svg" xmlns:xlink="http://www.w3.org/1999/xlink"><style>:root>svg{display:none}:root>svg:target{display:block}</style><svg fill="none" viewBox="0 0 22 22" id="icon-basket" xmlns="http://www.w3.org/2000/svg"><g clip-path="url(#aclip0_3622_6427)" fill="#333"><path d="M20.244 2H3.971c-.05 0-.094.019-.14.033l-.4-1.324A.994.994 0 002.481 0H.495A.498.498 0 000 .5v1c0 .276.222.5.496.5h1.25l3.103 10.266-1.159 1.361c-.458.538-.664 1.28-.453 1.956.27.864 1.027 1.417 1.9 1.417h14.225a.498.498 0 00.496-.5v-1c0-.276-.222-.5-.496-.5H5.137l1.573-1.85c.04-.046.069-.098.099-.15h9.62c.77 0 1.47-.448 1.798-1.149l3.464-7.414c.1-.213.152-.45.152-.685V3.61c0-.889-.716-1.61-1.599-1.61zM5.957 22a1.993 1.993 0 001.985-2c0-1.105-.889-2-1.985-2a1.993 1.993 0 00-1.986 2c0 1.105.889 2 1.986 2zM17.872 22a1.993 1.993 0 001.985-2c0-1.105-.889-2-1.985-2a1.993 1.993 0 00-1.986 2c0 1.105.889 2 1.986 2z"/></g><defs><clipPath id="aclip0_3622_6427"><path d="M-.001 0h16.844a5 5 0 015 5v12a5 5 0 01-5 5H-.001V0z" fill="#fff"/></clipPath></defs></svg><svg fill="none" viewBox="0 0 20 20" id="icon-catalog" xmlns="http://www.w3.org/2000/svg"><g clip-path="url(#bclip0_3622_6358)" fill="#fff"><path d="M19.002 17.262H5.628a.999.999 0 010-1.996h13.374a.998.998 0 010 1.996zm0-6.265H5.628a.998.998 0 010-1.996h13.374a.998.998 0 110 1.996zm0-6.264H5.628a.998.998 0 110-1.996h13.374a.998.998 0 110 1.996zM1.34 5.153a1.34 1.34 0 100-2.68 1.34 1.34 0 000 2.68zM1.34 11.34a1.34 1.34 0 100-2.68 1.34 1.34 0 000 2.68zM1.34 17.527a1.34 1.34 0 100-2.68 1.34 1.34 0 000 2.68z"/></g><defs><clipPath id="bclip0_3622_6358"><path fill="#fff" d="M0 0h20v20H0z"/></clipPath></defs></svg><svg fill="none" viewBox="0 0 20 20" id="icon-email" xmlns="http://www.w3.org/2000/svg"><path d="M.418 3.717c2.745 2.325 7.561 6.414 8.977 7.69.19.172.394.26.605.26.212 0 .415-.087.605-.259 1.416-1.276 6.233-5.366 8.978-7.691a.416.416 0 00.059-.575 1.655 1.655 0 00-1.308-.642H1.667c-.51 0-.988.234-1.308.642a.416.416 0 00.059.575z" fill="currentColor"/><path d="M19.758 4.976a.415.415 0 00-.444.06c-3.044 2.581-6.93 5.889-8.152 6.99-.686.62-1.638.62-2.325 0C7.534 10.851 3.17 7.142.686 5.035A.417.417 0 000 5.355v10.479c0 .92.747 1.667 1.667 1.667h16.666c.92 0 1.667-.748 1.667-1.667V5.354a.416.416 0 00-.242-.378z" fill="currentColor"/></svg><svg fill="none" viewBox="0 0 24 24" id="icon-instagram" xmlns="http://www.w3.org/2000/svg"><path d="M12.004 5.838a6.157 6.157 0 00-6.158 6.158 6.157 6.157 0 006.158 6.158 6.157 6.157 0 006.158-6.158 6.157 6.157 0 00-6.158-6.158zm0 10.155A3.996 3.996 0 1116 11.996a3.995 3.995 0 01-3.997 3.997z" fill="currentColor"/><path d="M16.947.077C14.74-.026 9.27-.02 7.06.077c-1.942.091-3.655.56-5.036 1.941C-.284 4.326.011 7.436.011 11.998c0 4.667-.26 7.705 2.013 9.978 2.317 2.316 5.472 2.013 9.98 2.013 4.623 0 6.22.003 7.854-.63 2.223-.863 3.901-2.85 4.065-6.419.104-2.209.098-7.677 0-9.887C23.725 2.84 21.464.285 16.947.077zm3.495 20.372c-1.513 1.513-3.612 1.378-8.468 1.378-5 0-7.005.074-8.468-1.393-1.685-1.677-1.38-4.37-1.38-8.453 0-5.525-.567-9.504 4.978-9.788 1.274-.045 1.65-.06 4.856-.06l.045.03c5.33 0 9.51-.558 9.761 4.986.057 1.265.07 1.645.07 4.847 0 4.942.093 6.96-1.394 8.453z" fill="currentColor"/><path d="M18.406 7.034a1.439 1.439 0 100-2.878 1.439 1.439 0 000 2.878z" fill="currentColor"/></svg><svg fill="none" viewBox="0 0 24 24" id="icon-life" xmlns="http://www.w3.org/2000/svg"><path d="M24 0H0v24h24V0z" fill="#EC2027"/><path d="M13.7 3.8H12c1.8 3.2 1.6 6.4 1.6 8.2-.1 2.9-.9 5.8-2.4 8.3H13c.7-1.1 1.3-2.3 1.8-3.6.6-1.5.9-3.1 1-4.6.1-1.9-.3-3.9-1-5.7-.2-.9-.6-1.8-1.1-2.6zM11.4 10.2l.1-2.4H8.6v2.4h2.8zM11.1 16.9l.1-2.4H8.3l-.1 2.4h2.9z" fill="#fff"/></svg><svg fill="none" viewBox="0 0 16 16" id="icon-location" xmlns="http://www.w3.org/2000/svg"><path d="M8 0a5.631 5.631 0 00-5.625 5.625c0 1.048.29 2.07.84 2.958l4.465 7.195a.469.469 0 00.398.222h.004a.469.469 0 00.398-.228l4.352-7.265c.519-.869.793-1.865.793-2.882A5.631 5.631 0 008 0zm4.027 8.026L8.071 14.63l-4.06-6.542a4.682 4.682 0 01-.705-2.464A4.704 4.704 0 018 .931a4.7 4.7 0 014.69 4.694c0 .848-.231 1.678-.663 2.4z" fill="#CCC"/><path d="M8 2.813a2.816 2.816 0 00-2.813 2.812A2.809 2.809 0 008 8.438a2.807 2.807 0 002.813-2.813A2.816 2.816 0 008 2.812zm0 4.693a1.883 1.883 0 01-1.881-1.881c0-1.034.847-1.881 1.881-1.881s1.878.847 1.878 1.881A1.88 1.88 0 018 7.506z" fill="#CCC"/></svg><svg fill="none" viewBox="0 0 24 24" id="icon-mts" xmlns="http://www.w3.org/2000/svg"><path d="M0 24h24V0H0v24z" fill="#E2231A"/><path d="M12 2.4c3.4 0 7.1 6.1 7.1 11.4 0 4.1-2.4 7.7-7.1 7.7-4.7 0-7-3.5-7-7.7C5 8.6 8.6 2.4 12 2.4z" fill="#fff"/></svg><svg fill="none" viewBox="0 0 23 22" id="icon-search" xmlns="http://www.w3.org/2000/svg"><path d="M15.625 13.35c2.627-3.547 1.748-8.459-1.96-10.97C9.954-.13 4.818.708 2.192 4.256-.433 7.803.445 12.714 4.155 15.226c2.647 1.792 6.147 1.93 8.94.353l6.066 5.768c.655.66 1.745.686 2.435.06a1.597 1.597 0 000-2.389l-5.971-5.668zm-6.721.538c-2.93 0-5.307-2.27-5.31-5.073 0-2.803 2.375-5.076 5.306-5.077 2.928-.001 5.303 2.266 5.308 5.065.005 2.804-2.368 5.08-5.3 5.085h-.004z" fill="currentColor"/></svg><svg fill="none" viewBox="0 0 23 24" id="icon-velcom" xmlns="http://www.w3.org/2000/svg"><path fill-rule="evenodd" clip-rule="evenodd" d="M1.322 23.115L8.337 2.3l4.543 1.035 5.577 18.17-4.312.345-.92-3.45-5.923.23-1.207 4.255-4.773.23zm7.36-8.05l2.128-6.67 1.61 6.67H8.682z" fill="#E70707"/><path d="M6.843 3.335L8.338 2.3 1.323 23.115 0 22.425l6.843-19.09zM13.225 18.343l.92 3.507-1.438-.575-.747-2.875 1.265-.057zM10.81 8.396l1.61 6.67h-1.38l-1.035-4.083.805-2.587z" fill="#8F0000"/><path d="M22.31 14.375V0l.69.403V14.26l-.69.115z" fill="#0E0E0E"/><path d="M22.31 14.375V0l-2.587.288c-.287.498-1.023 1.656-1.667 2.3-.644.644-1.572 1.015-1.955 1.15V6.67c.69-.287.977-.46 1.552-.805.53-.317 1.15-.747 1.38-.92v9.143l3.278.287z" fill="#3A3A3A"/><path d="M17.02 7.245l-.92-.575c.364-.191 1.152-.576 1.495-.805.517-.345 1.15-.69 1.437-.92v1.093c-.23.172-.575.402-.92.632-.299.2-.805.46-1.092.575z" fill="#0E0E0E"/></svg><svg fill="none" viewBox="0 0 24 24" id="icon-vk" xmlns="http://www.w3.org/2000/svg"><path d="M19.915 13.028c-.388-.49-.277-.708 0-1.146.005-.005 3.208-4.431 3.538-5.932l.002-.001c.164-.547 0-.949-.793-.949h-2.624c-.668 0-.976.345-1.141.731 0 0-1.336 3.198-3.226 5.271-.61.599-.892.791-1.225.791-.164 0-.419-.192-.419-.739V5.949c0-.656-.187-.949-.74-.949H9.161c-.419 0-.668.306-.668.591 0 .622.945.765 1.043 2.515v3.797c0 .832-.151.985-.486.985-.892 0-3.057-3.211-4.34-6.886-.259-.713-.512-1.001-1.185-1.001H.9c-.749 0-.9.345-.9.731 0 .682.892 4.073 4.148 8.553C6.318 17.343 9.374 19 12.154 19c1.671 0 1.875-.368 1.875-1.001 0-2.922-.151-3.198.686-3.198.388 0 1.056.192 2.616 1.667C19.114 18.217 19.407 19 20.405 19h2.624c.748 0 1.127-.368.909-1.094-.499-1.527-3.871-4.668-4.023-4.878z" fill="currentColor"/></svg></svg>