<?xml version="1.0" encoding="utf-8"?><svg viewBox="0 0 40 41" xmlns="http://www.w3.org/2000/svg" xmlns:xlink="http://www.w3.org/1999/xlink"><style>:root>svg{display:none}:root>svg:target{display:block}</style><svg fill="none" viewBox="0 0 12 11" id="icon-arrow-next" xmlns="http://www.w3.org/2000/svg"><path d="M2.96.176l-.384.36a.581.581 0 000 .851l4.352 4.11L2.57 9.614a.58.58 0 000 .85l.382.361a.664.664 0 00.9 0l5.207-4.9a.6.6 0 00.204-.426v-.002a.6.6 0 00-.204-.425L3.868.176A.664.664 0 003.413 0a.657.657 0 00-.453.176z" fill="currentColor"/></svg><svg fill="none" viewBox="0 0 11 10" id="icon-arrow-prev" xmlns="http://www.w3.org/2000/svg"><path d="M7.96 9.84l.33-.327a.543.543 0 00.16-.387.543.543 0 00-.16-.387L4.552 5.002l3.74-3.74a.543.543 0 00.16-.387.543.543 0 00-.16-.387L7.966.16a.548.548 0 00-.774 0l-4.47 4.454a.56.56 0 00-.175.388v.002c0 .146.072.283.175.386L7.18 9.84a.552.552 0 00.78 0z" fill="currentColor"/></svg><svg fill="none" viewBox="0 0 22 22" id="icon-basket" xmlns="http://www.w3.org/2000/svg"><path d="M20.244 2H3.971c-.05 0-.094.019-.14.033l-.4-1.324A.994.994 0 002.481 0H.495A.498.498 0 000 .5v1c0 .276.222.5.496.5h1.25l3.103 10.266-1.159 1.361c-.458.538-.664 1.28-.453 1.956.27.864 1.027 1.417 1.9 1.417h14.225a.498.498 0 00.496-.5v-1c0-.276-.222-.5-.496-.5H5.137l1.573-1.85c.04-.046.069-.098.099-.15h9.62c.77 0 1.47-.448 1.798-1.149l3.464-7.414c.1-.213.152-.45.152-.685V3.61c0-.889-.716-1.61-1.599-1.61zM5.957 22a1.993 1.993 0 001.985-2c0-1.105-.889-2-1.985-2a1.993 1.993 0 00-1.986 2c0 1.105.889 2 1.986 2zM17.872 22a1.993 1.993 0 001.985-2c0-1.105-.889-2-1.985-2a1.993 1.993 0 00-1.986 2c0 1.105.889 2 1.986 2z" fill="currentColor"/></svg><svg fill="none" viewBox="0 0 40 40" id="icon-card" xmlns="http://www.w3.org/2000/svg"><path d="M37.6 6.4H2.4A2.403 2.403 0 000 8.8v22.4c0 1.324 1.077 2.4 2.4 2.4h35.2c1.323 0 2.4-1.076 2.4-2.4V8.8c0-1.323-1.077-2.4-2.4-2.4zm.8 24.8c0 .44-.36.8-.8.8H2.4c-.442 0-.8-.36-.8-.8V8.8a.8.8 0 01.8-.8h35.2c.44 0 .8.359.8.8v22.4z" fill="currentColor"/><path d="M.8 13.6h38.4v3.2H.8v-3.2z" fill="currentColor"/><path d="M39.2 12.8H.8a.8.8 0 00-.8.8v3.2a.8.8 0 00.8.8h38.4a.8.8 0 00.8-.8v-3.2a.8.8 0 00-.8-.8zm-.8 3.2H1.6v-1.6h36.8V16zm-16.8 6.4H7.2a.8.8 0 000 1.6h14.4a.8.8 0 000-1.6zm-6.4 3.2h-8a.8.8 0 000 1.6h8a.8.8 0 000-1.6z" fill="currentColor"/></svg><svg fill="none" viewBox="0 0 40 40" id="icon-card-online" xmlns="http://www.w3.org/2000/svg"><path d="M15 36.25h-5a.625.625 0 100 1.25h5a.624.624 0 100-1.25z" fill="currentColor"/><path d="M36.563 12.5H23.75V2.812A2.19 2.19 0 0021.562.626H3.438A2.19 2.19 0 001.25 2.813v34.374a2.19 2.19 0 002.188 2.188h18.125a2.19 2.19 0 002.187-2.188v-9.062h12.813a2.19 2.19 0 002.187-2.188v-11.25a2.19 2.19 0 00-2.188-2.187zM15.448 1.875l-.312 1.25H9.863l-.312-1.25h5.898zM22.5 37.188a.938.938 0 01-.938.937H3.438a.938.938 0 01-.937-.938V2.813a.938.938 0 01.938-.938h4.824l.507 2.027a.625.625 0 00.606.473h6.25a.625.625 0 00.606-.473l.507-2.027h4.825a.938.938 0 01.937.938v34.374zm1.25-15.313h1.875v2.5H23.75v-2.5zm13.75 4.063a.938.938 0 01-.938.937H23.75v-1.25h2.5a.624.624 0 00.625-.625v-3.75a.624.624 0 00-.625-.625h-2.5V18.75H37.5v7.188zm0-8.438H23.75v-1.25H37.5v1.25zm0-2.5H23.75v-1.25h12.813a.938.938 0 01.937.938V15z" fill="currentColor"/><path d="M35.625 20.625H30a.624.624 0 100 1.25h5.625a.624.624 0 100-1.25zm0 1.875H30a.624.624 0 100 1.25h5.625a.624.624 0 100-1.25zm0 1.875h-2.5a.624.624 0 100 1.25h2.5a.624.624 0 100-1.25zM12.5 12.5A7.5 7.5 0 1020 20a7.508 7.508 0 00-7.5-7.5zm0 13.75A6.25 6.25 0 1118.75 20a6.257 6.257 0 01-6.25 6.25z" fill="currentColor"/><path d="M15.808 17.683l-3.992 3.992-2.066-1.55a.625.625 0 00-.75 1L11.5 23a.625.625 0 00.817-.058l4.375-4.375a.625.625 0 00-.884-.884z" fill="currentColor"/></svg><svg fill="none" viewBox="0 0 16 16" id="icon-caret" xmlns="http://www.w3.org/2000/svg"><path d="M3.752 6.136l3.75 3.75 3.75-3.75" stroke="#EAEAEA" stroke-width="1.5" stroke-linecap="round" stroke-linejoin="round"/></svg><svg fill="none" viewBox="0 0 12 12" id="icon-caret-categories-green" xmlns="http://www.w3.org/2000/svg"><g clip-path="url(#agclip0_3390_9935)"><path d="M2.962.676l-.384.36a.581.581 0 000 .851l4.352 4.11-4.357 4.116a.58.58 0 000 .85l.381.361a.664.664 0 00.901 0l5.207-4.9a.6.6 0 00.204-.426v-.002a.6.6 0 00-.204-.425L3.87.676A.664.664 0 003.415.5a.657.657 0 00-.453.176z" fill="#7CC622"/></g><defs><clipPath id="agclip0_3390_9935"><path fill="#fff" transform="rotate(-90 5.751 5.749)" d="M0 0h11v11.647H0z"/></clipPath></defs></svg><svg fill="none" viewBox="0 0 16 16" id="icon-caret-select" xmlns="http://www.w3.org/2000/svg"><path d="M4.25 7.125L8 10.875l3.75-3.75" stroke="#7CC622" stroke-width="1.5" stroke-linecap="round" stroke-linejoin="round"/></svg><svg fill="none" viewBox="0 0 40 40" id="icon-cash" xmlns="http://www.w3.org/2000/svg"><path d="M9.45 6.602A2.557 2.557 0 006.91 9.15v1.53H5.006a2.517 2.517 0 00-2.507 2.498V30.9c0 1.37 1.134 2.497 2.507 2.497H30.6a2.51 2.51 0 002.497-2.497v-1.575h1.865a2.558 2.558 0 002.542-2.548V9.15a2.558 2.558 0 00-2.542-2.548H9.449zm0 1.669H34.96c.5 0 .876.378.876.879v17.628a.86.86 0 01-.876.882h-1.864V13.178a2.51 2.51 0 00-2.498-2.498H8.57V9.15c0-.504.378-.882.882-.882l-.003.003zm-4.442 4.075h25.553a.851.851 0 01.872.873v17.679a.81.81 0 01-.831.831H5.008a.811.811 0 01-.838-.831v-17.72c0-.473.36-.832.838-.832zm4.52 2.23c-.479 0-.863.309-.85.939.018.882-1.427 2.18-2.287 2.17-.545-.01-.756.369-.75.841v7.02c0 .47.309.845.882.838.857-.006 2.158 1.229 2.158 2.262a.85.85 0 00.85.85h16.545a.843.843 0 00.838-.87c0-.711.79-2.248 2.189-2.248a.835.835 0 00.86-.832V18.53c0-.472-.259-.85-1.115-.84-.854.012-1.94-1.242-1.928-2.127-.006-.68-.368-.986-.844-.982l-16.548-.004zm.542 1.67h15.464c.309 1.436 1.333 2.463 2.763 2.797v5.984a3.574 3.574 0 00-2.772 2.803H10.076a3.569 3.569 0 00-2.772-2.803v-5.985c1.433-.333 2.457-1.357 2.766-2.796zm7.732 1.058c-2.608 0-4.737 2.126-4.737 4.728 0 2.604 2.13 4.74 4.737 4.74a4.756 4.756 0 004.743-4.74c0-2.602-2.138-4.728-4.743-4.728zm0 1.666a3.066 3.066 0 110 6.132 3.057 3.057 0 01-3.07-3.07c0-1.701 1.363-3.062 3.07-3.062z" fill="currentColor"/></svg><svg fill="none" viewBox="0 0 20 20" id="icon-catalog" xmlns="http://www.w3.org/2000/svg"><g clip-path="url(#ajclip0_3622_6358)" fill="#fff"><path d="M19.002 17.262H5.628a.999.999 0 010-1.996h13.374a.998.998 0 010 1.996zm0-6.265H5.628a.998.998 0 010-1.996h13.374a.998.998 0 110 1.996zm0-6.264H5.628a.998.998 0 110-1.996h13.374a.998.998 0 110 1.996zM1.34 5.153a1.34 1.34 0 100-2.68 1.34 1.34 0 000 2.68zM1.34 11.34a1.34 1.34 0 100-2.68 1.34 1.34 0 000 2.68zM1.34 17.527a1.34 1.34 0 100-2.68 1.34 1.34 0 000 2.68z"/></g><defs><clipPath id="ajclip0_3622_6358"><path fill="#fff" d="M0 0h20v20H0z"/></clipPath></defs></svg><svg fill="none" viewBox="0 0 20 20" id="icon-check-green" xmlns="http://www.w3.org/2000/svg"><path d="M16 6l-8.25 8L4 9.91" stroke="#7CC622" stroke-width="2" stroke-linecap="round" stroke-linejoin="round"/></svg><svg fill="none" viewBox="0 0 16 16" id="icon-close" xmlns="http://www.w3.org/2000/svg"><path fill-rule="evenodd" clip-rule="evenodd" d="M9.407 8l6.306 6.306a.995.995 0 01-1.407 1.407L8 9.407l-6.306 6.305a.995.995 0 01-1.407-1.406L6.593 8 .287 1.694A.995.995 0 011.694.287L8 6.593 14.306.287a.995.995 0 011.407 1.407L9.407 8z" fill="currentColor"/></svg><svg fill="none" viewBox="0 0 22 23" id="icon-delivery" xmlns="http://www.w3.org/2000/svg"><g clip-path="url(#amclip0_3542_11018)"><path d="M19 7.222h-3v-4H2a2 2 0 00-2 2v11h2c0 1.655 1.345 3 3 3s3-1.345 3-3h6c0 1.655 1.345 3 3 3s3-1.345 3-3h2v-5l-3-4zm-14 10.5c-.83 0-1.5-.67-1.5-1.5s.67-1.5 1.5-1.5 1.5.67 1.5 1.5-.67 1.5-1.5 1.5zm12 0c-.83 0-1.5-.67-1.5-1.5s.67-1.5 1.5-1.5 1.5.67 1.5 1.5-.67 1.5-1.5 1.5zm-1-6.5v-2.5h2.5l1.965 2.5H16z" fill="#fff"/></g><defs><clipPath id="amclip0_3542_11018"><path fill="#fff" transform="translate(0 .222)" d="M0 0h22v22H0z"/></clipPath></defs></svg><svg fill="none" viewBox="0 0 22 23" id="icon-discount" xmlns="http://www.w3.org/2000/svg"><g clip-path="url(#anclip0_3476_9243)" fill="#fff"><path d="M11 15.863a.736.736 0 100-1.472.736.736 0 000 1.472zM11 8.052a.736.736 0 100-1.472.736.736 0 000 1.472z"/><path d="M21.407.815a2.01 2.01 0 00-1.432-.593h-7.713c-.54 0-1.05.21-1.432.593L.593 11.052A2.012 2.012 0 000 12.484c0 .54.21 1.05.593 1.432l7.713 7.712c.382.383.89.594 1.432.594.54 0 1.05-.211 1.432-.594l10.237-10.236c.382-.383.593-.892.593-1.433V2.247c0-.541-.21-1.05-.593-1.432zM11 5.291c1.117 0 2.025.909 2.025 2.025A2.028 2.028 0 0111 9.342a2.028 2.028 0 01-2.025-2.026c0-1.116.908-2.025 2.025-2.025zm0 11.861a2.028 2.028 0 01-2.025-2.025c0-1.117.908-2.025 2.025-2.025s2.025.908 2.025 2.025A2.028 2.028 0 0111 17.152zm4.142-5.286H6.858a.645.645 0 010-1.289h8.284a.645.645 0 010 1.29zm2.762-6.903a.645.645 0 110-1.29.645.645 0 010 1.29z"/></g><defs><clipPath id="anclip0_3476_9243"><path fill="#fff" transform="translate(0 .222)" d="M0 0h22v22H0z"/></clipPath></defs></svg><svg fill="none" viewBox="0 0 20 20" id="icon-email" xmlns="http://www.w3.org/2000/svg"><path d="M.418 3.717c2.745 2.325 7.561 6.414 8.977 7.69.19.172.394.26.605.26.212 0 .415-.087.605-.259 1.416-1.276 6.233-5.366 8.978-7.691a.416.416 0 00.059-.575 1.655 1.655 0 00-1.308-.642H1.667c-.51 0-.988.234-1.308.642a.416.416 0 00.059.575z" fill="currentColor"/><path d="M19.758 4.976a.415.415 0 00-.444.06c-3.044 2.581-6.93 5.889-8.152 6.99-.686.62-1.638.62-2.325 0C7.534 10.851 3.17 7.142.686 5.035A.417.417 0 000 5.355v10.479c0 .92.747 1.667 1.667 1.667h16.666c.92 0 1.667-.748 1.667-1.667V5.354a.416.416 0 00-.242-.378z" fill="currentColor"/></svg><svg fill="none" viewBox="0 0 20 20" id="icon-filter" xmlns="http://www.w3.org/2000/svg"><path d="M18.925 0H1.095a.838.838 0 00-.748.455.85.85 0 00.067.884l6.532 9.202.007.01c.237.32.365.708.366 1.107v7.502a.835.835 0 001.163.774l3.67-1.4c.33-.1.548-.41.548-.784v-6.092c0-.399.129-.787.366-1.108l.007-.009 6.532-9.202a.848.848 0 00.066-.884.837.837 0 00-.746-.455z" fill="currentColor"/></svg><svg fill="none" viewBox="0 0 14 15" id="icon-info-circle" xmlns="http://www.w3.org/2000/svg"><path d="M7.008.047c-3.87 0-7 3.13-7 7 0 3.869 3.13 7 7 7 3.869 0 7-3.13 7-7 0-3.869-3.13-7-7-7zm0 13.023A6.03 6.03 0 01.985 7.047a6.03 6.03 0 016.023-6.023 6.03 6.03 0 016.023 6.023 6.03 6.03 0 01-6.023 6.023z" fill="currentColor"/><path d="M7.006 5.882c-.414 0-.71.175-.71.433v3.51c0 .222.296.443.71.443.397 0 .719-.221.719-.443v-3.51c0-.258-.322-.433-.719-.433zM7.01 3.717c-.424 0-.756.304-.756.654 0 .35.332.663.755.663.415 0 .747-.313.747-.663 0-.35-.332-.654-.747-.654z" fill="currentColor"/></svg><svg fill="none" viewBox="0 0 14 15" id="icon-info-circle-filled" xmlns="http://www.w3.org/2000/svg"><path d="M7 .08c-3.869 0-7 3.13-7 7 0 3.869 3.13 7 7 7 3.869 0 7-3.13 7-7 0-3.869-3.13-7-7-7zm.719 9.779c0 .22-.323.442-.719.442-.415 0-.71-.221-.71-.442v-3.51c0-.259.296-.434.71-.434.396 0 .719.175.719.433v3.51zM7 5.067c-.424 0-.755-.313-.755-.663 0-.35.331-.654.755-.654.415 0 .747.304.747.654 0 .35-.332.663-.747.663z" fill="currentColor"/></svg><svg fill="none" viewBox="0 0 24 24" id="icon-instagram" xmlns="http://www.w3.org/2000/svg"><path d="M12.004 5.838a6.157 6.157 0 00-6.158 6.158 6.157 6.157 0 006.158 6.158 6.157 6.157 0 006.158-6.158 6.157 6.157 0 00-6.158-6.158zm0 10.155A3.996 3.996 0 1116 11.996a3.995 3.995 0 01-3.997 3.997z" fill="currentColor"/><path d="M16.947.077C14.74-.026 9.27-.02 7.06.077c-1.942.091-3.655.56-5.036 1.941C-.284 4.326.011 7.436.011 11.998c0 4.667-.26 7.705 2.013 9.978 2.317 2.316 5.472 2.013 9.98 2.013 4.623 0 6.22.003 7.854-.63 2.223-.863 3.901-2.85 4.065-6.419.104-2.209.098-7.677 0-9.887C23.725 2.84 21.464.285 16.947.077zm3.495 20.372c-1.513 1.513-3.612 1.378-8.468 1.378-5 0-7.005.074-8.468-1.393-1.685-1.677-1.38-4.37-1.38-8.453 0-5.525-.567-9.504 4.978-9.788 1.274-.045 1.65-.06 4.856-.06l.045.03c5.33 0 9.51-.558 9.761 4.986.057 1.265.07 1.645.07 4.847 0 4.942.093 6.96-1.394 8.453z" fill="currentColor"/><path d="M18.406 7.034a1.439 1.439 0 100-2.878 1.439 1.439 0 000 2.878z" fill="currentColor"/></svg><svg fill="none" viewBox="0 0 24 24" id="icon-life" xmlns="http://www.w3.org/2000/svg"><path d="M24 0H0v24h24V0z" fill="#EC2027"/><path d="M13.7 3.8H12c1.8 3.2 1.6 6.4 1.6 8.2-.1 2.9-.9 5.8-2.4 8.3H13c.7-1.1 1.3-2.3 1.8-3.6.6-1.5.9-3.1 1-4.6.1-1.9-.3-3.9-1-5.7-.2-.9-.6-1.8-1.1-2.6zM11.4 10.2l.1-2.4H8.6v2.4h2.8zM11.1 16.9l.1-2.4H8.3l-.1 2.4h2.9z" fill="#fff"/></svg><svg fill="none" viewBox="0 0 20 20" id="icon-like" xmlns="http://www.w3.org/2000/svg"><path d="M18.393 3.308a5.585 5.585 0 00-7.888 0L10 3.813l-.505-.505a5.584 5.584 0 00-7.888 0c-2.13 2.13-2.144 5.507-.032 7.855 1.926 2.14 7.608 6.766 7.85 6.962a.879.879 0 00.555.197H10c.202.01.406-.06.575-.197.241-.196 5.923-4.821 7.85-6.962 2.112-2.348 2.098-5.725-.032-7.855zm-1.28 6.674c-1.502 1.668-5.631 5.11-7.113 6.331-1.483-1.221-5.61-4.662-7.112-6.331-1.474-1.638-1.488-3.97-.032-5.425A3.8 3.8 0 015.55 3.442a3.8 3.8 0 012.695 1.115l1.11 1.11a.854.854 0 00.474.239.885.885 0 00.812-.239l1.111-1.11a3.817 3.817 0 015.391 0c1.455 1.455 1.441 3.787-.031 5.425z" fill="currentColor"/></svg><svg fill="none" viewBox="0 0 16 16" id="icon-location" xmlns="http://www.w3.org/2000/svg"><path d="M8 0a5.631 5.631 0 00-5.625 5.625c0 1.048.29 2.07.84 2.958l4.465 7.195a.469.469 0 00.398.222h.004a.469.469 0 00.398-.228l4.352-7.265c.519-.869.793-1.865.793-2.882A5.631 5.631 0 008 0zm4.027 8.026L8.071 14.63l-4.06-6.542a4.682 4.682 0 01-.705-2.464A4.704 4.704 0 018 .931a4.7 4.7 0 014.69 4.694c0 .848-.231 1.678-.663 2.4z" fill="currentColor"/><path d="M8 2.813a2.816 2.816 0 00-2.813 2.812A2.809 2.809 0 008 8.438a2.807 2.807 0 002.813-2.813A2.816 2.816 0 008 2.812zm0 4.693a1.883 1.883 0 01-1.881-1.881c0-1.034.847-1.881 1.881-1.881s1.878.847 1.878 1.881A1.88 1.88 0 018 7.506z" fill="currentColor"/></svg><svg fill="none" viewBox="0 0 17 16" id="icon-location-filled" xmlns="http://www.w3.org/2000/svg"><path d="M8.463-.009c-3.262 0-5.916 2.6-5.916 5.795 0 3.965 5.294 9.786 5.52 10.032a.54.54 0 00.792 0c.225-.246 5.52-6.067 5.52-10.032 0-3.195-2.654-5.795-5.916-5.795zm0 8.71c-1.642 0-2.977-1.308-2.977-2.915 0-1.608 1.335-2.916 2.977-2.916 1.64 0 2.976 1.308 2.976 2.916 0 1.607-1.335 2.915-2.976 2.915z" fill="currentColor"/></svg><svg fill="none" viewBox="0 0 24 24" id="icon-mts" xmlns="http://www.w3.org/2000/svg"><path d="M0 24h24V0H0v24z" fill="#E2231A"/><path d="M12 2.4c3.4 0 7.1 6.1 7.1 11.4 0 4.1-2.4 7.7-7.1 7.7-4.7 0-7-3.5-7-7.7C5 8.6 8.6 2.4 12 2.4z" fill="#fff"/></svg><svg fill="none" viewBox="0 0 40 41" id="icon-pharmacy" xmlns="http://www.w3.org/2000/svg"><path d="M39.333 12.067h-.666V4.734A.667.667 0 0038 4.067H26.667V.734A.667.667 0 0026 .067H14a.667.667 0 00-.667.667v3.333H2a.667.667 0 00-.667.667v7.333H.667a.667.667 0 00-.667.667v2.667c0 .368.299.666.667.666h.666v23.334c0 .368.299.666.667.666h36a.667.667 0 00.667-.666V16.067h.666a.667.667 0 00.667-.666v-2.667a.667.667 0 00-.667-.667zM26.667 5.401h10.666v6.666H26.667V5.401zm-12-4h10.666v10.666H14.667V1.401zm-12 4h10.666v6.666H2.667V5.401zm30 33.333H24v-5.333h8.667v5.333zm0-6.667H24v-6.666h8.667v6.666zm0-8H24v-3.333h8.667v3.333zm4.666 14.667H34V20.067a.667.667 0 00-.667-.666h-10a.667.667 0 00-.666.666v18.667h-20V16.067h34.666v22.667zm1.334-24H1.333v-1.333h37.334v1.333z" fill="currentColor"/><path d="M6.667 34.067h12a.667.667 0 00.666-.667v-3.333a.667.667 0 00-.666-.667H18v-9.333a.667.667 0 00-.667-.667H8a.667.667 0 00-.667.667V29.4h-.666a.667.667 0 00-.667.667V33.4c0 .369.298.667.667.667zm2-13.333h8V29.4h-8v-8.666zm-1.334 10H18v2H7.333v-2zM30.667 29.4a.667.667 0 00.666-.666v-.667a.667.667 0 10-1.333 0v.667c0 .368.299.666.667.666zM23.333 4.734H22V3.401a.667.667 0 00-.667-.667h-2.666a.667.667 0 00-.667.667v1.333h-1.333a.667.667 0 00-.667.667v2.667c0 .368.299.666.667.666H18v1.334c0 .368.299.666.667.666h2.666a.667.667 0 00.667-.666V8.734h1.333A.667.667 0 0024 8.068V5.4a.667.667 0 00-.667-.667zm-.666 2.667h-1.334a.667.667 0 00-.666.667V9.4h-1.334V8.068a.667.667 0 00-.666-.667h-1.334V6.068h1.334a.667.667 0 00.666-.667V4.068h1.334V5.4c0 .368.298.667.666.667h1.334V7.4z" fill="currentColor"/><path d="M11.138 25.206l2-2a.667.667 0 00-.942-.943l-2 2a.667.667 0 10.942.943zM14.193 23.596L10.86 26.93a.667.667 0 10.942.942l3.334-3.333a.667.667 0 00-.943-.943z" fill="currentColor"/></svg><svg fill="none" viewBox="0 0 23 22" id="icon-search" xmlns="http://www.w3.org/2000/svg"><path d="M15.625 13.35c2.627-3.547 1.748-8.459-1.96-10.97C9.954-.13 4.818.708 2.192 4.256-.433 7.803.445 12.714 4.155 15.226c2.647 1.792 6.147 1.93 8.94.353l6.066 5.768c.655.66 1.745.686 2.435.06a1.597 1.597 0 000-2.389l-5.971-5.668zm-6.721.538c-2.93 0-5.307-2.27-5.31-5.073 0-2.803 2.375-5.076 5.306-5.077 2.928-.001 5.303 2.266 5.308 5.065.005 2.804-2.368 5.08-5.3 5.085h-.004z" fill="currentColor"/></svg><svg fill="none" viewBox="0 0 23 24" id="icon-velcom" xmlns="http://www.w3.org/2000/svg"><path fill-rule="evenodd" clip-rule="evenodd" d="M1.322 23.115L8.337 2.3l4.543 1.035 5.577 18.17-4.312.345-.92-3.45-5.923.23-1.207 4.255-4.773.23zm7.36-8.05l2.128-6.67 1.61 6.67H8.682z" fill="#E70707"/><path d="M6.843 3.335L8.338 2.3 1.323 23.115 0 22.425l6.843-19.09zM13.225 18.343l.92 3.507-1.438-.575-.747-2.875 1.265-.057zM10.81 8.396l1.61 6.67h-1.38l-1.035-4.083.805-2.587z" fill="#8F0000"/><path d="M22.31 14.375V0l.69.403V14.26l-.69.115z" fill="#0E0E0E"/><path d="M22.31 14.375V0l-2.587.288c-.287.498-1.023 1.656-1.667 2.3-.644.644-1.572 1.015-1.955 1.15V6.67c.69-.287.977-.46 1.552-.805.53-.317 1.15-.747 1.38-.92v9.143l3.278.287z" fill="#3A3A3A"/><path d="M17.02 7.245l-.92-.575c.364-.191 1.152-.576 1.495-.805.517-.345 1.15-.69 1.437-.92v1.093c-.23.172-.575.402-.92.632-.299.2-.805.46-1.092.575z" fill="#0E0E0E"/></svg><svg fill="none" viewBox="0 0 24 24" id="icon-vk" xmlns="http://www.w3.org/2000/svg"><path d="M19.915 13.028c-.388-.49-.277-.708 0-1.146.005-.005 3.208-4.431 3.538-5.932l.002-.001c.164-.547 0-.949-.793-.949h-2.624c-.668 0-.976.345-1.141.731 0 0-1.336 3.198-3.226 5.271-.61.599-.892.791-1.225.791-.164 0-.419-.192-.419-.739V5.949c0-.656-.187-.949-.74-.949H9.161c-.419 0-.668.306-.668.591 0 .622.945.765 1.043 2.515v3.797c0 .832-.151.985-.486.985-.892 0-3.057-3.211-4.34-6.886-.259-.713-.512-1.001-1.185-1.001H.9c-.749 0-.9.345-.9.731 0 .682.892 4.073 4.148 8.553C6.318 17.343 9.374 19 12.154 19c1.671 0 1.875-.368 1.875-1.001 0-2.922-.151-3.198.686-3.198.388 0 1.056.192 2.616 1.667C19.114 18.217 19.407 19 20.405 19h2.624c.748 0 1.127-.368.909-1.094-.499-1.527-3.871-4.668-4.023-4.878z" fill="currentColor"/></svg></svg>