<svg width="40" height="40" fill="none" xmlns="http://www.w3.org/2000/svg"><g clip-path="url(#clip0_3730_6794)"><path fill="#EAEAEA" d="M0 0h40v40H0z"/><path d="M34.553 31.695a7.423 7.423 0 00-3.08-1.422l-5.483-1.1a1.236 1.236 0 01-.99-1.225V26.69c.352-.495.685-1.152 1.032-1.84.27-.533.678-1.335.88-1.543 1.11-1.114 2.183-2.367 2.515-3.982.31-1.515.006-2.31-.352-2.95 0-1.598-.05-3.598-.427-5.053-.046-1.97-.403-3.077-1.303-4.047-.635-.688-1.57-.848-2.322-.975-.296-.05-.703-.12-.853-.2-1.333-.72-2.65-1.072-4.223-1.1-3.292.135-7.34 2.23-8.694 5.965-.42 1.137-.378 3.005-.343 4.505l-.033.902c-.322.63-.64 1.43-.327 2.95.33 1.618 1.402 2.873 2.532 4.003.185.19.603 1 .878 1.535.352.685.688 1.34 1.04 1.832v1.258c0 .598-.418 1.113-.995 1.225l-5.487 1.1a7.44 7.44 0 00-3.07 1.42 1.25 1.25 0 00-.147 1.82C9.034 37.635 14.391 40 19.999 40c5.608 0 10.968-2.362 14.7-6.485a1.245 1.245 0 00.177-1.43c-.08-.15-.19-.284-.325-.39z" fill="#455A64"/></g><defs><clipPath id="clip0_3730_6794"><path fill="#fff" d="M0 0h40v40H0z"/></clipPath></defs></svg>